{"glyphs":{"0":{"ha":789,"x_min":0,"x_max":0,"o":"m 39 267 b 354 -32 39 86 164 -32 b 750 293 570 -32 750 117 b 382 616 750 472 586 616 b 39 267 191 616 39 463 z m 614 267 b 372 93 614 171 505 93 b 176 306 248 93 176 170 b 354 490 176 408 254 490 b 614 267 498 490 614 388 z "},"1":{"ha":561,"x_min":0,"x_max":0,"o":"m 90 374 b 250 475 135 410 214 475 b 289 435 269 475 283 461 b 335 75 315 316 325 197 b 383 26 338 43 355 26 b 428 33 387 26 393 26 b 475 89 459 39 475 57 b 429 468 475 129 451 355 b 314 637 416 534 406 637 b 268 627 298 637 285 634 b -18 415 180 586 -18 471 b 7 375 -18 401 -10 388 b 50 355 25 361 37 355 b 90 374 64 355 77 361 z "},"2":{"ha":681,"x_min":0,"x_max":0,"o":"m 195 550 b 311 615 218 586 252 615 b 431 510 374 615 431 575 b 103 121 431 366 228 213 b 71 62 82 105 71 87 b 125 -16 71 21 84 -16 b 585 -47 274 -16 530 -47 b 642 -3 612 -47 634 -33 b 648 36 649 22 648 28 b 603 81 648 62 633 77 b 335 103 513 91 425 98 b 307 121 317 103 307 111 b 321 144 307 128 311 136 b 571 536 440 250 571 387 b 339 739 571 661 464 739 b 86 607 218 739 134 682 b 77 576 80 597 77 587 b 109 532 77 558 87 543 b 150 518 132 521 142 518 b 195 550 168 518 182 529 z "},"3":{"ha":721,"x_min":0,"x_max":0,"o":"m 277 302 b 375 325 310 311 345 325 b 524 184 447 325 524 271 b 399 85 524 111 472 85 b 262 143 347 85 284 92 b 204 195 249 174 237 190 l 160 199 b 111 158 131 199 111 183 b 114 140 111 153 112 146 b 379 -41 144 24 253 -41 b 660 186 522 -41 660 39 b 517 418 660 282 616 371 b 497 439 504 424 497 431 b 507 460 497 444 500 451 b 538 557 529 490 538 524 b 283 753 538 673 438 753 b -1 637 160 753 -1 699 b 25 585 -1 625 4 612 b 69 557 41 564 54 557 b 107 572 80 557 93 562 b 261 629 151 606 199 629 b 401 538 321 629 401 604 b 310 449 401 478 364 451 b 207 387 260 447 207 439 b 208 376 207 385 208 381 l 212 349 b 260 300 217 318 232 300 b 277 302 265 300 271 300 z "},"4":{"ha":657,"x_min":0,"x_max":0,"o":"m 589 240 l 557 241 b 518 271 536 243 524 250 b 414 627 486 391 449 507 b 329 736 407 650 422 736 b 248 694 294 736 248 732 b 254 650 248 681 254 664 b 237 603 254 633 249 617 b 75 376 183 528 122 456 b 20 248 52 336 20 294 b 253 134 20 151 174 139 l 382 123 b 433 21 412 120 417 104 b 488 -100 446 -52 458 -100 b 549 -86 500 -100 511 -99 b 589 -35 575 -78 589 -61 b 567 89 589 4 567 62 b 621 134 567 130 606 101 b 637 196 625 140 637 180 b 589 240 637 224 619 238 z m 309 256 l 199 268 b 175 292 184 271 175 279 b 182 314 175 298 177 305 b 269 444 208 358 237 400 b 293 460 277 454 285 460 b 318 436 307 460 315 444 b 364 290 343 373 351 330 b 367 275 366 285 367 280 b 340 253 367 261 357 253 b 309 256 332 253 319 254 z "},"5":{"ha":730,"x_min":0,"x_max":0,"o":"m 600 699 b 489 703 566 701 528 703 b 171 675 399 703 296 696 b 75 576 114 665 83 633 b 69 524 69 539 69 530 b 142 425 69 478 94 446 b 558 161 402 319 558 267 b 411 75 558 107 506 75 b 199 212 313 75 199 114 b 207 260 199 227 201 243 b 210 275 209 265 210 271 b 161 309 210 296 193 307 l 127 310 b 69 271 103 310 82 300 b 50 186 56 245 50 220 b 389 -47 50 28 227 -47 b 694 186 575 -47 694 47 b 243 526 694 373 435 456 b 221 547 229 532 221 538 b 245 568 221 560 229 567 b 441 578 309 576 374 578 b 627 572 498 578 553 575 b 667 611 652 574 667 589 b 664 632 667 618 666 625 l 660 648 b 600 699 652 681 632 696 z "},"6":{"ha":704,"x_min":0,"x_max":0,"o":"m 513 606 b 368 659 473 639 427 659 b 50 315 172 659 50 487 b 457 -29 50 123 214 -29 b 703 164 587 -29 703 43 b 498 323 703 269 604 323 b 233 254 403 323 313 296 b 216 250 228 252 222 250 b 196 267 208 250 201 256 b 184 339 189 290 184 317 b 335 533 184 439 250 533 b 414 509 359 533 385 525 b 453 496 428 500 441 496 b 493 513 467 496 480 501 l 510 528 b 532 570 524 541 532 555 b 513 606 532 583 526 594 z m 564 147 b 464 97 564 118 529 97 b 318 131 416 97 374 103 b 301 151 307 136 301 143 b 319 171 301 159 309 166 b 463 201 368 191 417 201 b 564 147 503 201 564 191 z "},"7":{"ha":722,"x_min":0,"x_max":0,"o":"m 121 269 b 349 278 149 269 253 278 b 383 241 371 278 381 264 l 375 8 b 419 -39 376 -23 391 -39 b 463 -32 424 -39 428 -39 b 514 28 496 -24 513 -5 l 521 232 b 557 265 523 256 533 265 b 682 252 578 265 657 252 b 737 290 709 252 727 264 b 751 335 749 317 751 326 b 707 376 751 357 734 372 b 555 393 657 384 606 389 b 521 429 532 396 521 408 b 484 611 519 515 518 578 b 205 689 413 675 296 684 b 100 692 171 691 137 692 l 25 690 b -31 636 -9 690 -28 671 l -32 616 b 21 568 -32 585 -14 568 l 78 570 b 338 538 170 570 281 557 b 380 482 364 528 376 510 b 383 436 382 468 383 452 b 349 401 383 413 372 401 b 126 393 275 401 199 399 b 72 317 83 390 72 355 b 121 269 72 285 90 269 z "},"8":{"ha":761,"x_min":0,"x_max":0,"o":"m 357 703 b 106 513 230 703 106 652 b 129 429 106 490 110 467 b 136 407 134 420 136 413 b 125 382 136 399 132 391 b 68 214 89 333 68 273 b 385 -33 68 43 241 -33 b 707 211 540 -33 707 45 b 625 395 707 279 677 344 b 611 421 616 402 611 411 b 616 441 611 429 614 433 b 628 496 624 459 628 477 b 357 703 628 633 487 703 z m 532 292 b 576 197 562 258 576 225 b 393 89 576 130 503 89 b 203 232 304 89 203 135 b 236 334 203 267 209 310 l 241 338 b 248 339 242 338 244 339 b 272 335 253 339 261 338 b 370 322 304 326 336 322 b 452 329 396 322 424 323 b 467 330 457 331 462 330 b 494 322 477 330 484 330 b 532 292 507 314 519 304 z m 330 582 b 493 476 390 582 493 555 b 489 472 493 473 492 472 b 454 479 484 472 473 475 b 375 488 429 485 403 488 b 304 479 351 488 326 485 b 290 478 298 477 295 478 b 260 493 279 478 269 483 b 239 538 244 509 239 524 b 330 582 239 578 290 582 z "},"9":{"ha":696,"x_min":0,"x_max":0,"o":"m 644 586 b 361 676 566 648 470 676 b -29 429 241 676 -29 627 b 195 239 -29 319 89 239 b 428 318 273 239 354 267 b 449 326 436 323 443 326 b 464 306 459 326 464 319 b 457 121 464 282 457 179 b 465 -86 457 51 460 -18 b 513 -135 468 -119 484 -135 b 528 -134 517 -135 522 -136 l 557 -127 b 604 -75 589 -122 604 -104 l 604 -65 b 595 158 599 8 595 83 b 607 440 595 252 597 347 b 640 505 610 468 619 486 b 667 547 661 524 667 534 b 644 586 667 560 660 573 z m 403 443 b 224 366 352 401 291 366 b 109 452 151 366 109 400 b 298 551 109 528 242 546 b 336 553 311 553 323 553 b 436 539 370 553 404 549 b 460 514 452 534 460 526 b 452 493 460 507 457 500 b 403 443 437 475 421 458 z "}," ":{"ha":329,"x_min":0,"x_max":0,"o":""},"!":{"ha":353,"x_min":0,"x_max":0,"o":"m 46 778 b 132 244 96 593 125 410 b 165 210 134 223 142 212 l 222 201 b 260 272 254 201 260 237 b 203 804 260 462 235 635 b 87 854 196 838 157 854 b 40 810 56 854 40 835 b 46 778 40 800 43 791 z m 186 -57 b 265 5 235 -57 265 -33 b 175 85 265 47 222 85 b 92 21 124 85 92 59 b 186 -57 92 -24 134 -57 z "},"\"":{"ha":576,"x_min":0,"x_max":0,"o":"m 248 700 b 182 724 240 717 212 724 b 104 684 138 724 104 715 b 115 524 104 656 115 614 b 108 343 115 437 108 371 b 159 310 108 318 137 310 b 252 621 212 310 252 374 b 248 700 252 663 252 690 z m 471 700 b 406 724 463 717 435 724 b 328 684 361 724 328 715 b 338 524 328 656 338 614 b 331 343 338 437 331 371 b 382 310 331 318 360 310 b 475 621 435 310 475 374 b 471 700 475 663 475 690 z "},"#":{"ha":631,"x_min":0,"x_max":0,"o":"m 431 668 l 404 515 b 383 496 403 503 396 496 l 328 493 b 309 510 315 493 309 498 l 326 650 l 326 657 b 296 686 326 675 315 686 l 244 684 b 208 650 223 682 211 671 l 191 507 b 168 488 189 494 181 488 l 126 488 b 89 457 105 488 93 477 l 79 421 b 78 410 77 416 78 414 b 110 382 78 393 89 382 l 150 382 b 170 363 163 382 170 376 l 157 278 b 135 258 155 265 148 258 l 96 258 b 58 228 75 258 62 248 l 49 192 b 47 180 47 187 47 185 b 79 153 47 164 58 153 l 113 153 b 132 136 126 153 132 146 l 132 131 b 110 21 125 93 118 57 b 109 9 108 16 109 12 b 138 -17 109 -7 119 -17 b 189 -14 157 -17 174 -16 b 227 17 210 -14 222 -3 l 250 140 b 272 160 252 152 259 158 l 313 161 b 332 146 326 161 332 156 b 330 139 332 143 331 141 l 309 43 b 307 32 307 38 307 35 b 336 5 307 16 318 5 b 387 8 355 5 372 6 b 425 39 408 8 419 20 l 450 151 b 472 171 452 163 460 170 b 533 172 493 171 512 170 b 567 207 554 174 566 185 l 570 243 b 539 278 570 267 558 278 l 500 277 b 481 293 486 277 481 283 l 481 298 l 497 380 b 518 400 498 392 505 399 l 581 404 b 614 439 602 406 612 417 l 616 475 b 586 510 616 498 606 510 l 543 505 b 524 522 530 505 524 511 l 524 528 l 547 665 l 547 672 b 514 703 547 692 536 703 l 467 700 b 431 668 446 699 433 688 z m 275 288 l 288 367 b 310 387 289 379 296 386 l 364 387 b 379 374 374 387 379 382 b 378 367 379 372 378 370 l 361 286 b 339 267 359 275 351 268 l 289 267 b 273 281 279 267 273 271 b 275 288 273 283 275 285 z "},"$":{"ha":624,"x_min":0,"x_max":0,"o":"m 313 794 l 307 704 b 82 551 204 691 82 638 b 289 355 82 479 179 426 l 279 160 b 218 279 241 191 218 231 b 172 328 218 304 192 324 l 160 332 b 140 335 153 334 148 335 b 90 250 100 335 90 291 b 272 22 90 149 172 64 l 264 -129 b 302 -174 264 -158 279 -174 b 378 -123 363 -174 376 -150 l 383 -4 b 408 -5 392 -6 400 -5 b 625 174 505 -5 625 56 b 407 431 625 279 505 367 l 415 585 l 456 585 b 504 619 479 585 491 595 b 517 661 515 644 517 653 b 421 703 517 682 480 695 l 427 800 b 387 844 427 829 411 844 b 313 794 329 844 315 821 z m 390 110 l 399 283 b 500 153 451 249 500 189 b 428 107 500 118 460 107 b 390 110 415 107 403 108 z m 232 558 b 301 596 232 585 267 593 l 297 497 b 232 558 268 513 232 534 z "},"%":{"ha":895,"x_min":0,"x_max":0,"o":"m 478 743 b 425 593 461 692 444 644 b 386 497 414 560 386 494 b 211 679 386 614 302 679 b 89 639 170 679 127 665 b 66 612 73 628 66 618 b 69 603 66 608 69 608 b 62 578 69 597 68 591 b 40 478 57 566 40 525 b 197 306 40 380 102 306 b 300 334 233 306 269 315 b 322 342 310 339 317 342 b 329 335 327 342 329 340 b 323 315 329 330 326 323 b 161 -136 267 164 213 16 b 157 -160 158 -144 157 -152 b 191 -208 157 -181 168 -197 l 215 -221 b 244 -228 227 -227 236 -228 b 289 -191 266 -228 281 -216 b 457 278 342 -33 400 121 l 461 277 l 456 243 b 450 187 453 224 450 205 b 644 -22 450 66 538 -22 b 872 211 766 -22 872 74 b 686 419 872 315 811 419 b 526 368 630 419 574 400 b 504 358 517 361 510 358 b 494 370 498 358 494 362 b 498 387 494 374 496 380 b 606 689 536 488 571 587 b 610 713 608 697 610 705 b 575 761 610 734 599 750 l 550 774 b 522 781 540 779 530 781 b 478 743 503 781 486 768 z m 667 90 b 576 208 608 90 576 155 b 579 236 576 220 577 228 b 583 261 581 248 583 256 b 581 269 583 263 583 266 b 653 304 588 294 629 304 b 750 200 705 304 750 263 b 667 90 750 148 724 90 z m 167 501 b 191 561 167 519 171 561 b 262 478 239 561 262 518 b 222 416 262 446 248 416 b 167 501 179 416 167 469 z "},"&":{"ha":640,"x_min":0,"x_max":0,"o":"m 607 74 l 562 111 b 551 134 555 119 551 126 b 555 150 551 139 553 144 b 587 265 578 193 587 231 b 582 307 587 281 585 292 b 547 326 579 320 568 326 b 504 319 540 326 525 325 b 456 288 472 311 456 303 b 458 254 456 273 458 264 b 447 218 458 243 458 218 b 422 236 444 218 438 220 l 372 288 b 354 311 362 298 354 306 b 357 315 354 312 355 313 b 541 534 454 359 541 420 b 322 714 541 653 431 714 b 100 505 199 714 100 632 b 153 350 100 454 119 404 b 158 332 155 342 158 338 b 147 311 158 323 155 319 b 83 172 109 275 83 231 b 294 -8 83 61 195 -8 b 431 25 345 -8 390 4 b 447 29 436 28 441 29 b 469 21 455 29 463 26 l 510 -14 b 551 -32 524 -26 538 -32 b 604 -5 564 -32 575 -28 b 628 35 620 7 628 21 b 607 74 628 47 621 61 z m 232 518 b 319 597 232 583 279 597 b 410 514 368 597 410 566 b 304 407 410 468 354 431 b 289 403 298 404 293 403 b 267 418 280 403 273 408 b 232 518 243 454 232 488 z m 311 107 b 211 196 254 107 211 137 b 216 224 211 206 214 215 b 233 235 221 231 227 235 b 254 222 241 235 248 231 b 334 146 278 197 304 172 b 343 125 340 140 343 132 b 311 107 343 115 339 107 z "},"'":{"ha":353,"x_min":0,"x_max":0,"o":"m 248 700 b 182 724 240 717 212 724 b 104 684 138 724 104 715 b 115 524 104 656 115 614 b 108 343 115 437 108 371 b 159 310 108 318 137 310 b 252 621 212 310 252 374 b 248 700 252 663 252 690 z "},"(":{"ha":393,"x_min":0,"x_max":0,"o":"m 155 761 b 111 363 129 630 111 495 b 224 -123 111 189 146 -13 b 283 -175 248 -155 268 -175 b 334 -151 294 -175 307 -170 b 372 -103 363 -130 372 -119 b 322 -12 372 -76 340 -50 b 249 370 264 103 249 242 b 285 721 249 498 267 632 b 293 771 292 755 293 765 b 240 811 293 796 273 811 b 155 761 182 811 162 793 z "},")":{"ha":393,"x_min":0,"x_max":0,"o":"m 237 -125 b 282 273 264 6 282 141 b 170 760 282 447 248 649 b 110 811 146 791 125 811 b 60 787 98 811 86 806 b 21 739 31 766 21 755 b 71 648 21 712 52 686 b 144 267 127 531 144 396 b 109 -85 144 138 127 4 b 100 -135 101 -119 100 -129 b 153 -175 100 -160 119 -175 b 237 -125 211 -175 231 -157 z "},"*":{"ha":479,"x_min":0,"x_max":0,"o":"m 127 522 b 147 515 143 522 147 520 b 118 476 147 508 139 497 b 78 424 92 450 78 435 b 106 393 78 415 83 404 b 138 386 111 390 121 386 b 207 446 161 386 189 446 b 221 390 220 446 221 418 b 248 330 221 358 225 330 b 325 367 271 330 325 340 b 307 475 325 387 307 458 b 319 492 307 488 309 492 b 406 472 336 492 380 472 b 447 509 416 472 431 479 b 457 543 452 517 457 528 b 396 571 457 562 435 566 b 347 587 361 576 347 579 b 422 664 347 604 422 642 b 372 717 422 681 404 717 b 328 685 359 717 347 704 b 285 650 300 656 290 650 b 237 760 258 650 273 760 b 171 736 224 760 204 755 b 160 715 163 731 160 724 b 172 661 160 701 162 688 b 183 618 180 637 183 625 b 161 606 183 608 177 606 b 58 614 144 606 92 614 b 22 545 32 614 22 558 b 62 519 22 525 37 519 b 127 522 74 519 113 522 z "},"+":{"ha":675,"x_min":0,"x_max":0,"o":"m 58 272 b 218 277 113 274 167 277 b 252 241 241 277 252 265 b 249 110 252 198 249 154 b 289 64 249 81 262 64 b 301 65 294 64 296 63 l 343 74 b 387 142 371 79 387 106 b 390 245 387 173 390 218 b 424 286 390 273 400 284 l 610 297 b 659 346 641 298 657 315 l 660 379 b 612 421 660 407 644 421 b 419 410 547 421 484 410 b 386 443 398 410 388 422 l 379 606 b 338 648 378 634 364 648 b 325 647 333 648 330 647 l 282 639 b 240 585 252 633 240 615 b 248 433 240 533 248 484 b 203 400 248 412 236 400 b 77 397 178 400 139 397 b 24 355 48 397 31 383 l 17 326 b 14 310 15 321 14 315 b 58 272 14 286 29 272 z "},",":{"ha":436,"x_min":0,"x_max":0,"o":"m 336 82 b 228 143 336 114 260 143 b 196 114 211 143 201 132 b 64 -204 149 -54 64 -186 b 135 -253 64 -225 113 -253 b 336 82 203 -253 336 52 z "},"-":{"ha":436,"x_min":0,"x_max":0,"o":"m 74 237 b 332 267 117 237 291 261 b 410 314 384 272 410 288 b 357 382 410 365 390 382 b 138 359 314 382 189 365 b 31 300 60 352 31 336 b 74 237 31 259 49 237 z "},".":{"ha":436,"x_min":0,"x_max":0,"o":"m 228 12 b 307 75 277 12 307 35 b 216 154 307 117 264 154 b 134 90 167 154 134 128 b 228 12 134 47 175 12 z "},"/":{"ha":334,"x_min":0,"x_max":0,"o":"m 184 754 b 26 -69 149 530 108 309 b 25 -81 24 -74 25 -78 b 56 -111 25 -99 36 -109 l 117 -118 b 158 -89 139 -118 153 -113 b 321 751 224 191 273 470 b 288 790 321 778 314 788 l 224 787 b 184 754 202 786 189 775 z "},":":{"ha":436,"x_min":0,"x_max":0,"o":"m 228 12 b 307 75 277 12 307 35 b 216 154 307 117 264 154 b 134 90 167 154 134 128 b 228 12 134 47 175 12 z m 228 359 b 307 422 277 359 307 382 b 216 501 307 464 264 501 b 134 437 167 501 134 475 b 228 359 134 394 175 359 z "},";":{"ha":436,"x_min":0,"x_max":0,"o":"m 336 82 b 228 143 336 114 260 143 b 196 114 211 143 201 132 b 64 -204 149 -54 64 -186 b 135 -253 64 -225 113 -253 b 336 82 203 -253 336 52 z m 228 359 b 307 422 277 359 307 382 b 216 501 307 464 264 501 b 134 437 167 501 134 475 b 228 359 134 394 175 359 z "},"<":{"ha":454,"x_min":0,"x_max":0,"o":"m 273 614 b 39 269 184 519 39 366 b 221 100 39 189 155 134 b 366 36 268 75 317 53 b 380 33 371 33 376 33 b 454 127 411 33 454 109 b 431 154 454 139 446 148 b 186 301 358 178 186 252 b 192 321 186 309 188 315 b 366 538 230 396 310 480 b 378 562 374 546 378 554 b 363 589 378 571 373 580 l 325 616 b 300 627 317 623 309 627 b 273 614 291 627 282 623 z "},"=":{"ha":631,"x_min":0,"x_max":0,"o":"m 86 349 b 557 372 243 351 399 361 b 593 408 579 374 591 386 l 596 465 b 567 496 595 484 585 494 l 559 496 b 107 473 408 485 259 475 b 66 443 85 473 72 463 l 54 389 b 53 378 52 384 53 380 b 86 349 53 358 64 349 z m 69 134 b 524 155 199 136 366 144 b 559 192 546 157 558 169 l 562 249 b 533 279 560 268 553 277 l 526 279 b 90 258 376 269 241 260 b 50 228 69 258 56 248 l 37 174 b 36 163 35 169 36 165 b 69 134 36 143 47 134 z "},">":{"ha":454,"x_min":0,"x_max":0,"o":"m 180 46 b 415 390 271 140 415 295 b 233 559 415 470 298 527 b 89 624 185 585 138 607 b 74 627 83 627 79 627 b 0 532 43 627 0 550 b 24 505 0 520 8 511 b 268 358 95 481 268 410 b 262 339 268 353 267 347 b 89 122 225 264 145 178 b 77 97 81 114 77 106 b 92 71 77 88 81 79 l 129 43 b 154 33 137 37 145 33 b 180 46 163 33 172 37 z "},"?":{"ha":699,"x_min":0,"x_max":0,"o":"m 350 12 b 429 75 399 12 429 35 b 339 154 429 117 386 154 b 256 90 288 154 256 128 b 350 12 256 47 297 12 z m 115 503 b 375 725 176 654 259 725 b 533 587 462 725 533 665 b 339 401 533 515 485 457 b 301 359 314 391 301 376 b 319 325 301 348 307 336 l 328 317 b 378 294 342 302 359 294 b 403 298 387 294 395 296 b 671 599 571 355 671 467 b 395 850 671 745 555 850 b -21 557 209 850 71 752 b -28 529 -26 547 -28 537 b 8 484 -28 509 -16 494 l 43 469 b 69 464 52 466 60 464 b 115 503 91 464 106 477 z "},"@":{"ha":1372,"x_min":0,"x_max":0,"o":"m 1310 444 b 781 827 1310 695 1059 827 b 77 325 363 827 77 585 b 766 -210 77 -36 454 -210 b 1043 -143 861 -210 951 -191 b 1063 -114 1056 -137 1063 -127 b 1057 -93 1063 -109 1062 -100 l 1035 -56 b 1006 -36 1026 -43 1016 -36 b 986 -41 1000 -36 994 -39 b 771 -87 919 -74 846 -87 b 212 342 513 -87 212 83 b 747 700 212 605 539 700 b 1171 429 890 700 1171 660 b 1014 239 1171 313 1124 239 b 882 387 957 239 882 283 l 882 395 b 946 467 916 398 946 429 b 787 600 946 545 869 600 b 422 244 636 600 422 392 b 547 119 422 166 469 119 b 781 253 624 119 707 163 l 785 253 b 983 115 812 164 903 115 b 1310 444 1185 115 1310 271 z m 764 415 b 575 248 699 304 631 248 b 547 267 557 248 547 254 b 768 473 547 340 693 473 b 804 458 787 473 796 469 b 764 415 787 454 778 441 z "},"A":{"ha":819,"x_min":0,"x_max":0,"o":"m 43 135 l 52 135 b 68 114 62 135 68 128 b 65 96 68 109 67 103 l 50 40 b 47 21 48 33 47 26 b 94 -25 47 -5 64 -22 l 115 -28 l 126 -28 b 180 17 154 -28 172 -13 l 211 129 b 248 160 216 148 228 158 b 574 183 356 171 463 178 b 615 161 591 183 605 176 b 747 -18 661 102 704 43 b 790 -45 760 -35 774 -45 b 825 -32 802 -45 812 -40 l 851 -14 b 879 29 869 -1 879 13 b 867 64 879 40 875 52 l 794 163 b 785 192 788 173 785 182 b 787 210 785 197 785 202 l 800 248 b 803 268 803 255 803 262 b 753 310 803 294 785 310 l 714 310 b 672 330 696 310 684 317 b 387 673 515 544 458 625 b 347 686 374 682 361 686 b 244 637 304 686 260 660 b 170 450 205 584 188 509 b 122 294 153 399 138 346 b 85 262 117 275 106 265 l 69 261 b 21 204 39 256 22 237 b 20 179 19 187 20 184 b 43 135 20 151 27 135 z m 366 493 b 482 345 406 444 444 395 b 490 323 488 336 490 330 b 461 301 490 311 479 303 b 298 288 407 298 353 295 l 292 288 b 265 313 274 288 265 296 b 267 325 265 317 264 320 b 318 484 283 379 300 430 b 342 507 323 499 330 507 b 366 493 350 507 357 501 z "},"B":{"ha":710,"x_min":0,"x_max":0,"o":"m 142 -60 b 195 -114 146 -98 168 -114 b 271 -65 224 -114 255 -96 b 289 -52 275 -56 281 -52 b 297 -53 292 -52 295 -52 b 472 -81 353 -69 413 -81 b 736 126 623 -81 736 -14 b 533 314 736 227 639 305 b 519 322 524 315 519 318 b 526 336 519 327 521 330 b 590 488 572 385 590 442 b 359 664 590 578 521 664 b -16 496 227 664 -16 585 b 39 450 -16 469 4 450 b 58 452 46 450 53 452 b 72 433 66 452 69 444 b 142 -60 104 268 127 106 z m 273 199 b 424 227 325 214 375 227 b 597 117 496 227 597 198 b 496 39 597 61 548 39 b 289 75 427 39 345 59 b 271 97 278 78 272 85 l 264 135 b 258 178 261 155 258 175 b 273 199 258 188 263 195 z m 221 522 b 329 538 256 532 293 538 b 453 457 399 538 453 517 b 279 323 453 380 354 347 b 252 317 265 319 257 317 b 235 339 243 317 237 322 b 205 507 224 395 205 488 b 221 522 205 517 211 519 z "},"C":{"ha":753,"x_min":0,"x_max":0,"o":"m 342 591 b 436 539 389 591 389 539 b 521 621 481 539 521 578 b 374 715 521 675 458 715 b 25 332 182 715 25 541 b 446 1 25 140 201 1 b 831 257 666 1 831 110 b 737 389 831 330 790 389 b 653 321 693 389 653 357 b 693 231 653 283 693 277 b 464 125 693 173 589 125 b 164 358 293 125 164 225 b 342 591 164 489 241 591 z "},"D":{"ha":905,"x_min":0,"x_max":0,"o":"m -9 518 b 62 528 26 524 47 528 b 143 132 93 528 143 286 b 118 75 143 114 118 99 b 160 24 118 49 132 31 b 471 -31 281 -14 378 -31 b 908 235 703 -31 908 94 b 196 659 908 444 549 659 b -24 637 109 659 39 652 b -77 568 -59 628 -77 605 b -35 515 -77 531 -65 517 b -9 518 -29 515 -21 516 z m 252 529 b 761 243 541 498 761 376 b 493 90 761 163 634 90 b 283 142 386 90 286 115 b 240 478 269 309 256 403 b 232 515 235 502 232 511 b 252 529 232 524 239 529 z "},"E":{"ha":865,"x_min":0,"x_max":0,"o":"m 109 167 b 126 151 115 167 121 161 b 536 -43 189 10 326 -43 b 908 131 715 -43 908 12 b 819 221 908 176 871 221 b 734 147 778 221 734 183 b 745 114 734 134 745 124 b 539 81 745 81 579 81 b 277 179 447 81 282 120 b 302 193 277 184 278 187 b 663 278 384 212 630 267 b 717 339 703 289 717 313 b 715 351 717 344 715 347 b 673 400 711 379 699 400 b 248 310 623 400 312 310 b 227 379 229 310 227 349 l 227 407 b 245 429 227 420 233 427 b 796 530 431 454 618 478 b 847 587 832 542 847 564 b 806 653 847 615 844 653 b 782 650 799 653 791 652 b 237 551 606 606 281 551 b 172 570 220 551 210 570 b 64 475 79 570 64 510 b 87 407 64 437 85 425 b 92 302 90 363 92 332 b 75 282 92 292 85 287 b 28 221 43 268 28 245 b 75 163 28 186 50 163 b 109 167 83 163 103 167 z "},"F":{"ha":711,"x_min":0,"x_max":0,"o":"m 163 496 b 192 478 179 496 184 489 b 236 343 215 444 236 372 b 225 332 236 336 233 332 b 93 371 168 332 126 371 b 29 301 66 371 29 336 b 265 205 29 220 183 205 b 289 187 277 205 285 199 b 342 -28 309 117 328 46 b 390 -61 347 -53 369 -61 b 479 3 447 -61 479 -39 b 433 199 479 45 450 139 b 432 205 433 201 432 203 b 450 224 432 216 439 222 l 467 225 b 704 311 595 238 704 231 b 650 366 704 330 693 366 b 416 343 572 366 491 343 b 386 363 401 343 393 347 b 332 510 370 400 332 488 b 656 543 332 542 526 543 l 710 543 b 771 614 756 543 771 584 b 718 667 771 639 770 667 b 207 627 549 667 420 667 b -12 521 72 602 -12 590 b 29 467 -12 497 -12 467 b 163 496 67 467 129 496 z "},"G":{"ha":876,"x_min":0,"x_max":0,"o":"m 338 701 b 54 265 151 599 54 438 b 534 -32 54 92 250 -32 b 913 225 748 -32 913 89 b 596 432 913 347 783 432 b 232 334 479 432 343 395 b 208 326 223 329 216 326 b 187 349 195 326 187 335 b 278 498 187 381 231 455 b 431 603 311 531 336 549 b 468 654 454 616 468 635 b 395 717 468 684 440 717 b 338 701 378 717 357 713 z m 777 201 b 529 93 777 140 668 93 b 241 187 399 93 241 144 b 258 214 241 197 247 206 b 576 304 353 273 463 304 b 777 201 696 304 777 263 z "},"H":{"ha":793,"x_min":0,"x_max":0,"o":"m 478 514 b 447 475 478 489 473 477 l 293 469 b 260 503 271 469 262 481 l 257 574 b 183 633 255 612 237 633 b 117 564 154 633 117 625 b 121 494 117 557 121 517 b 52 412 121 441 52 467 b 127 302 52 313 127 355 l 129 192 b 125 29 129 136 125 80 b 192 -17 125 -4 149 -17 b 264 29 227 -17 260 -7 b 268 182 267 78 268 132 l 267 309 b 300 342 267 328 279 340 b 484 350 359 345 422 350 b 518 321 502 350 513 340 b 575 36 532 237 551 130 b 624 -12 581 11 592 -12 b 715 46 682 -12 715 17 b 708 92 715 65 713 72 b 663 335 700 126 663 328 b 694 363 663 351 673 361 b 741 368 714 365 725 366 l 765 374 b 798 419 790 379 798 395 b 746 489 798 475 771 489 b 686 484 726 489 705 484 b 618 532 654 484 629 488 b 581 730 607 586 600 660 b 524 775 572 764 547 775 b 433 725 486 775 433 766 b 478 514 433 676 478 543 z "},"I":{"ha":334,"x_min":0,"x_max":0,"o":"m 69 633 b 115 28 69 581 115 340 b 160 -11 115 3 132 -11 b 254 57 222 -11 254 12 b 214 650 254 224 244 410 b 149 692 209 679 191 692 b 69 633 104 692 69 665 z "},"J":{"ha":736,"x_min":0,"x_max":0,"o":"m 110 549 b 416 518 205 533 308 524 b 457 479 437 517 450 504 b 509 122 492 341 509 226 b 416 -5 509 40 475 -5 b 170 271 284 -5 170 123 b 66 334 170 306 123 334 b 14 275 36 334 14 309 b 392 -127 14 58 189 -127 b 646 157 546 -127 646 -16 b 604 488 646 326 604 455 b 635 518 604 506 614 516 b 786 578 757 526 786 538 b 574 700 786 629 663 700 b 454 664 528 700 486 686 b 400 648 436 653 421 648 b 78 676 290 648 114 676 b 43 633 57 676 43 660 b 110 549 43 592 74 552 z "},"K":{"ha":765,"x_min":0,"x_max":0,"o":"m 667 642 b 589 717 667 684 632 717 b 252 389 480 717 346 585 b 233 370 244 376 241 370 b 151 553 208 370 184 509 b 74 599 129 583 111 599 b 5 555 37 599 5 579 b 16 514 5 542 8 530 b 151 53 73 373 124 204 b 197 16 155 28 171 16 b 283 86 249 16 279 38 b 351 233 291 170 318 233 b 814 97 414 233 679 97 b 890 168 852 97 890 132 b 843 216 890 192 875 208 b 432 375 590 276 432 321 b 667 642 432 472 667 536 z "},"L":{"ha":509,"x_min":0,"x_max":0,"o":"m 232 -46 b 496 -22 289 -36 385 -33 b 555 53 543 -19 555 18 b 503 100 555 75 549 100 b 283 81 433 100 355 81 b 253 113 265 81 253 92 b 214 608 248 254 239 414 b 149 650 209 637 191 650 b 69 591 104 650 69 624 b 115 71 69 543 102 304 b 106 -12 115 40 106 7 b 158 -58 106 -36 125 -58 b 232 -46 189 -58 205 -51 z "},"M":{"ha":964,"x_min":0,"x_max":0,"o":"m 714 370 b 843 43 751 370 830 66 b 889 22 851 27 864 22 b 970 85 928 22 970 54 b 962 119 970 96 968 100 b 742 608 900 321 827 608 b 628 494 694 608 671 581 b 489 307 547 328 524 307 b 359 481 454 307 399 382 b 222 652 310 601 269 652 b 46 149 117 652 46 450 b 110 -22 46 29 64 -22 b 193 36 155 -22 193 4 b 186 174 193 84 186 128 b 227 429 186 326 203 429 b 256 403 235 429 245 421 b 476 138 374 183 411 138 b 700 357 543 138 631 222 b 714 370 704 366 709 370 z "},"N":{"ha":907,"x_min":0,"x_max":0,"o":"m 211 339 b 231 368 211 357 218 368 b 254 355 238 368 245 364 b 708 45 380 235 568 45 b 842 269 825 45 842 123 b 724 703 842 387 814 703 b 633 637 696 703 633 679 b 643 604 633 625 638 615 b 708 277 684 503 708 348 b 677 207 708 228 703 207 b 511 317 625 207 555 279 b 147 623 365 441 226 623 b 68 522 79 623 68 576 b 90 71 68 429 77 199 b 144 22 93 37 119 22 b 229 97 196 22 229 53 b 211 339 229 177 211 262 z "},"O":{"ha":836,"x_min":0,"x_max":0,"o":"m 376 -85 b 807 310 618 -85 807 87 b 428 632 807 509 661 632 b 49 479 239 632 49 555 b 71 422 49 454 71 440 b 65 404 71 419 68 413 b 39 256 49 361 39 310 b 376 -85 39 56 179 -85 z m 671 283 b 406 39 671 140 561 39 b 175 283 270 39 175 139 b 400 509 175 433 251 509 b 671 283 571 509 671 425 z "},"P":{"ha":766,"x_min":0,"x_max":0,"o":"m 227 -78 b 296 -122 227 -107 252 -122 b 366 -52 342 -122 366 -102 b 351 147 366 4 351 102 b 375 176 351 164 359 174 b 779 486 602 222 779 342 b 431 707 779 613 631 707 b -36 454 151 707 -36 606 b 26 371 -36 400 -8 371 b 146 525 174 371 65 525 b 192 424 175 525 184 494 b 227 -78 205 278 227 12 z m 639 467 b 355 293 639 393 447 293 b 338 328 345 293 340 300 b 315 549 327 404 315 530 b 397 583 315 575 334 583 b 639 467 526 583 639 528 z "},"Q":{"ha":933,"x_min":0,"x_max":0,"o":"m 456 267 l 490 161 b 493 147 492 155 493 152 b 469 123 493 134 484 123 b 458 125 465 123 463 123 b 236 364 317 157 236 260 b 446 583 236 502 277 583 b 742 289 587 583 742 473 b 663 153 742 232 700 153 b 545 361 612 153 608 361 b 486 339 534 361 525 357 b 452 290 463 328 452 311 b 456 267 452 283 453 275 z m 96 359 b 503 -8 96 161 262 -8 l 522 -8 b 550 -37 535 -8 545 -16 b 585 -218 564 -97 576 -156 b 632 -267 589 -250 604 -267 b 676 -260 637 -267 657 -264 b 724 -207 708 -252 724 -235 b 689 -5 724 -159 698 -54 b 688 -1 688 -4 688 -3 b 688 8 688 2 688 5 b 710 39 688 22 695 33 b 879 322 812 90 879 184 b 449 708 879 571 639 708 b 47 532 292 708 131 659 b 35 496 39 520 35 508 b 62 465 35 479 46 467 b 97 400 92 462 97 429 b 96 359 97 385 96 370 z "},"R":{"ha":728,"x_min":0,"x_max":0,"o":"m 249 514 b 465 567 314 541 396 567 b 554 511 536 567 554 544 b 253 268 554 433 340 314 b 231 261 243 263 236 261 b 211 285 221 261 214 269 b 161 485 197 349 180 414 b 114 526 154 513 138 526 b 61 511 108 526 99 524 b 22 463 35 503 22 486 b 25 441 22 457 22 450 b 125 -41 68 282 103 123 b 168 -87 129 -72 143 -87 b 192 -83 176 -87 183 -86 l 222 -74 b 264 -21 250 -64 264 -46 b 245 100 264 5 251 72 b 244 111 245 104 244 109 b 256 123 244 121 248 123 b 277 119 259 123 267 122 b 672 -17 393 83 555 28 b 697 -21 682 -20 690 -21 b 746 8 717 -21 733 -12 b 771 61 759 24 771 43 b 734 103 771 80 759 94 b 432 201 631 140 529 167 b 411 224 418 207 411 214 b 431 248 411 232 418 240 b 694 529 522 296 694 400 b 503 688 694 652 596 688 b 208 624 402 688 303 662 b 172 576 184 614 172 597 b 178 547 172 569 173 561 b 222 509 186 522 201 509 b 249 514 231 509 240 511 z "},"S":{"ha":644,"x_min":0,"x_max":0,"o":"m 192 278 b 142 332 192 306 168 323 b 106 339 119 339 113 339 b 50 244 60 339 50 290 b 403 -39 50 83 236 -39 b 644 160 511 -39 644 29 b 207 587 644 376 207 519 b 304 629 207 623 259 629 b 425 616 346 629 388 616 b 479 656 452 616 467 629 b 493 701 492 684 493 693 b 339 753 493 751 399 753 b 40 581 219 753 40 689 b 505 138 40 428 505 289 b 425 86 505 98 461 86 b 192 278 308 86 192 170 z "},"T":{"ha":534,"x_min":0,"x_max":0,"o":"m 175 564 b 203 530 193 564 203 553 b 205 443 203 498 203 468 b 257 -22 211 286 232 133 b 300 -66 262 -52 276 -66 b 323 -62 307 -66 315 -65 l 354 -53 b 396 0 382 -43 396 -25 b 395 14 396 5 397 9 b 349 400 375 144 357 270 b 342 514 346 438 342 476 b 345 566 342 530 342 549 b 374 602 347 584 355 596 b 533 632 417 614 481 625 b 582 701 573 635 582 667 b 538 754 582 734 567 754 b 368 725 492 754 418 739 b 304 710 345 718 328 715 b -12 656 198 690 94 672 b -65 579 -54 648 -65 614 b -20 532 -65 547 -50 532 b 175 564 -1 532 153 564 z "},"U":{"ha":802,"x_min":0,"x_max":0,"o":"m 64 558 b 40 326 51 488 40 406 b 401 -72 40 98 170 -72 b 757 271 615 -72 757 66 b 627 665 757 418 695 544 b 585 696 615 686 602 696 b 550 684 574 696 562 692 l 522 665 b 494 621 504 653 494 638 b 504 587 494 610 498 600 b 615 257 563 480 615 373 b 439 53 615 141 555 53 b 182 359 233 53 182 191 b 199 547 182 425 189 488 b 200 559 199 552 200 555 b 150 606 200 589 182 606 b 64 558 91 606 69 590 z "},"V":{"ha":772,"x_min":0,"x_max":0,"o":"m 132 260 b 437 -21 195 170 333 -21 b 668 342 583 -21 646 244 b 714 623 690 434 714 556 b 616 700 714 665 654 700 b 578 656 595 700 581 685 b 443 138 562 494 521 138 b 106 596 364 138 146 519 b 64 627 94 616 80 627 b -26 543 37 627 -26 576 b 132 260 -26 479 45 382 z "},"W":{"ha":1181,"x_min":0,"x_max":0,"o":"m 22 602 l 22 591 b 326 -60 50 340 97 -60 b 575 134 421 -60 511 21 b 596 151 581 145 589 151 b 618 134 604 151 612 145 b 850 -18 684 28 769 -18 b 1132 414 1014 -18 1132 175 b 1116 582 1132 470 1126 526 b 1072 627 1111 612 1096 627 b 1048 623 1065 627 1057 625 l 1018 612 b 977 559 990 603 977 585 b 978 546 977 555 976 551 b 990 378 985 497 990 437 b 860 113 990 267 942 113 b 682 297 769 113 715 212 b 676 322 679 307 676 315 b 681 343 676 330 677 337 b 704 494 694 394 704 446 b 669 621 704 540 694 586 b 621 646 656 639 640 646 b 515 600 584 646 532 633 b 494 493 500 570 494 531 b 521 318 494 428 504 374 b 524 296 523 310 524 303 b 519 272 524 288 522 281 b 350 78 495 212 417 78 b 163 614 223 78 177 490 b 114 661 158 646 142 661 b 98 660 109 661 104 662 l 69 654 b 22 602 38 648 22 631 z "},"X":{"ha":736,"x_min":0,"x_max":0,"o":"m 264 14 l 342 192 b 368 212 349 205 357 212 b 390 203 376 212 382 208 l 659 -7 b 696 -22 671 -17 684 -22 b 736 -4 709 -22 723 -16 l 760 17 b 781 56 774 29 781 42 b 757 96 781 70 772 83 b 446 339 653 175 551 258 b 429 368 435 347 429 357 b 435 386 429 374 432 378 b 581 647 480 475 527 562 b 591 682 588 660 591 671 b 564 725 591 699 582 713 l 553 732 b 519 743 540 739 529 743 b 476 715 503 743 488 734 b 338 469 427 636 381 553 b 311 450 330 456 321 450 b 289 460 304 450 297 454 b 92 607 224 511 159 558 b 57 621 79 615 68 621 b 14 597 41 621 26 613 l -5 575 b -21 538 -17 562 -21 551 b 4 497 -21 522 -13 509 b 231 326 81 441 155 383 b 248 297 242 317 248 308 b 241 278 248 292 244 286 b 144 66 205 204 172 132 b 139 39 141 58 139 49 b 172 -7 139 19 150 4 l 191 -16 b 218 -22 201 -20 210 -22 b 264 14 239 -22 254 -10 z "},"Y":{"ha":644,"x_min":0,"x_max":0,"o":"m -83 581 b 334 204 68 467 206 345 b 347 174 342 194 347 184 b 345 158 347 168 347 164 b 261 -161 318 52 290 -54 b 258 -182 258 -169 258 -176 b 298 -229 258 -205 271 -222 l 321 -236 b 343 -240 329 -239 336 -240 b 390 -199 367 -240 382 -227 b 587 572 463 65 526 347 b 591 595 590 581 591 588 b 558 644 591 616 581 632 l 534 657 b 504 667 524 665 513 667 b 463 627 483 667 469 653 l 403 389 b 380 364 400 372 393 364 b 358 376 374 364 367 368 b 5 690 249 496 132 595 b -31 704 -7 701 -20 704 b -72 682 -46 704 -60 696 l -92 660 b -107 623 -103 647 -107 635 b -83 581 -107 606 -99 592 z "},"Z":{"ha":899,"x_min":0,"x_max":0,"o":"m 93 330 l 245 334 b 277 315 265 334 277 326 b 265 292 277 309 273 300 b 151 98 216 237 151 155 b 153 87 151 94 153 92 b 306 -8 165 14 241 1 b 529 -22 366 -17 445 -22 b 823 4 637 -22 745 -12 b 920 92 867 13 920 52 b 786 171 920 143 827 171 b 742 140 757 171 742 159 b 689 106 742 120 724 109 b 611 103 663 104 636 103 b 363 113 524 103 441 102 b 321 150 336 115 321 131 b 335 184 321 161 326 172 b 432 301 367 229 395 261 b 469 318 443 313 455 318 b 778 293 519 318 677 307 b 789 292 783 293 786 292 b 846 332 814 292 833 305 b 852 349 848 338 850 343 b 860 376 857 359 860 368 b 815 416 860 399 843 414 b 621 437 750 425 686 432 b 581 453 596 439 581 444 b 582 457 581 455 581 456 b 684 587 615 494 667 541 b 689 614 687 596 689 605 b 681 642 689 625 686 633 b 642 677 673 654 664 665 b 371 715 579 711 507 715 b 161 711 300 715 231 713 b 100 663 127 711 107 695 l 96 648 b 93 629 94 641 93 635 b 144 586 93 600 110 586 b 461 589 201 586 307 589 b 497 557 485 587 497 574 b 478 517 497 544 492 530 l 439 475 b 396 457 427 463 413 457 b 307 458 367 459 338 458 b 109 456 241 458 176 458 b 49 407 75 454 56 438 l 45 392 b 41 374 43 385 41 379 b 93 330 41 346 61 330 z "},"[":{"ha":467,"x_min":0,"x_max":0,"o":"m 463 -57 b 323 -71 416 -57 370 -71 b 273 -33 298 -71 282 -58 b 254 396 257 119 254 311 b 256 708 254 568 256 637 b 304 757 256 741 272 757 l 446 760 b 509 848 483 762 509 799 b 463 885 509 873 493 885 b 257 882 386 885 321 882 b 111 587 123 878 111 812 b 117 301 111 490 114 397 b 161 -144 119 149 132 1 b 249 -203 172 -187 208 -203 b 457 -180 314 -203 380 -193 b 509 -94 481 -175 509 -146 b 463 -57 509 -69 493 -57 z "},"\\":{"ha":408,"x_min":0,"x_max":0,"o":"m 186 754 b 147 787 182 775 169 786 l 83 790 b 50 751 57 788 50 778 b 212 -89 97 470 147 191 b 254 -118 218 -113 232 -118 l 315 -111 b 346 -81 335 -109 346 -99 b 345 -69 346 -78 347 -74 b 186 754 263 309 222 530 z "},"]":{"ha":467,"x_min":0,"x_max":0,"o":"m 4 739 b 143 753 50 739 97 753 b 193 715 168 753 184 741 b 212 286 210 562 212 372 b 211 -26 212 114 211 45 b 163 -75 211 -59 195 -75 l 21 -78 b -41 -167 -16 -80 -41 -116 b 4 -203 -41 -191 -26 -203 b 210 -200 81 -203 145 -200 b 355 94 343 -198 355 -128 b 350 380 355 193 353 286 b 306 827 347 532 335 681 b 218 885 294 869 258 885 b 9 863 153 885 86 876 b -41 777 -14 857 -41 827 b 4 739 -41 751 -26 739 z "},"^":{"ha":621,"x_min":0,"x_max":0,"o":"m 608 345 b 264 579 513 434 359 579 b 28 237 165 579 28 282 b 122 164 28 207 104 164 b 149 187 134 164 143 172 b 296 432 173 260 245 432 b 315 427 301 432 308 431 b 532 253 391 388 474 309 b 557 240 541 244 549 240 b 583 256 566 240 575 245 l 611 293 b 621 318 617 300 621 309 b 608 345 621 328 616 336 z "},"_":{"ha":713,"x_min":0,"x_max":0,"o":"m 0 -452 l 713 -452 b 750 -421 734 -452 746 -441 l 764 -366 b 765 -354 766 -361 765 -357 b 733 -326 765 -336 754 -326 l 21 -326 b -17 -357 0 -326 -12 -336 l -31 -412 b -32 -424 -33 -417 -32 -421 b 0 -452 -32 -442 -21 -452 z "},"`":{"ha":589,"x_min":0,"x_max":0,"o":"m 131 844 b 355 614 131 804 255 782 b 393 597 363 601 376 597 b 457 636 423 597 457 614 b 210 908 457 710 314 908 b 131 844 178 908 131 867 z "},"a":{"ha":771,"x_min":0,"x_max":0,"o":"m 482 593 b 21 142 290 593 21 329 b 171 -3 21 53 79 -3 b 464 167 269 -3 374 54 b 478 175 468 172 473 175 b 489 161 483 175 486 170 b 639 -11 511 48 568 -11 b 806 96 720 -11 806 45 b 766 142 806 121 787 142 b 684 123 743 142 721 123 b 591 310 630 123 595 180 l 589 364 b 591 365 589 364 591 364 b 673 437 631 365 673 395 b 482 593 673 529 582 593 z m 460 358 b 207 122 372 201 281 122 b 160 171 178 122 160 140 b 457 471 160 275 355 471 b 522 427 489 471 505 450 b 526 415 525 422 526 418 b 511 406 526 410 522 407 b 460 358 486 401 476 389 z "},"b":{"ha":733,"x_min":0,"x_max":0,"o":"m 83 157 b 139 100 85 119 103 100 b 192 119 163 100 178 103 b 208 129 197 125 202 129 b 221 123 213 129 217 127 b 461 32 294 67 376 32 b 700 297 599 32 700 144 b 458 586 700 460 594 586 b 224 456 368 586 290 543 b 208 446 218 449 213 446 b 197 463 202 446 199 451 b 139 827 179 624 157 774 b 82 865 129 852 110 865 b 4 803 41 865 4 844 b 5 785 4 798 3 792 b 83 157 48 576 66 368 z m 435 460 b 558 265 505 460 558 377 b 458 154 558 193 524 154 b 258 254 400 154 323 198 b 250 272 253 258 250 264 b 253 285 250 275 251 282 b 435 460 289 390 362 460 z "},"c":{"ha":472,"x_min":0,"x_max":0,"o":"m 296 559 b 29 248 142 559 29 428 b 273 -33 29 82 130 -33 b 511 100 380 -33 511 39 b 465 154 511 124 486 154 b 310 89 425 154 395 89 b 171 283 220 89 171 157 b 275 437 171 372 210 437 b 407 361 342 437 366 361 b 479 437 444 361 479 397 b 296 559 479 500 390 559 z "},"d":{"ha":814,"x_min":0,"x_max":0,"o":"m 510 496 b 383 514 464 509 421 514 b 43 197 197 514 43 371 b 289 -41 43 61 145 -41 b 589 174 427 -41 540 42 b 597 184 591 181 594 184 b 604 174 601 184 603 181 b 775 35 635 79 701 35 b 905 119 844 35 905 72 b 873 167 905 146 892 167 b 810 158 848 167 832 158 b 676 425 729 158 676 241 b 689 721 676 545 689 677 b 611 799 689 778 668 799 b 533 725 555 799 533 779 l 533 514 b 518 494 533 501 528 494 b 510 496 515 494 512 495 z m 315 81 b 183 222 237 81 183 136 b 363 390 183 321 254 390 b 507 370 400 390 458 382 b 524 347 518 365 524 357 b 315 81 524 306 469 81 z "},"e":{"ha":717,"x_min":0,"x_max":0,"o":"m 633 149 b 400 65 567 96 478 65 b 241 155 318 65 241 109 b 272 180 241 171 254 180 l 507 204 b 664 338 604 213 664 264 b 424 528 664 444 557 528 b 115 318 295 528 172 443 b 75 292 108 300 94 292 l 65 292 b 21 245 37 292 26 278 l 20 232 b 18 220 19 230 18 226 b 71 172 18 189 37 172 b 98 142 86 172 90 167 b 387 -56 127 21 240 -56 b 710 60 504 -56 623 -12 b 730 98 724 72 730 85 b 711 143 730 111 725 122 b 672 165 697 159 686 165 b 633 149 659 165 646 160 z m 482 323 b 269 297 419 313 300 297 b 250 313 256 297 250 302 b 414 403 250 354 339 403 b 507 353 465 403 507 379 b 482 323 507 337 496 326 z "},"f":{"ha":425,"x_min":0,"x_max":0,"o":"m -1 374 l 117 383 b 139 363 132 383 139 376 b 138 267 137 331 138 300 b 163 -293 138 7 144 -167 b 208 -318 165 -311 186 -318 b 323 -256 256 -318 323 -294 b 275 361 323 -205 275 -39 b 296 399 275 383 277 396 l 476 418 b 513 492 503 421 513 458 b 489 542 513 519 505 542 b 300 517 444 542 371 517 b 282 538 286 517 282 524 b 401 846 295 724 331 793 b 411 863 407 850 411 854 b 304 956 411 906 350 956 b 268 939 293 956 278 946 b 144 522 203 895 161 784 b 123 500 143 509 136 501 b -4 494 74 497 29 494 b -36 436 -26 494 -36 465 b -1 374 -36 406 -22 376 z "},"g":{"ha":790,"x_min":0,"x_max":0,"o":"m 415 529 b 12 196 207 529 12 369 b 233 -1 12 80 104 -1 b 571 171 372 -1 486 56 b 586 180 574 177 580 180 b 597 160 593 180 597 174 b 424 -292 581 -141 522 -292 b 275 -150 318 -292 328 -150 b 176 -231 243 -150 176 -204 b 416 -418 176 -313 311 -418 b 733 492 647 -418 733 -171 b 677 538 733 518 712 538 b 595 497 617 538 612 497 b 415 529 574 497 501 529 z m 254 123 b 147 211 190 123 147 157 b 396 404 147 310 269 404 b 559 364 476 404 559 383 b 557 353 559 361 559 358 b 254 123 484 203 378 123 z "},"h":{"ha":746,"x_min":0,"x_max":0,"o":"m 37 653 b 102 0 37 589 91 314 b 170 -58 104 -41 121 -58 b 250 -5 216 -58 236 -47 b 463 335 326 222 393 335 b 572 22 524 335 572 192 b 632 -28 572 -12 589 -28 b 711 56 694 -28 711 -11 b 492 457 711 300 625 457 b 236 240 389 457 298 376 b 224 228 232 232 228 228 b 214 245 218 228 214 233 b 175 693 199 490 191 583 b 132 726 172 714 154 726 b 37 653 69 726 37 702 z "},"i":{"ha":301,"x_min":0,"x_max":0,"o":"m 158 692 b 237 754 207 692 237 715 b 147 833 237 796 194 833 b 64 770 96 833 64 808 b 158 692 64 724 106 692 z m 65 485 b 93 0 65 444 93 250 b 138 -39 93 -25 110 -39 b 232 29 199 -39 232 -16 b 205 497 232 159 216 382 b 140 539 203 525 181 539 b 65 485 95 539 65 517 z "},"j":{"ha":404,"x_min":0,"x_max":0,"o":"m 110 -232 b -119 -104 -5 -232 -68 -104 b -197 -178 -149 -104 -197 -150 b 114 -366 -197 -258 -20 -366 b 313 -64 264 -366 313 -290 b 249 493 313 150 287 365 b 186 524 241 513 220 524 b 107 471 137 522 107 501 b 170 -113 107 413 170 258 b 110 -232 170 -208 157 -232 z m 199 636 b 279 697 250 636 279 659 b 187 778 279 741 236 778 b 107 714 138 778 107 752 b 199 636 107 671 147 638 z "},"k":{"ha":619,"x_min":0,"x_max":0,"o":"m 97 14 b 151 -39 97 -25 111 -39 b 231 39 214 -39 231 -24 b 236 54 231 52 231 54 b 256 45 241 54 245 50 b 659 -100 351 -23 568 -100 b 729 -9 689 -100 729 -50 b 704 21 729 7 722 16 b 339 187 474 70 339 130 b 562 513 339 280 562 361 b 486 590 562 559 533 590 b 243 349 407 590 319 505 b 229 336 239 340 234 336 b 218 354 224 336 218 341 b 197 685 208 526 205 613 b 131 754 192 737 176 754 b 52 699 79 754 52 734 b 97 14 52 633 97 250 z "},"l":{"ha":306,"x_min":0,"x_max":0,"o":"m 20 772 b 115 71 20 753 115 208 b 167 21 115 37 135 21 b 254 109 232 21 254 43 b 178 768 254 203 213 526 b 107 838 169 822 152 838 b 20 772 45 838 20 819 z "},"m":{"ha":986,"x_min":0,"x_max":0,"o":"m 117 -29 b 170 -69 119 -57 124 -69 b 256 -3 218 -69 256 -57 l 254 49 b 343 380 254 249 298 380 b 467 18 395 380 456 198 b 529 -29 469 -16 483 -29 b 604 24 569 -29 599 -11 b 717 329 644 271 693 329 b 818 -66 763 329 794 185 b 873 -106 821 -90 840 -106 b 957 -40 925 -106 957 -89 b 745 469 922 311 855 469 b 567 307 686 469 610 425 b 553 292 562 294 557 292 b 541 309 548 292 545 294 b 363 504 507 435 448 504 b 222 399 307 504 258 482 b 205 376 216 384 210 376 b 195 401 201 376 197 385 b 182 456 190 425 186 440 b 150 473 177 469 165 473 b 52 407 111 473 52 442 b 117 -29 52 384 104 212 z "},"n":{"ha":660,"x_min":0,"x_max":0,"o":"m 68 547 b 109 46 68 513 92 422 b 160 8 111 22 127 8 b 248 68 209 8 243 32 b 363 449 280 334 317 449 b 509 20 410 449 456 294 b 566 -9 513 -3 528 -9 b 646 50 604 -9 646 9 b 643 75 646 58 645 65 b 383 599 569 465 499 599 b 240 456 321 599 273 551 b 228 435 236 441 232 435 b 216 463 222 435 220 444 b 168 603 205 580 195 603 b 68 547 119 603 68 574 z "},"o":{"ha":721,"x_min":0,"x_max":0,"o":"m 65 225 b 364 -62 65 60 192 -62 b 689 245 541 -62 689 79 b 375 553 689 416 549 553 b 40 425 273 553 147 505 b 7 366 18 408 7 387 b 71 282 7 307 71 312 b 65 225 71 260 65 241 z m 379 60 b 203 265 278 60 203 148 b 358 424 203 373 258 424 b 553 231 469 424 553 339 b 379 60 553 123 454 60 z "},"p":{"ha":684,"x_min":0,"x_max":0,"o":"m -9 473 b 151 -422 -9 429 94 71 b 204 -454 154 -444 172 -454 b 292 -400 251 -454 290 -431 l 257 -89 b 288 -54 257 -66 267 -54 l 322 -56 b 664 283 521 -56 664 87 b 354 608 664 468 530 608 b 160 454 269 608 193 557 b 149 435 155 441 152 435 b 138 458 145 435 141 443 b 82 528 123 515 110 528 b -9 473 23 528 -9 509 z m 211 294 b 353 485 211 408 268 485 b 526 249 450 485 526 381 b 335 68 526 140 451 68 b 258 79 315 68 282 74 b 225 114 239 82 228 94 b 211 294 215 181 211 235 z "},"q":{"ha":831,"x_min":0,"x_max":0,"o":"m 636 -114 b 665 -378 646 -204 657 -290 b 703 -408 667 -396 682 -408 b 802 -338 748 -408 802 -378 l 766 -52 b 793 -17 766 -34 775 -22 b 972 31 852 1 910 17 b 1002 92 991 35 1002 64 b 958 150 1002 127 987 150 b 785 107 944 150 856 127 b 772 104 780 105 775 104 b 745 134 757 104 747 114 b 711 437 730 248 711 395 b 728 494 711 460 728 474 b 644 547 728 522 679 547 b 606 525 631 547 618 541 b 468 542 576 533 533 542 b 37 216 283 542 37 400 b 268 26 37 106 134 26 b 558 183 380 26 474 75 b 582 200 567 195 574 200 b 602 174 592 200 599 191 l 611 74 b 586 36 611 56 603 43 b 397 -47 522 9 459 -17 b 374 -90 380 -56 374 -72 b 422 -161 374 -123 396 -161 b 593 -90 432 -161 537 -115 b 611 -86 600 -87 606 -86 b 636 -114 625 -86 633 -96 z m 297 153 b 175 244 218 153 175 184 b 473 418 175 331 325 418 b 525 414 493 418 510 416 b 551 387 543 411 551 402 b 546 368 551 382 549 376 b 297 153 468 198 387 153 z "},"r":{"ha":492,"x_min":0,"x_max":0,"o":"m 424 507 b 533 463 472 507 501 463 b 591 559 562 463 591 527 b 440 632 591 606 511 632 b 211 386 318 632 233 557 b 201 363 210 370 206 363 b 191 387 197 363 195 369 b 109 536 168 491 143 536 b 14 469 68 536 14 497 b 26 433 14 458 19 447 b 170 -56 110 278 153 104 b 227 -93 172 -87 208 -93 b 310 -31 280 -93 310 -69 b 301 174 310 29 301 101 b 424 507 301 339 323 507 z "},"s":{"ha":511,"x_min":0,"x_max":0,"o":"m 225 589 b 29 422 115 589 29 520 b 406 17 29 245 406 158 b 351 -28 406 -13 387 -28 b 250 62 297 -28 250 16 b 267 136 250 90 267 115 b 204 174 267 157 242 174 b 115 60 142 174 115 139 b 355 -151 115 -62 216 -151 b 543 18 467 -151 543 -83 b 164 431 543 254 164 339 b 214 471 164 456 184 471 b 408 383 302 471 365 383 b 498 460 441 383 498 431 b 225 589 498 518 346 589 z "},"t":{"ha":567,"x_min":0,"x_max":0,"o":"m 119 783 b 172 500 119 774 143 667 b 174 485 174 494 174 490 b 144 450 174 464 163 455 b -39 403 65 436 -1 418 b -75 334 -71 389 -75 354 b -45 285 -75 306 -66 285 b 14 296 -29 285 -11 288 b 163 335 57 310 106 322 b 172 336 165 335 170 336 b 203 307 189 336 199 327 b 236 -16 218 199 231 91 b 288 -65 238 -49 253 -65 b 382 22 359 -65 382 -43 b 343 328 382 46 365 171 b 342 338 343 330 342 335 b 372 368 342 355 352 366 b 611 382 452 376 532 382 b 663 441 643 382 663 414 b 616 505 663 471 656 505 b 349 484 542 505 378 484 b 317 514 330 484 319 494 b 278 779 302 604 289 695 b 207 848 269 833 252 848 b 119 783 144 848 119 831 z "},"u":{"ha":652,"x_min":0,"x_max":0,"o":"m 199 240 b 231 488 199 342 231 454 b 121 547 231 520 183 547 b 60 504 86 547 62 530 b 37 228 45 380 37 297 b 290 -81 37 47 144 -81 b 627 436 497 -81 627 117 b 519 526 627 495 587 526 b 443 485 466 526 443 514 b 460 314 443 447 460 406 b 307 50 460 161 397 50 b 199 240 237 50 199 119 z "},"v":{"ha":612,"x_min":0,"x_max":0,"o":"m 419 524 l 390 176 b 363 140 387 150 379 140 b 200 464 293 140 200 325 b 203 524 200 484 203 504 b 100 602 203 583 178 602 b 22 481 43 602 22 562 b 396 -3 22 268 229 -3 b 517 117 469 -3 504 32 l 545 311 b 572 529 557 410 572 513 b 476 590 572 572 542 590 b 419 524 434 590 425 574 z "},"w":{"ha":1076,"x_min":0,"x_max":0,"o":"m 488 290 b 494 195 488 260 490 229 b 496 176 496 187 496 182 b 489 149 496 166 494 159 b 353 54 460 85 414 54 b 165 504 243 54 165 241 b 174 596 165 529 174 568 b 118 646 174 632 157 646 b 25 473 45 646 25 610 b 328 -71 25 140 141 -71 b 542 41 412 -71 480 -39 b 566 57 550 53 557 57 b 587 41 573 57 580 53 b 757 -43 633 -21 686 -43 b 1064 279 924 -43 1064 104 b 957 528 1064 401 1010 528 b 863 464 917 528 863 491 b 928 265 863 406 928 382 b 772 82 928 163 860 82 b 647 168 711 82 669 111 b 642 193 644 176 642 184 b 644 212 642 199 642 205 b 664 380 657 264 664 318 b 587 513 664 469 638 513 b 488 290 523 513 488 433 z "},"x":{"ha":730,"x_min":0,"x_max":0,"o":"m 75 572 b 197 383 99 532 141 460 b 218 335 212 363 218 348 b 211 315 218 328 216 321 b 97 182 167 262 129 214 b 1 82 39 123 1 107 b 72 18 1 62 25 18 b 293 208 136 18 208 103 b 318 222 300 218 309 222 b 343 210 327 222 335 218 b 610 58 427 123 523 58 b 713 153 667 58 713 93 b 677 196 713 179 704 196 b 612 187 659 196 633 187 b 427 319 560 187 494 241 b 416 343 419 328 416 336 b 428 368 416 351 419 359 b 612 530 484 431 545 489 b 688 597 661 559 688 576 b 611 673 688 624 646 673 b 538 646 600 673 576 668 b 351 481 475 610 413 549 b 326 467 344 471 335 467 b 302 482 318 467 310 472 b 197 646 264 538 229 594 b 158 681 178 677 168 681 b 61 612 123 681 61 643 b 75 572 61 604 64 591 z "},"y":{"ha":684,"x_min":0,"x_max":0,"o":"m 339 -18 b 439 8 375 -18 407 -11 b 465 18 450 16 460 18 b 478 -4 475 18 478 12 b 488 -415 478 -52 479 -313 b 528 -458 490 -441 504 -458 b 628 -395 582 -458 628 -429 b 611 -155 628 -368 611 -240 b 627 164 611 -84 613 -62 b 659 336 630 224 659 257 b 574 460 659 428 636 460 b 501 393 520 460 505 448 b 485 205 496 331 490 270 b 472 164 483 189 481 178 b 372 109 447 129 411 109 b 144 515 263 109 177 266 b 85 559 140 545 121 559 b 4 473 28 559 4 535 b 339 -18 4 235 176 -18 z "},"z":{"ha":612,"x_min":0,"x_max":0,"o":"m 340 168 b 514 -3 440 168 514 94 b 321 -204 514 -122 437 -204 b 146 -54 225 -204 146 -136 b 160 14 146 -25 160 -4 b 71 58 160 36 115 58 b 9 -79 41 58 9 -14 b 310 -328 9 -218 142 -328 b 648 12 500 -328 648 -178 b 376 273 648 165 551 264 b 351 288 359 275 351 280 b 364 309 351 293 355 300 b 488 522 450 391 488 447 b 315 653 488 607 427 653 b 33 606 232 653 102 631 b 4 541 15 598 4 572 b 52 473 4 505 26 473 b 292 530 90 473 192 530 b 353 485 328 530 353 515 b 158 216 353 404 158 257 b 201 147 158 186 182 147 b 340 168 223 147 279 168 z "},"{":{"ha":498,"x_min":0,"x_max":0,"o":"m 428 -43 b 355 -74 408 -61 385 -74 b 288 5 315 -74 288 -56 b 328 218 288 78 328 144 b 273 328 328 265 316 298 b 257 350 262 335 257 342 b 272 372 257 356 262 363 b 334 490 312 403 334 441 b 283 693 334 543 283 646 b 353 761 283 720 300 761 b 443 732 393 761 421 732 b 490 766 454 732 465 739 b 521 818 514 791 521 805 b 380 885 521 864 433 885 b 144 679 268 885 144 809 b 197 467 144 614 197 526 b 126 393 197 432 177 410 b 79 326 98 383 79 359 b 191 191 79 262 191 283 b 149 -25 191 117 149 51 b 314 -199 149 -115 196 -199 b 509 -121 387 -199 452 -175 b 526 -83 520 -109 526 -96 b 507 -43 526 -70 520 -56 b 468 -24 493 -29 481 -24 b 428 -43 455 -24 442 -30 z "},"|":{"ha":347,"x_min":0,"x_max":0,"o":"m 104 865 l 104 -286 b 147 -338 104 -318 119 -338 b 243 -278 206 -338 243 -314 l 243 873 b 200 925 243 905 228 925 b 104 865 141 925 104 901 z "},"}":{"ha":498,"x_min":0,"x_max":0,"o":"m 71 729 b 143 760 90 747 114 760 b 211 681 183 760 211 742 b 171 468 211 608 171 542 b 225 358 171 421 182 387 b 241 336 236 351 241 344 b 227 314 241 330 237 323 b 165 196 186 283 165 245 b 215 -7 165 143 215 40 b 146 -75 215 -33 198 -75 b 56 -46 108 -75 77 -46 b 8 -81 45 -46 33 -53 b -22 -132 -16 -106 -22 -119 b 118 -199 -22 -178 66 -199 b 354 7 231 -199 354 -122 b 301 220 354 71 301 161 b 372 293 301 254 321 277 b 419 359 400 303 419 326 b 309 496 419 424 309 404 b 350 711 309 570 350 635 b 184 885 350 801 302 885 b -9 807 112 885 47 861 b -28 770 -22 795 -28 783 b -8 729 -28 755 -21 742 b 31 710 5 716 18 710 b 71 729 45 710 57 716 z "},"~":{"ha":659,"x_min":0,"x_max":0,"o":"m 526 411 b 435 378 500 392 471 378 b 187 447 375 378 278 447 b 36 370 122 447 36 414 b 100 286 36 349 78 286 b 197 325 121 286 154 325 b 453 257 253 325 368 257 b 623 350 524 257 623 296 b 564 425 623 376 590 425 b 526 411 553 425 536 419 z "},"":{"ha":329,"x_min":0,"x_max":0,"o":""},"":{"ha":353,"x_min":0,"x_max":0,"o":"m 322 -328 b 236 205 271 -143 243 40 b 203 240 234 227 227 237 l 146 249 b 109 178 114 249 109 214 b 165 -354 109 -12 134 -185 b 281 -404 172 -387 211 -404 b 328 -359 313 -404 328 -385 b 322 -328 328 -349 325 -340 z m 182 507 b 103 444 133 507 103 484 b 193 366 103 403 146 366 b 277 429 243 366 277 391 b 182 507 277 473 234 507 z "},"":{"ha":472,"x_min":0,"x_max":0,"o":"m 268 725 l 259 557 b 29 248 124 537 29 413 b 229 -29 29 99 110 -7 l 220 -199 b 254 -243 220 -227 231 -243 l 290 -240 b 334 -193 317 -236 332 -220 l 342 -24 b 511 100 429 -3 511 52 b 465 154 511 124 486 154 b 349 94 433 154 405 110 l 363 387 b 407 361 378 372 391 361 b 479 437 444 361 479 397 b 372 547 479 482 433 527 l 382 739 b 346 775 382 761 370 775 l 311 772 b 268 725 283 768 269 753 z m 171 283 b 252 434 171 361 201 422 l 235 110 b 171 283 193 140 171 198 z "},"":{"ha":616,"x_min":0,"x_max":0,"o":"m 164 -35 l 575 -12 b 632 58 613 -10 632 10 b 581 111 632 97 615 111 l 357 97 b 322 131 335 97 323 109 b 321 292 320 180 321 232 b 342 329 321 314 322 326 l 522 349 b 558 422 549 351 558 391 b 534 472 558 449 551 472 b 346 447 491 472 380 447 b 328 468 332 447 328 455 b 475 721 344 622 388 680 b 485 737 481 724 485 730 b 389 831 485 782 429 831 b 328 806 372 831 351 821 b 191 453 266 766 209 683 b 170 431 189 439 182 432 b 41 425 119 428 76 425 b 9 367 20 425 9 396 b 45 304 9 336 24 307 l 163 314 b 184 293 177 314 184 307 b 183 197 182 262 183 231 l 183 138 b 139 78 183 106 164 98 b 113 8 114 56 113 14 b 164 -35 113 -20 130 -35 z "},"":{"ha":625,"x_min":0,"x_max":0,"o":"m 41 271 b 61 178 41 236 48 204 b 66 158 64 170 66 165 b 54 132 66 151 62 142 l 29 107 b 7 64 14 94 7 79 b 18 29 7 54 11 42 l 25 17 b 66 -12 36 -3 51 -12 b 104 5 79 -12 92 -6 l 157 60 b 186 74 167 69 176 74 b 203 71 192 74 197 73 b 283 62 228 65 254 62 b 379 74 315 62 347 66 b 396 77 385 76 390 77 b 425 62 405 77 415 72 b 463 22 439 49 452 35 b 509 -3 476 5 492 -3 b 541 7 519 -3 530 1 l 553 14 b 583 56 573 25 583 39 b 567 92 583 67 578 79 l 539 121 b 528 144 532 130 528 137 b 539 171 528 152 532 161 b 583 288 567 204 583 245 b 536 414 583 335 568 377 b 525 440 529 424 525 433 b 536 464 525 449 529 456 l 555 485 b 574 525 568 498 574 511 b 557 564 574 539 568 552 l 549 574 b 510 596 536 589 524 596 b 472 576 497 596 485 589 l 418 519 b 385 504 408 509 396 504 b 371 505 380 504 376 503 b 304 513 349 510 327 513 b 210 497 271 513 239 507 b 192 493 203 494 197 493 b 163 507 182 493 172 498 l 107 564 b 65 583 94 576 80 583 b 28 568 53 583 41 578 l 18 559 b -5 521 1 549 -5 534 b 12 485 -5 508 -1 496 l 65 431 b 78 404 74 422 78 414 b 71 382 78 398 75 391 b 41 271 51 348 41 311 z m 463 271 b 296 176 463 218 387 176 b 165 296 214 176 165 219 b 283 397 165 353 216 397 b 463 271 381 397 463 341 z "},"":{"ha":644,"x_min":0,"x_max":0,"o":"m 134 140 b 342 146 202 141 272 143 l 319 55 b 138 50 259 52 200 51 b 97 20 117 50 103 40 l 85 -35 b 83 -46 83 -39 83 -43 b 117 -75 83 -64 94 -75 b 286 -70 168 -75 225 -73 l 261 -161 b 258 -182 258 -169 258 -176 b 298 -229 258 -205 271 -222 l 321 -236 b 343 -240 329 -239 336 -240 b 390 -199 367 -240 382 -227 b 426 -62 403 -153 414 -109 l 571 -53 b 607 -17 593 -52 606 -39 l 610 40 b 581 71 608 60 600 68 l 574 71 l 458 62 l 481 155 l 604 164 b 640 200 627 165 639 178 l 643 257 b 614 288 641 277 633 286 l 607 288 l 512 281 b 587 572 538 385 563 482 b 591 595 590 581 591 588 b 558 644 591 616 581 632 l 534 657 b 504 667 524 665 513 667 b 463 627 483 667 469 653 l 403 389 b 380 364 400 372 393 364 b 358 376 374 364 367 368 b 5 690 249 496 132 595 b -31 704 -7 701 -20 704 b -72 682 -46 704 -60 696 l -92 660 b -107 623 -103 647 -107 635 b -83 581 -107 606 -99 592 b 274 268 44 485 162 382 b 154 265 233 266 195 265 b 114 235 133 265 119 255 l 102 180 b 100 170 100 176 100 172 b 134 140 100 150 111 140 z "},"":{"ha":347,"x_min":0,"x_max":0,"o":"m 104 865 l 104 492 b 147 440 104 460 119 440 b 243 500 206 440 243 464 l 243 873 b 200 925 243 905 228 925 b 104 865 141 925 104 901 z m 104 115 l 104 -286 b 147 -338 104 -318 119 -338 b 243 -278 206 -338 243 -314 l 243 123 b 200 175 243 155 228 175 b 104 115 141 175 104 151 z "},"":{"ha":693,"x_min":0,"x_max":0,"o":"m 199 14 l 199 22 b 151 79 199 50 174 71 l 138 83 b 111 87 127 86 121 87 b 56 -16 66 87 56 31 b 407 -306 56 -174 240 -306 b 644 -111 513 -306 644 -241 b 551 68 644 -47 605 14 b 539 89 543 77 539 83 b 559 109 539 96 546 103 b 676 265 624 132 676 180 b 296 724 676 473 296 654 b 359 758 296 750 328 758 b 524 726 419 758 473 726 b 576 758 545 726 564 736 l 586 775 b 595 808 593 788 595 798 b 396 876 595 868 427 876 b 129 730 278 876 129 831 b 306 518 129 646 241 568 l 326 501 b 334 489 331 496 334 494 b 323 484 334 486 329 484 b 62 328 207 484 62 433 b 504 -135 62 179 504 24 b 421 -182 504 -175 456 -182 b 199 14 306 -182 199 -90 z m 229 330 b 307 367 229 359 271 367 b 490 336 396 367 467 353 b 534 250 528 310 534 274 b 441 176 534 218 509 176 b 229 330 403 176 229 292 z "},"":{"ha":589,"x_min":0,"x_max":0,"o":"m 183 664 b 262 726 232 664 262 688 b 172 806 262 768 219 806 b 89 742 121 806 89 780 b 183 664 89 696 131 664 z m 419 664 b 498 726 468 664 498 688 b 408 806 498 768 455 806 b 325 742 357 806 325 780 b 419 664 325 696 367 664 z "},"":{"ha":930,"x_min":0,"x_max":0,"o":"m 419 -121 b 893 314 686 -121 893 69 b 475 668 893 532 732 668 b 58 500 268 668 58 583 b 83 437 58 472 83 457 b 77 416 83 432 82 428 b 47 254 58 370 47 314 b 419 -121 47 33 201 -121 z m 787 286 b 449 -28 787 102 647 -28 b 153 286 273 -28 153 99 b 461 575 153 458 256 575 b 787 286 660 575 787 467 z m 419 408 b 478 379 437 408 441 379 b 547 440 516 379 547 411 b 443 507 547 476 499 507 b 222 275 321 507 222 396 b 484 72 222 161 334 72 b 725 232 617 72 725 142 b 650 321 725 277 693 321 b 581 267 614 321 581 293 b 603 215 581 239 603 235 b 493 171 603 193 557 171 b 343 289 406 171 343 221 b 419 408 343 359 378 408 z "},"":{"ha":587,"x_min":0,"x_max":0,"o":"m 372 753 b 21 441 227 753 21 571 b 143 330 21 374 66 330 b 367 447 216 330 296 369 b 488 325 386 368 431 325 b 623 412 553 325 623 371 b 582 460 623 437 604 460 b 554 454 574 460 566 457 b 521 447 546 452 536 447 b 464 571 488 447 464 484 b 525 635 496 574 525 603 b 372 753 525 703 452 753 z m 346 591 b 170 447 284 496 221 447 b 146 461 154 447 146 453 b 354 639 146 522 283 639 b 382 628 367 639 374 635 b 346 591 368 623 359 612 z "},"":{"ha":587,"x_min":0,"x_max":0,"o":"m 424 476 b 281 277 371 427 281 334 b 446 87 281 209 378 136 b 481 74 457 79 469 74 b 529 104 496 74 510 82 b 546 140 541 116 546 128 b 414 294 546 184 414 236 b 521 449 414 349 521 408 b 464 494 521 473 488 494 b 424 476 450 494 437 489 z m 214 452 b 69 249 155 399 69 313 b 231 62 69 182 191 92 b 267 49 243 52 256 49 b 314 78 282 49 296 56 b 330 114 325 90 330 102 b 197 269 330 162 197 213 b 310 422 197 320 310 381 b 254 469 310 447 277 469 b 214 452 240 469 227 463 z "},"":{"ha":804,"x_min":0,"x_max":0,"o":"m 725 343 b 737 416 728 370 737 386 b 692 469 737 451 715 469 b 608 460 672 469 639 460 b 87 505 375 473 136 505 b 29 439 56 505 29 484 b 71 374 29 397 41 378 b 551 335 265 349 410 338 b 583 304 572 335 583 323 b 564 85 583 232 564 154 b 611 32 564 39 589 32 b 701 79 646 32 698 32 b 725 343 712 191 716 286 z "},"":{"ha":930,"x_min":0,"x_max":0,"o":"m 419 -121 b 893 314 686 -121 893 69 b 475 668 893 532 732 668 b 58 500 268 668 58 583 b 83 437 58 472 83 457 b 77 416 83 432 82 428 b 47 254 58 370 47 314 b 419 -121 47 33 201 -121 z m 787 286 b 449 -28 787 102 647 -28 b 153 286 273 -28 153 99 b 461 575 153 458 256 575 b 787 286 660 575 787 467 z m 321 428 b 245 378 302 428 245 418 b 249 364 245 372 247 369 b 302 100 273 277 290 190 b 343 62 306 78 325 62 b 407 104 371 62 407 82 b 403 154 407 118 403 143 b 418 168 403 163 408 168 b 433 165 422 168 428 168 l 587 113 b 631 98 619 98 627 98 b 686 155 656 98 686 128 b 659 193 686 173 677 186 l 536 235 b 517 252 524 239 517 244 b 532 271 517 258 522 264 b 646 416 584 303 646 353 b 526 518 646 493 580 518 b 330 444 465 518 336 496 b 321 428 328 431 329 428 z m 371 392 b 390 396 377 392 383 393 b 505 424 427 410 469 424 b 541 408 526 424 541 422 b 408 300 541 378 463 329 b 393 296 403 297 398 296 b 370 328 383 296 377 301 b 357 379 359 370 357 375 b 371 392 357 387 363 392 z "},"":{"ha":589,"x_min":0,"x_max":0,"o":"m 100 718 b 452 739 189 718 382 739 b 533 783 504 739 533 754 b 478 851 533 835 519 851 b 168 835 411 851 231 835 b 56 778 86 835 56 819 b 100 718 56 740 72 718 z "},"":{"ha":625,"x_min":0,"x_max":0,"o":"m 39 524 b 283 313 39 396 136 313 b 586 541 449 313 586 416 b 304 768 586 667 461 768 b 39 524 155 768 39 660 z m 464 524 b 296 428 464 471 389 428 b 164 549 212 428 164 472 b 283 652 164 606 216 652 b 464 524 382 652 464 593 z "},"":{"ha":675,"x_min":0,"x_max":0,"o":"m 60 328 b 220 332 114 330 168 332 b 253 297 242 332 253 320 b 250 165 253 254 250 210 b 290 119 250 136 264 119 b 302 121 295 119 298 119 l 345 129 b 389 197 372 135 389 161 b 391 301 389 228 391 273 b 425 342 391 329 401 340 l 611 353 b 660 401 642 354 659 370 l 661 435 b 614 476 661 464 644 476 b 420 465 549 476 486 465 b 387 498 399 465 389 477 l 380 661 b 339 704 379 690 366 704 b 326 703 334 704 331 703 l 283 694 b 241 640 253 689 241 671 b 249 489 241 589 249 540 b 204 456 249 468 237 456 b 78 453 179 456 140 453 b 25 411 50 453 32 439 l 18 382 b 15 366 16 376 15 371 b 60 328 15 342 31 328 z m 69 -89 b 606 -64 248 -86 427 -72 b 661 -8 642 -62 660 -44 l 663 4 b 608 60 665 42 646 62 b 86 36 434 52 260 39 b 25 -12 52 36 31 20 l 21 -26 b 69 -89 11 -65 28 -89 z "},"":{"ha":550,"x_min":0,"x_max":0,"o":"m 182 699 b 258 732 196 717 216 732 b 335 682 298 732 335 713 b 98 443 335 600 189 501 b 71 392 80 430 71 413 l 71 380 l 72 372 b 126 322 77 340 96 322 b 453 301 229 320 353 312 l 460 301 b 513 345 486 301 504 315 l 517 355 b 519 374 519 361 519 366 b 475 419 519 400 503 416 b 278 435 410 427 343 432 b 461 699 366 502 461 596 b 279 847 461 791 378 847 b 83 754 188 847 121 807 b 74 725 76 746 74 735 b 104 681 74 704 84 690 l 114 676 l 113 676 b 140 669 123 671 133 669 b 182 699 156 669 170 679 z "},"":{"ha":571,"x_min":0,"x_max":0,"o":"m 218 530 b 256 539 229 532 244 536 b 288 545 267 544 277 545 b 302 543 293 545 298 543 b 386 469 346 540 386 509 b 306 422 386 435 353 422 b 215 450 269 422 228 427 b 129 497 195 488 181 497 b 82 453 102 497 82 481 b 85 436 82 447 83 441 b 292 306 111 352 194 306 b 510 471 402 306 510 364 b 397 635 510 541 474 603 l 395 639 b 419 713 413 660 419 686 b 225 857 419 799 336 857 b 21 804 146 857 78 842 b -1 764 7 796 -1 781 b 12 729 -1 751 4 739 l 24 717 b 62 694 37 702 50 694 b 97 708 73 694 84 699 b 204 742 126 728 160 742 b 296 700 243 742 296 730 b 285 672 296 691 292 682 b 243 660 277 664 262 662 b 228 659 237 658 233 659 b 196 654 218 656 209 657 b 153 602 167 647 153 629 b 154 593 153 599 154 596 l 157 574 b 203 528 161 545 178 528 b 218 530 208 528 212 528 z "},"":{"ha":589,"x_min":0,"x_max":0,"o":"m 457 844 b 378 908 457 867 410 908 b 131 636 274 908 131 710 b 195 597 131 614 165 597 b 232 614 211 597 224 601 b 457 844 332 782 457 804 z "},"":{"ha":652,"x_min":0,"x_max":0,"o":"m 199 240 b 231 488 199 342 231 454 b 121 547 231 520 183 547 b 60 504 86 547 62 530 b 37 228 45 380 37 297 b -45 -378 11 17 -16 -180 b -46 -392 -47 -383 -46 -387 b 5 -436 -46 -421 -29 -436 b 90 -383 69 -436 85 -419 b 144 -31 106 -275 123 -168 b 155 -9 147 -16 151 -9 b 174 -25 160 -9 166 -15 b 304 -81 207 -68 254 -81 b 627 436 503 -81 627 117 b 519 526 627 495 587 526 b 443 485 466 526 443 514 b 460 314 443 447 460 406 b 307 50 460 161 397 50 b 199 240 237 50 199 119 z "},"":{"ha":697,"x_min":0,"x_max":0,"o":"m 457 -78 b 492 424 457 12 478 278 b 538 525 499 494 509 525 b 657 371 617 525 510 371 b 720 454 692 371 720 400 b 253 707 720 606 533 707 b 16 458 117 707 16 600 b 309 176 16 328 143 216 b 332 147 324 174 332 164 b 318 -52 332 102 318 4 b 387 -122 318 -102 341 -122 b 457 -78 431 -122 457 -107 z "},"":{"ha":436,"x_min":0,"x_max":0,"o":"m 228 248 b 307 311 277 248 307 271 b 216 390 307 353 264 390 b 134 326 167 390 134 364 b 228 248 134 283 175 248 z "},"":{"ha":589,"x_min":0,"x_max":0,"o":"m 253 -3 b 235 -98 240 -41 235 -71 b 298 -175 235 -132 248 -148 b 332 -211 318 -185 332 -198 b 294 -237 332 -229 319 -237 b 208 -196 256 -237 224 -196 b 136 -265 192 -196 136 -233 b 272 -347 136 -305 218 -347 b 452 -197 379 -347 452 -262 b 387 -93 452 -161 433 -121 b 354 -57 366 -80 354 -71 b 366 -5 354 -46 366 -25 b 319 31 366 17 349 31 b 253 -3 285 31 261 21 z "},"":{"ha":454,"x_min":0,"x_max":0,"o":"m 79 579 b 191 642 112 601 167 642 b 208 629 199 642 205 637 b 241 397 228 553 234 475 b 289 350 244 367 262 350 b 368 408 340 350 368 378 b 334 659 357 510 350 585 l 330 672 b 237 782 319 721 308 782 b 199 774 227 782 214 779 b -18 619 134 747 -18 665 b 43 564 -18 590 17 564 b 79 579 54 564 66 569 z "},"":{"ha":603,"x_min":0,"x_max":0,"o":"m 82 496 b 313 292 82 379 179 292 b 564 510 449 292 564 393 b 321 726 564 629 456 726 b 39 587 253 726 39 671 b 83 518 39 545 83 543 b 82 496 83 511 82 504 z m 323 406 b 205 522 256 406 205 455 b 309 608 205 581 241 608 b 440 500 382 608 440 561 b 323 406 440 441 375 406 z "},"":{"ha":587,"x_min":0,"x_max":0,"o":"m 164 66 b 307 267 216 115 307 210 b 142 456 307 334 208 407 b 107 469 131 464 118 469 b 58 439 92 469 78 461 b 41 403 47 426 41 414 b 174 249 41 360 174 307 b 66 94 174 195 66 135 b 123 49 66 71 99 49 b 164 66 138 49 152 55 z m 374 92 b 518 294 432 144 518 231 b 357 481 518 363 399 450 b 321 494 344 491 332 494 b 273 465 305 494 292 488 b 257 429 262 453 257 441 b 390 273 257 380 390 330 b 278 121 390 222 278 162 b 334 74 278 96 311 74 b 374 92 347 74 361 81 z "},"":{"ha":1072,"x_min":0,"x_max":0,"o":"m 24 579 b 136 642 57 601 112 642 b 153 629 144 642 151 637 b 186 397 173 553 179 475 b 234 350 189 367 208 350 b 313 408 285 350 313 378 b 279 659 302 510 295 585 l 275 672 b 182 782 264 721 253 782 b 144 774 172 782 159 779 b -73 619 79 747 -73 665 b -12 564 -73 590 -38 564 b 24 579 -1 564 11 569 z m 475 754 b 317 -69 439 530 398 309 b 315 -81 315 -74 315 -78 b 346 -111 315 -99 326 -109 l 407 -118 b 448 -89 429 -118 443 -113 b 611 751 514 191 563 470 b 578 790 611 778 604 788 l 514 787 b 475 754 492 786 479 775 z m 1006 231 l 983 233 b 965 238 972 233 966 235 l 916 387 l 887 470 b 884 502 884 481 884 492 b 812 553 884 526 850 553 b 743 509 762 553 743 533 b 748 480 743 496 748 488 b 737 459 748 475 745 467 l 699 413 b 574 219 655 364 574 281 b 757 127 574 143 697 127 l 852 120 b 937 -24 901 120 866 -24 b 980 -14 943 -24 959 -22 b 1018 35 1004 -6 1018 9 b 1001 111 1018 39 1017 45 l 1006 115 b 1048 158 1026 115 1040 126 b 1053 186 1053 174 1053 180 b 1006 231 1053 213 1036 229 z m 798 327 l 830 237 l 712 250 l 776 332 b 787 340 782 339 785 340 b 798 327 792 340 793 338 z "},"":{"ha":1095,"x_min":0,"x_max":0,"o":"m 475 754 b 317 -69 439 530 398 309 b 315 -81 315 -74 315 -78 b 346 -111 315 -99 326 -109 l 407 -118 b 448 -89 429 -118 443 -113 b 611 751 514 191 563 470 b 578 790 611 778 604 788 l 514 787 b 475 754 492 786 479 775 z m 726 406 b 803 439 741 425 760 439 b 880 390 843 439 880 420 b 643 151 880 308 734 209 b 615 100 625 138 615 121 l 615 88 l 616 80 b 671 30 621 48 640 30 b 998 9 774 28 897 20 l 1004 9 b 1057 52 1031 9 1048 23 l 1061 63 b 1064 81 1063 68 1064 74 b 1019 127 1064 108 1047 124 b 823 142 954 134 888 140 b 1006 406 910 210 1006 304 b 824 555 1006 498 922 555 b 628 462 732 555 666 515 b 618 433 621 454 618 443 b 649 389 618 412 629 397 l 659 384 l 657 384 b 685 377 668 379 677 377 b 726 406 701 377 714 387 z m 24 579 b 136 642 57 601 112 642 b 153 629 144 642 151 637 b 186 397 173 553 179 475 b 234 350 189 367 208 350 b 313 408 285 350 313 378 b 279 659 302 510 295 585 l 275 672 b 182 782 264 721 253 782 b 144 774 172 782 159 779 b -73 619 79 747 -73 665 b -12 564 -73 590 -38 564 b 24 579 -1 564 11 569 z "},"":{"ha":1156,"x_min":0,"x_max":0,"o":"m 150 530 b 187 539 161 532 176 536 b 219 545 198 544 208 545 b 234 543 224 545 229 543 b 317 469 277 540 317 509 b 237 422 317 435 284 422 b 146 450 201 422 159 427 b 60 497 127 488 113 497 b 14 453 33 497 14 481 b 16 436 14 447 14 441 b 223 306 42 352 125 306 b 441 471 334 306 441 364 b 329 635 441 541 406 603 l 326 639 b 351 713 345 660 351 686 b 157 857 351 799 268 857 b -47 804 78 857 9 842 b -70 764 -62 796 -70 781 b -56 729 -70 751 -64 739 l -45 717 b -6 694 -32 702 -19 694 b 28 708 4 694 16 699 b 136 742 58 728 92 742 b 227 700 174 742 227 730 b 216 672 227 691 224 682 b 174 660 208 664 194 662 b 159 659 169 658 164 659 b 127 654 149 656 140 657 b 84 602 98 647 84 629 b 85 593 84 599 85 596 l 88 574 b 134 528 93 545 109 528 b 150 530 139 528 144 528 z m 558 754 b 400 -69 522 530 481 309 b 399 -81 398 -74 399 -78 b 429 -111 399 -99 410 -109 l 490 -118 b 532 -89 513 -118 526 -113 b 694 751 597 191 646 470 b 661 790 694 778 688 788 l 597 787 b 558 754 576 786 563 775 z m 1090 231 l 1066 233 b 1048 238 1056 233 1050 235 l 1000 387 l 970 470 b 968 502 968 481 968 492 b 896 553 968 526 933 553 b 826 509 845 553 826 533 b 831 480 826 496 831 488 b 821 459 831 475 828 467 l 782 413 b 658 219 739 364 658 281 b 840 127 658 143 781 127 l 936 120 b 1021 -24 985 120 949 -24 b 1063 -14 1026 -24 1042 -22 b 1101 35 1087 -6 1101 9 b 1084 111 1101 39 1101 45 l 1090 115 b 1132 158 1109 115 1123 126 b 1136 186 1137 174 1136 180 b 1090 231 1136 213 1119 229 z m 882 327 l 913 237 l 795 250 l 859 332 b 871 340 865 339 868 340 b 882 327 876 340 877 338 z "},"":{"ha":750,"x_min":0,"x_max":0,"o":"m 595 136 l 581 222 b 541 267 575 252 562 267 b 511 258 530 267 522 264 b 457 244 489 248 473 244 b 375 252 437 244 408 252 b 69 -89 191 252 69 82 b 399 -408 69 -306 248 -408 b 743 -174 534 -408 716 -321 b 745 -154 745 -166 745 -160 b 642 -56 745 -97 694 -56 b 606 -107 619 -56 608 -75 b 412 -283 597 -212 514 -283 b 208 -64 311 -283 208 -208 b 355 131 208 20 260 131 b 465 86 390 131 431 115 b 513 64 481 72 496 64 b 542 72 520 64 530 66 b 595 136 581 92 595 111 z m 519 368 b 599 431 568 368 599 392 b 509 510 599 472 555 510 b 425 446 458 510 425 484 b 519 368 425 401 467 368 z "},"":{"ha":819,"x_min":0,"x_max":0,"o":"m 43 135 l 52 135 b 68 114 62 135 68 128 b 65 96 68 109 67 103 l 50 40 b 47 21 48 33 47 26 b 94 -25 47 -5 64 -22 l 115 -28 l 126 -28 b 180 17 154 -28 172 -13 l 211 129 b 248 160 216 148 228 158 b 574 183 356 171 463 178 b 615 161 591 183 605 176 b 747 -18 661 102 704 43 b 790 -45 760 -35 774 -45 b 825 -32 802 -45 812 -40 l 851 -14 b 879 29 869 -1 879 13 b 867 64 879 40 875 52 l 794 163 b 785 192 788 173 785 182 b 787 210 785 197 785 202 l 800 248 b 803 268 803 255 803 262 b 753 310 803 294 785 310 l 714 310 b 672 330 696 310 684 317 b 387 673 515 544 458 625 b 347 686 374 682 361 686 b 244 637 304 686 260 660 b 170 450 205 584 188 509 b 122 294 153 399 138 346 b 85 262 117 275 106 265 l 69 261 b 21 204 39 256 22 237 b 20 179 19 187 20 184 b 43 135 20 151 27 135 z m 366 493 b 482 345 406 444 444 395 b 490 323 488 336 490 330 b 461 301 490 311 479 303 b 298 288 407 298 353 295 l 292 288 b 265 313 274 288 265 296 b 267 325 265 317 264 320 b 318 484 283 379 300 430 b 342 507 323 499 330 507 b 366 493 350 507 357 501 z m 127 970 b 352 740 127 930 252 908 b 390 724 359 727 373 724 b 454 762 420 724 454 741 b 206 1034 454 836 311 1034 b 127 970 174 1034 127 993 z "},"":{"ha":819,"x_min":0,"x_max":0,"o":"m 43 135 l 52 135 b 68 114 62 135 68 128 b 65 96 68 109 67 103 l 50 40 b 47 21 48 33 47 26 b 94 -25 47 -5 64 -22 l 115 -28 l 126 -28 b 180 17 154 -28 172 -13 l 211 129 b 248 160 216 148 228 158 b 574 183 356 171 463 178 b 615 161 591 183 605 176 b 747 -18 661 102 704 43 b 790 -45 760 -35 774 -45 b 825 -32 802 -45 812 -40 l 851 -14 b 879 29 869 -1 879 13 b 867 64 879 40 875 52 l 794 163 b 785 192 788 173 785 182 b 787 210 785 197 785 202 l 800 248 b 803 268 803 255 803 262 b 753 310 803 294 785 310 l 714 310 b 672 330 696 310 684 317 b 387 673 515 544 458 625 b 347 686 374 682 361 686 b 244 637 304 686 260 660 b 170 450 205 584 188 509 b 122 294 153 399 138 346 b 85 262 117 275 106 265 l 69 261 b 21 204 39 256 22 237 b 20 179 19 187 20 184 b 43 135 20 151 27 135 z m 366 493 b 482 345 406 444 444 395 b 490 323 488 336 490 330 b 461 301 490 311 479 303 b 298 288 407 298 353 295 l 292 288 b 265 313 274 288 265 296 b 267 325 265 317 264 320 b 318 484 283 379 300 430 b 342 507 323 499 330 507 b 366 493 350 507 357 501 z m 519 968 b 439 1031 519 990 472 1031 b 193 760 336 1031 193 833 b 256 721 193 738 227 721 b 294 737 273 721 286 724 b 519 968 394 905 519 927 z "},"":{"ha":819,"x_min":0,"x_max":0,"o":"m 43 135 l 52 135 b 68 114 62 135 68 128 b 65 96 68 109 67 103 l 50 40 b 47 21 48 33 47 26 b 94 -25 47 -5 64 -22 l 115 -28 l 126 -28 b 180 17 154 -28 172 -13 l 211 129 b 248 160 216 148 228 158 b 574 183 356 171 463 178 b 615 161 591 183 605 176 b 747 -18 661 102 704 43 b 790 -45 760 -35 774 -45 b 825 -32 802 -45 812 -40 l 851 -14 b 879 29 869 -1 879 13 b 867 64 879 40 875 52 l 794 163 b 785 192 788 173 785 182 b 787 210 785 197 785 202 l 800 248 b 803 268 803 255 803 262 b 753 310 803 294 785 310 l 714 310 b 672 330 696 310 684 317 b 387 673 515 544 458 625 b 347 686 374 682 361 686 b 244 637 304 686 260 660 b 170 450 205 584 188 509 b 122 294 153 399 138 346 b 85 262 117 275 106 265 l 69 261 b 21 204 39 256 22 237 b 20 179 19 187 20 184 b 43 135 20 151 27 135 z m 366 493 b 482 345 406 444 444 395 b 490 323 488 336 490 330 b 461 301 490 311 479 303 b 298 288 407 298 353 295 l 292 288 b 265 313 274 288 265 296 b 267 325 265 317 264 320 b 318 484 283 379 300 430 b 342 507 323 499 330 507 b 366 493 350 507 357 501 z m 247 774 b 332 841 271 803 303 841 b 504 738 380 841 467 738 b 574 802 529 738 574 772 b 333 963 574 853 408 963 b 144 796 281 963 144 840 b 201 748 144 774 172 748 b 247 774 218 748 233 758 z "},"":{"ha":819,"x_min":0,"x_max":0,"o":"m 43 135 l 52 135 b 68 114 62 135 68 128 b 65 96 68 109 67 103 l 50 40 b 47 21 48 33 47 26 b 94 -25 47 -5 64 -22 l 115 -28 l 126 -28 b 180 17 154 -28 172 -13 l 211 129 b 248 160 216 148 228 158 b 574 183 356 171 463 178 b 615 161 591 183 605 176 b 747 -18 661 102 704 43 b 790 -45 760 -35 774 -45 b 825 -32 802 -45 812 -40 l 851 -14 b 879 29 869 -1 879 13 b 867 64 879 40 875 52 l 794 163 b 785 192 788 173 785 182 b 787 210 785 197 785 202 l 800 248 b 803 268 803 255 803 262 b 753 310 803 294 785 310 l 714 310 b 672 330 696 310 684 317 b 387 673 515 544 458 625 b 347 686 374 682 361 686 b 244 637 304 686 260 660 b 170 450 205 584 188 509 b 122 294 153 399 138 346 b 85 262 117 275 106 265 l 69 261 b 21 204 39 256 22 237 b 20 179 19 187 20 184 b 43 135 20 151 27 135 z m 366 493 b 482 345 406 444 444 395 b 490 323 488 336 490 330 b 461 301 490 311 479 303 b 298 288 407 298 353 295 l 292 288 b 265 313 274 288 265 296 b 267 325 265 317 264 320 b 318 484 283 379 300 430 b 342 507 323 499 330 507 b 366 493 350 507 357 501 z m 149 793 b 234 803 172 793 201 803 b 414 783 274 803 357 783 b 583 859 492 783 583 816 b 528 926 583 910 569 926 b 401 896 500 926 452 898 b 220 917 337 892 264 917 b 105 853 139 917 105 895 b 149 793 105 815 121 793 z "},"":{"ha":819,"x_min":0,"x_max":0,"o":"m 43 135 l 52 135 b 68 114 62 135 68 128 b 65 96 68 109 67 103 l 50 40 b 47 21 48 33 47 26 b 94 -25 47 -5 64 -22 l 115 -28 l 126 -28 b 180 17 154 -28 172 -13 l 211 129 b 248 160 216 148 228 158 b 574 183 356 171 463 178 b 615 161 591 183 605 176 b 747 -18 661 102 704 43 b 790 -45 760 -35 774 -45 b 825 -32 802 -45 812 -40 l 851 -14 b 879 29 869 -1 879 13 b 867 64 879 40 875 52 l 794 163 b 785 192 788 173 785 182 b 787 210 785 197 785 202 l 800 248 b 803 268 803 255 803 262 b 753 310 803 294 785 310 l 714 310 b 672 330 696 310 684 317 b 387 673 515 544 458 625 b 347 686 374 682 361 686 b 244 637 304 686 260 660 b 170 450 205 584 188 509 b 122 294 153 399 138 346 b 85 262 117 275 106 265 l 69 261 b 21 204 39 256 22 237 b 20 179 19 187 20 184 b 43 135 20 151 27 135 z m 366 493 b 482 345 406 444 444 395 b 490 323 488 336 490 330 b 461 301 490 311 479 303 b 298 288 407 298 353 295 l 292 288 b 265 313 274 288 265 296 b 267 325 265 317 264 320 b 318 484 283 379 300 430 b 342 507 323 499 330 507 b 366 493 350 507 357 501 z m 224 787 b 304 850 273 787 304 811 b 214 929 304 892 260 929 b 130 865 163 929 130 903 b 224 787 130 820 172 787 z m 460 787 b 540 850 509 787 540 811 b 450 929 540 892 496 929 b 366 865 399 929 366 903 b 460 787 366 820 408 787 z "},"":{"ha":819,"x_min":0,"x_max":0,"o":"m 43 135 l 52 135 b 68 114 62 135 68 128 b 65 96 68 109 67 103 l 50 40 b 47 21 48 33 47 26 b 94 -25 47 -5 64 -22 l 115 -28 l 126 -28 b 180 17 154 -28 172 -13 l 211 129 b 248 160 216 148 228 158 b 574 183 356 171 463 178 b 615 161 591 183 605 176 b 747 -18 661 102 704 43 b 790 -45 760 -35 774 -45 b 825 -32 802 -45 812 -40 l 851 -14 b 879 29 869 -1 879 13 b 867 64 879 40 875 52 l 794 163 b 785 192 788 173 785 182 b 787 210 785 197 785 202 l 800 248 b 803 268 803 255 803 262 b 753 310 803 294 785 310 l 714 310 b 672 330 696 310 684 317 b 387 673 515 544 458 625 b 347 686 374 682 361 686 b 244 637 304 686 260 660 b 170 450 205 584 188 509 b 122 294 153 399 138 346 b 85 262 117 275 106 265 l 69 261 b 21 204 39 256 22 237 b 20 179 19 187 20 184 b 43 135 20 151 27 135 z m 366 493 b 482 345 406 444 444 395 b 490 323 488 336 490 330 b 461 301 490 311 479 303 b 298 288 407 298 353 295 l 292 288 b 265 313 274 288 265 296 b 267 325 265 317 264 320 b 318 484 283 379 300 430 b 342 507 323 499 330 507 b 366 493 350 507 357 501 z m 151 922 l 150 895 b 325 739 150 808 224 739 b 515 905 429 739 515 815 b 331 1071 515 998 435 1071 b 118 965 279 1071 118 1027 b 151 922 118 940 138 922 z m 334 826 b 245 915 282 826 245 865 b 322 981 245 960 273 981 b 422 897 379 981 422 944 b 334 826 422 854 372 826 z "},"":{"ha":1265,"x_min":0,"x_max":0,"o":"m 147 -9 l 186 82 b 240 132 197 109 212 123 b 454 189 311 154 383 172 b 467 191 459 191 462 191 b 497 167 481 191 492 182 b 582 -98 528 79 557 -8 b 627 -139 589 -125 604 -139 b 650 -135 634 -139 642 -138 l 681 -125 b 721 -77 707 -116 721 -100 b 714 -36 721 -65 714 -43 b 745 -16 714 -26 724 -20 b 1254 56 916 20 1080 45 b 1314 104 1287 58 1306 72 b 1321 138 1320 126 1321 132 b 1278 179 1321 164 1307 178 l 1268 179 b 707 98 1078 166 895 136 b 697 97 702 98 700 97 b 665 123 682 97 671 107 l 642 193 b 639 208 640 199 639 203 b 665 235 639 223 648 232 b 1069 293 801 260 934 277 b 1124 363 1103 298 1124 317 b 1079 415 1124 396 1109 414 l 1067 415 b 619 347 918 399 769 376 l 611 347 b 576 372 595 347 582 354 l 549 444 b 546 460 546 450 546 455 b 572 488 546 474 555 484 b 982 547 707 519 842 545 b 1043 596 1015 549 1036 562 b 1050 631 1048 618 1050 623 b 1007 672 1050 654 1035 670 l 999 672 b 525 599 838 667 682 637 b 513 597 520 597 517 597 b 482 621 497 597 487 605 l 461 675 b 410 715 451 702 434 715 b 395 714 405 715 400 716 l 359 708 b 300 661 330 703 313 689 b 22 21 204 448 113 237 b 17 -5 19 12 17 3 b 62 -46 17 -28 32 -43 l 81 -49 b 92 -50 85 -49 87 -50 b 147 -9 117 -50 136 -37 z m 392 452 b 431 346 405 414 418 380 b 435 329 433 340 435 335 b 408 301 435 315 425 307 b 315 278 378 294 346 286 b 301 275 310 276 306 275 b 279 296 288 275 279 283 b 283 313 279 302 281 307 l 346 453 b 368 473 351 467 359 473 b 392 452 378 473 386 466 z "},"":{"ha":753,"x_min":0,"x_max":0,"o":"m 342 591 b 436 539 389 591 389 539 b 521 621 481 539 521 578 b 374 715 521 675 458 715 b 25 332 182 715 25 541 b 392 3 25 155 176 22 l 389 -3 b 371 -98 376 -41 371 -71 b 435 -175 371 -132 384 -148 b 468 -211 454 -185 468 -198 b 431 -237 468 -229 456 -237 b 345 -196 392 -237 360 -196 b 273 -265 328 -196 273 -233 b 408 -347 273 -305 354 -347 b 588 -197 515 -347 588 -262 b 524 -93 588 -161 570 -121 b 490 -57 503 -80 490 -71 b 502 -5 490 -46 502 -25 b 500 3 502 -2 501 1 b 831 257 693 20 831 123 b 737 389 831 330 790 389 b 653 321 693 389 653 357 b 693 231 653 283 693 277 b 464 125 693 173 589 125 b 164 358 293 125 164 225 b 342 591 164 489 241 591 z "},"":{"ha":865,"x_min":0,"x_max":0,"o":"m 109 167 b 126 151 115 167 121 161 b 536 -43 189 10 326 -43 b 908 131 715 -43 908 12 b 819 221 908 176 871 221 b 734 147 778 221 734 183 b 745 114 734 134 745 124 b 539 81 745 81 579 81 b 277 179 447 81 282 120 b 302 193 277 184 278 187 b 663 278 384 212 630 267 b 717 339 703 289 717 313 b 715 351 717 344 715 347 b 673 400 711 379 699 400 b 248 310 623 400 312 310 b 227 379 229 310 227 349 l 227 407 b 245 429 227 420 233 427 b 796 530 431 454 618 478 b 847 587 832 542 847 564 b 806 653 847 615 844 653 b 782 650 799 653 791 652 b 237 551 606 606 281 551 b 172 570 220 551 210 570 b 64 475 79 570 64 510 b 87 407 64 437 85 425 b 92 302 90 363 92 332 b 75 282 92 292 85 287 b 28 221 43 268 28 245 b 75 163 28 186 50 163 b 109 167 83 163 103 167 z m 243 922 b 468 692 243 882 368 860 b 506 675 475 679 489 675 b 570 714 536 675 570 692 b 322 986 570 788 427 986 b 243 922 290 986 243 945 z "},"":{"ha":865,"x_min":0,"x_max":0,"o":"m 109 167 b 126 151 115 167 121 161 b 536 -43 189 10 326 -43 b 908 131 715 -43 908 12 b 819 221 908 176 871 221 b 734 147 778 221 734 183 b 745 114 734 134 745 124 b 539 81 745 81 579 81 b 277 179 447 81 282 120 b 302 193 277 184 278 187 b 663 278 384 212 630 267 b 717 339 703 289 717 313 b 715 351 717 344 715 347 b 673 400 711 379 699 400 b 248 310 623 400 312 310 b 227 379 229 310 227 349 l 227 407 b 245 429 227 420 233 427 b 796 530 431 454 618 478 b 847 587 832 542 847 564 b 806 653 847 615 844 653 b 782 650 799 653 791 652 b 237 551 606 606 281 551 b 172 570 220 551 210 570 b 64 475 79 570 64 510 b 87 407 64 437 85 425 b 92 302 90 363 92 332 b 75 282 92 292 85 287 b 28 221 43 268 28 245 b 75 163 28 186 50 163 b 109 167 83 163 103 167 z m 642 922 b 562 986 642 945 595 986 b 315 714 458 986 315 788 b 379 675 315 692 349 675 b 416 692 395 675 409 679 b 642 922 517 860 642 882 z "},"":{"ha":865,"x_min":0,"x_max":0,"o":"m 109 167 b 126 151 115 167 121 161 b 536 -43 189 10 326 -43 b 908 131 715 -43 908 12 b 819 221 908 176 871 221 b 734 147 778 221 734 183 b 745 114 734 134 745 124 b 539 81 745 81 579 81 b 277 179 447 81 282 120 b 302 193 277 184 278 187 b 663 278 384 212 630 267 b 717 339 703 289 717 313 b 715 351 717 344 715 347 b 673 400 711 379 699 400 b 248 310 623 400 312 310 b 227 379 229 310 227 349 l 227 407 b 245 429 227 420 233 427 b 796 530 431 454 618 478 b 847 587 832 542 847 564 b 806 653 847 615 844 653 b 782 650 799 653 791 652 b 237 551 606 606 281 551 b 172 570 220 551 210 570 b 64 475 79 570 64 510 b 87 407 64 437 85 425 b 92 302 90 363 92 332 b 75 282 92 292 85 287 b 28 221 43 268 28 245 b 75 163 28 186 50 163 b 109 167 83 163 103 167 z m 329 734 b 414 802 353 764 385 802 b 586 699 463 802 549 699 b 656 762 611 699 656 732 b 415 924 656 814 490 924 b 227 757 363 924 227 800 b 283 709 227 734 254 709 b 329 734 300 709 315 718 z "},"":{"ha":865,"x_min":0,"x_max":0,"o":"m 109 167 b 126 151 115 167 121 161 b 536 -43 189 10 326 -43 b 908 131 715 -43 908 12 b 819 221 908 176 871 221 b 734 147 778 221 734 183 b 745 114 734 134 745 124 b 539 81 745 81 579 81 b 277 179 447 81 282 120 b 302 193 277 184 278 187 b 663 278 384 212 630 267 b 717 339 703 289 717 313 b 715 351 717 344 715 347 b 673 400 711 379 699 400 b 248 310 623 400 312 310 b 227 379 229 310 227 349 l 227 407 b 245 429 227 420 233 427 b 796 530 431 454 618 478 b 847 587 832 542 847 564 b 806 653 847 615 844 653 b 782 650 799 653 791 652 b 237 551 606 606 281 551 b 172 570 220 551 210 570 b 64 475 79 570 64 510 b 87 407 64 437 85 425 b 92 302 90 363 92 332 b 75 282 92 292 85 287 b 28 221 43 268 28 245 b 75 163 28 186 50 163 b 109 167 83 163 103 167 z m 347 742 b 427 804 396 742 427 766 b 336 884 427 846 383 884 b 253 820 286 884 253 858 b 347 742 253 774 295 742 z m 583 742 b 663 804 632 742 663 766 b 572 884 663 846 619 884 b 489 820 522 884 489 858 b 583 742 489 774 531 742 z "},"":{"ha":334,"x_min":0,"x_max":0,"o":"m 69 633 b 115 28 69 581 115 340 b 160 -11 115 3 132 -11 b 254 57 222 -11 254 12 b 214 650 254 224 244 410 b 149 692 209 679 191 692 b 69 633 104 692 69 665 z m -71 980 b 153 749 -71 939 53 918 b 191 733 161 736 174 733 b 255 772 221 733 255 750 b 7 1044 255 846 112 1044 b -71 980 -24 1044 -71 1002 z "},"":{"ha":334,"x_min":0,"x_max":0,"o":"m 69 633 b 115 28 69 581 115 340 b 160 -11 115 3 132 -11 b 254 57 222 -11 254 12 b 214 650 254 224 244 410 b 149 692 209 679 191 692 b 69 633 104 692 69 665 z m 327 972 b 248 1036 327 995 280 1036 b 1 764 144 1036 1 838 b 64 726 1 743 35 726 b 102 742 81 726 94 729 b 327 972 202 910 327 932 z "},"":{"ha":334,"x_min":0,"x_max":0,"o":"m 69 633 b 115 28 69 581 115 340 b 160 -11 115 3 132 -11 b 254 57 222 -11 254 12 b 214 650 254 224 244 410 b 149 692 209 679 191 692 b 69 633 104 692 69 665 z m 52 833 b 136 900 75 862 108 900 b 309 797 185 900 271 797 b 378 861 334 797 378 831 b 138 1022 378 912 213 1022 b -51 855 86 1022 -51 899 b 6 807 -51 833 -23 807 b 52 833 22 807 38 817 z "},"":{"ha":334,"x_min":0,"x_max":0,"o":"m 69 633 b 115 28 69 581 115 340 b 160 -11 115 3 132 -11 b 254 57 222 -11 254 12 b 214 650 254 224 244 410 b 149 692 209 679 191 692 b 69 633 104 692 69 665 z m 33 789 b 112 851 81 789 112 812 b 22 930 112 893 68 930 b -62 867 -29 930 -62 905 b 33 789 -62 821 -20 789 z m 269 789 b 348 851 317 789 348 812 b 258 930 348 893 304 930 b 174 867 207 930 174 905 b 269 789 174 821 216 789 z "},"":{"ha":905,"x_min":0,"x_max":0,"o":"m 68 240 b 136 245 81 240 106 242 b 143 132 141 205 143 167 b 118 75 143 114 118 99 b 160 24 118 49 132 31 b 471 -31 281 -14 378 -31 b 908 235 703 -31 908 94 b 196 659 908 444 549 659 b -24 637 109 659 39 652 b -77 568 -59 628 -77 605 b -35 515 -77 531 -65 517 b -9 518 -29 515 -21 516 b 62 528 26 524 47 528 b 119 361 79 528 103 454 b 25 302 51 353 25 337 b 68 240 25 262 43 240 z m 252 529 b 761 243 541 498 761 376 b 493 90 761 163 634 90 b 283 142 386 90 286 115 l 272 262 b 326 269 296 266 315 267 b 404 317 378 275 404 292 b 351 385 404 368 385 385 b 258 376 332 385 296 381 b 240 478 252 416 246 448 b 232 515 235 502 232 511 b 252 529 232 524 239 529 z "},"":{"ha":907,"x_min":0,"x_max":0,"o":"m 211 339 b 231 368 211 357 218 368 b 254 355 238 368 245 364 b 708 45 380 235 568 45 b 842 269 825 45 842 123 b 724 703 842 387 814 703 b 633 637 696 703 633 679 b 643 604 633 625 638 615 b 708 277 684 503 708 348 b 677 207 708 228 703 207 b 511 317 625 207 555 279 b 147 623 365 441 226 623 b 68 522 79 623 68 576 b 90 71 68 429 77 199 b 144 22 93 37 119 22 b 229 97 196 22 229 53 b 211 339 229 177 211 262 z m 211 827 b 296 836 233 827 262 836 b 475 817 336 836 419 817 b 644 892 554 817 644 849 b 589 960 644 943 631 960 b 463 929 562 960 514 931 b 282 950 399 926 326 950 b 167 886 201 950 167 928 b 211 827 167 848 183 827 z "},"":{"ha":836,"x_min":0,"x_max":0,"o":"m 376 -85 b 807 310 618 -85 807 87 b 428 632 807 509 661 632 b 49 479 239 632 49 555 b 71 422 49 454 71 440 b 65 404 71 419 68 413 b 39 256 49 361 39 310 b 376 -85 39 56 179 -85 z m 671 283 b 406 39 671 140 561 39 b 175 283 270 39 175 139 b 400 509 175 433 251 509 b 671 283 571 509 671 425 z m 243 920 b 467 689 243 879 367 857 b 505 673 475 676 488 673 b 569 711 535 673 569 690 b 321 983 569 785 426 983 b 243 920 290 983 243 942 z "},"":{"ha":836,"x_min":0,"x_max":0,"o":"m 376 -85 b 807 310 618 -85 807 87 b 428 632 807 509 661 632 b 49 479 239 632 49 555 b 71 422 49 454 71 440 b 65 404 71 419 68 413 b 39 256 49 361 39 310 b 376 -85 39 56 179 -85 z m 671 283 b 406 39 671 140 561 39 b 175 283 270 39 175 139 b 400 509 175 433 251 509 b 671 283 571 509 671 425 z m 602 917 b 522 981 602 939 555 981 b 275 709 418 981 275 783 b 339 670 275 687 309 670 b 376 686 355 670 369 673 b 602 917 477 854 602 876 z "},"":{"ha":836,"x_min":0,"x_max":0,"o":"m 376 -85 b 807 310 618 -85 807 87 b 428 632 807 509 661 632 b 49 479 239 632 49 555 b 71 422 49 454 71 440 b 65 404 71 419 68 413 b 39 256 49 361 39 310 b 376 -85 39 56 179 -85 z m 671 283 b 406 39 671 140 561 39 b 175 283 270 39 175 139 b 400 509 175 433 251 509 b 671 283 571 509 671 425 z m 338 737 b 422 804 361 766 394 804 b 595 701 471 804 557 701 b 665 765 620 701 665 735 b 424 926 665 817 499 926 b 235 760 372 926 235 803 b 292 711 235 737 263 711 b 338 737 309 711 324 721 z "},"":{"ha":836,"x_min":0,"x_max":0,"o":"m 376 -85 b 807 310 618 -85 807 87 b 428 632 807 509 661 632 b 49 479 239 632 49 555 b 71 422 49 454 71 440 b 65 404 71 419 68 413 b 39 256 49 361 39 310 b 376 -85 39 56 179 -85 z m 671 283 b 406 39 671 140 561 39 b 175 283 270 39 175 139 b 400 509 175 433 251 509 b 671 283 571 509 671 425 z m 243 752 b 328 762 265 752 294 762 b 507 742 368 762 451 742 b 676 817 586 742 676 774 b 621 885 676 869 663 885 b 494 854 594 885 546 857 b 314 876 431 851 357 876 b 199 812 233 876 199 853 b 243 752 199 774 215 752 z "},"":{"ha":836,"x_min":0,"x_max":0,"o":"m 376 -85 b 807 310 618 -85 807 87 b 428 632 807 509 661 632 b 49 479 239 632 49 555 b 71 422 49 454 71 440 b 65 404 71 419 68 413 b 39 256 49 361 39 310 b 376 -85 39 56 179 -85 z m 671 283 b 406 39 671 140 561 39 b 175 283 270 39 175 139 b 400 509 175 433 251 509 b 671 283 571 509 671 425 z m 323 724 b 403 786 372 724 403 747 b 313 865 403 828 359 865 b 229 802 262 865 229 840 b 323 724 229 756 271 724 z m 559 724 b 639 786 608 724 639 747 b 549 865 639 828 595 865 b 465 802 498 865 465 840 b 559 724 465 756 507 724 z "},"":{"ha":671,"x_min":0,"x_max":0,"o":"m 207 102 b 339 228 245 140 322 228 b 490 104 371 228 453 104 b 559 195 515 104 559 165 b 444 345 559 236 444 315 b 595 542 444 389 595 496 b 528 615 595 574 551 615 b 343 443 489 615 379 443 b 168 578 307 443 203 578 b 94 488 134 578 94 496 b 237 326 94 447 237 359 b 114 165 237 287 114 205 b 175 85 114 125 161 85 b 207 102 185 85 196 90 z "},"":{"ha":836,"x_min":0,"x_max":0,"o":"m 368 741 l 362 629 b 49 479 197 614 49 547 b 71 422 49 454 71 440 b 65 404 71 419 68 413 b 39 256 49 361 39 310 b 325 -81 39 73 155 -59 l 319 -183 b 354 -228 319 -211 330 -228 l 390 -225 b 433 -178 418 -221 432 -205 l 438 -81 b 807 310 650 -54 807 107 b 475 630 807 494 681 614 l 482 754 b 446 790 482 777 469 790 l 411 787 b 368 741 384 783 370 768 z m 671 283 b 445 41 671 152 579 56 l 469 504 b 671 283 597 484 671 405 z m 175 283 b 356 506 175 417 236 492 l 332 50 b 175 283 237 79 175 167 z "},"":{"ha":802,"x_min":0,"x_max":0,"o":"m 64 558 b 40 326 51 488 40 406 b 401 -72 40 98 170 -72 b 757 271 615 -72 757 66 b 627 665 757 418 695 544 b 585 696 615 686 602 696 b 550 684 574 696 562 692 l 522 665 b 494 621 504 653 494 638 b 504 587 494 610 498 600 b 615 257 563 480 615 373 b 439 53 615 141 555 53 b 182 359 233 53 182 191 b 199 547 182 425 189 488 b 200 559 199 552 200 555 b 150 606 200 589 182 606 b 64 558 91 606 69 590 z m 102 905 b 326 675 102 865 226 843 b 364 659 334 662 347 659 b 428 697 394 659 428 675 b 180 969 428 771 285 969 b 102 905 149 969 102 928 z "},"":{"ha":802,"x_min":0,"x_max":0,"o":"m 64 558 b 40 326 51 488 40 406 b 401 -72 40 98 170 -72 b 757 271 615 -72 757 66 b 627 665 757 418 695 544 b 585 696 615 686 602 696 b 550 684 574 696 562 692 l 522 665 b 494 621 504 653 494 638 b 504 587 494 610 498 600 b 615 257 563 480 615 373 b 439 53 615 141 555 53 b 182 359 233 53 182 191 b 199 547 182 425 189 488 b 200 559 199 552 200 555 b 150 606 200 589 182 606 b 64 558 91 606 69 590 z m 547 926 b 468 990 547 949 500 990 b 221 718 364 990 221 792 b 285 680 221 696 255 680 b 322 696 301 680 315 683 b 547 926 422 864 547 886 z "},"":{"ha":802,"x_min":0,"x_max":0,"o":"m 64 558 b 40 326 51 488 40 406 b 401 -72 40 98 170 -72 b 757 271 615 -72 757 66 b 627 665 757 418 695 544 b 585 696 615 686 602 696 b 550 684 574 696 562 692 l 522 665 b 494 621 504 653 494 638 b 504 587 494 610 498 600 b 615 257 563 480 615 373 b 439 53 615 141 555 53 b 182 359 233 53 182 191 b 199 547 182 425 189 488 b 200 559 199 552 200 555 b 150 606 200 589 182 606 b 64 558 91 606 69 590 z m 241 801 b 326 868 265 830 298 868 b 498 765 375 868 461 765 b 568 829 524 765 568 799 b 328 990 568 880 403 990 b 139 823 276 990 139 867 b 196 775 139 801 167 775 b 241 801 212 775 228 785 z "},"":{"ha":802,"x_min":0,"x_max":0,"o":"m 64 558 b 40 326 51 488 40 406 b 401 -72 40 98 170 -72 b 757 271 615 -72 757 66 b 627 665 757 418 695 544 b 585 696 615 686 602 696 b 550 684 574 696 562 692 l 522 665 b 494 621 504 653 494 638 b 504 587 494 610 498 600 b 615 257 563 480 615 373 b 439 53 615 141 555 53 b 182 359 233 53 182 191 b 199 547 182 425 189 488 b 200 559 199 552 200 555 b 150 606 200 589 182 606 b 64 558 91 606 69 590 z m 222 757 b 301 819 271 757 301 781 b 211 899 301 861 258 899 b 127 835 160 899 127 873 b 222 757 127 789 170 757 z m 458 757 b 537 819 507 757 537 781 b 447 899 537 861 494 899 b 363 835 396 899 363 873 b 458 757 363 789 406 757 z "},"":{"ha":644,"x_min":0,"x_max":0,"o":"m -83 581 b 334 204 68 467 206 345 b 347 174 342 194 347 184 b 345 158 347 168 347 164 b 261 -161 318 52 290 -54 b 258 -182 258 -169 258 -176 b 298 -229 258 -205 271 -222 l 321 -236 b 343 -240 329 -239 336 -240 b 390 -199 367 -240 382 -227 b 587 572 463 65 526 347 b 591 595 590 581 591 588 b 558 644 591 616 581 632 l 534 657 b 504 667 524 665 513 667 b 463 627 483 667 469 653 l 403 389 b 380 364 400 372 393 364 b 358 376 374 364 367 368 b 5 690 249 496 132 595 b -31 704 -7 701 -20 704 b -72 682 -46 704 -60 696 l -92 660 b -107 623 -103 647 -107 635 b -83 581 -107 606 -99 592 z m 508 935 b 429 998 508 957 461 998 b 182 726 325 998 182 800 b 245 688 182 705 216 688 b 283 704 262 688 275 691 b 508 935 383 872 508 894 z "},"":{"ha":710,"x_min":0,"x_max":0,"o":"m 127 -83 b 174 -134 127 -115 144 -134 b 265 -65 231 -134 265 -109 l 264 4 b 292 47 264 26 268 43 b 625 306 443 69 625 140 b 338 504 625 408 508 504 b 241 497 306 504 272 497 b 208 526 223 497 211 507 l 196 633 b 153 676 193 661 175 676 b 100 663 146 676 138 675 b 57 607 71 652 57 634 b 127 -83 57 566 127 138 z m 311 379 b 488 288 374 379 488 358 b 279 167 488 211 335 167 b 245 199 257 167 248 178 l 232 339 b 311 379 232 376 254 379 z "},"":{"ha":844,"x_min":0,"x_max":0,"o":"m 281 -221 b 241 529 259 40 241 314 b 350 777 241 599 241 777 b 443 659 404 777 443 715 b 366 497 443 602 407 543 b 346 457 353 483 346 470 b 370 419 346 444 354 431 b 416 397 392 401 404 397 b 457 408 428 397 441 401 b 518 422 473 416 494 422 b 661 256 614 422 661 338 b 551 114 661 183 624 114 b 458 147 521 114 490 125 b 418 164 444 159 430 164 b 379 142 405 164 392 157 l 358 118 b 342 79 347 105 342 92 b 366 39 342 64 349 50 b 518 -9 410 9 464 -9 b 800 283 701 -9 800 143 b 568 539 800 397 701 539 l 547 539 b 532 549 534 539 532 541 b 541 568 532 553 534 559 b 579 693 570 614 579 654 b 375 899 579 822 481 899 b 103 486 161 899 103 682 b 109 313 103 427 106 369 b 142 -241 116 126 126 -56 b 189 -290 144 -274 160 -290 b 204 -289 194 -290 199 -291 l 233 -283 b 281 -221 268 -276 283 -256 z "},"":{"ha":771,"x_min":0,"x_max":0,"o":"m 482 593 b 21 142 290 593 21 329 b 171 -3 21 53 79 -3 b 464 167 269 -3 374 54 b 478 175 468 172 473 175 b 489 161 483 175 486 170 b 639 -11 511 48 568 -11 b 806 96 720 -11 806 45 b 766 142 806 121 787 142 b 684 123 743 142 721 123 b 591 310 630 123 595 180 l 589 364 b 591 365 589 364 591 364 b 596 366 593 365 594 366 b 673 437 636 366 673 399 b 482 593 673 529 582 593 z m 460 358 b 207 122 372 201 281 122 b 160 171 178 122 160 140 b 457 471 160 275 355 471 b 522 427 489 471 505 450 b 526 415 525 422 526 418 b 511 406 526 410 522 407 b 460 358 486 401 476 389 z m 250 883 b 475 652 250 842 374 821 b 513 636 482 640 496 636 b 576 675 543 636 576 653 b 329 947 576 749 433 947 b 250 883 297 947 250 905 z "},"":{"ha":771,"x_min":0,"x_max":0,"o":"m 482 593 b 21 142 290 593 21 329 b 171 -3 21 53 79 -3 b 464 167 269 -3 374 54 b 478 175 468 172 473 175 b 489 161 483 175 486 170 b 639 -11 511 48 568 -11 b 806 96 720 -11 806 45 b 766 142 806 121 787 142 b 684 123 743 142 721 123 b 591 310 630 123 595 180 l 589 364 b 591 365 589 364 591 364 b 596 366 593 365 594 366 b 673 437 636 366 673 399 b 482 593 673 529 582 593 z m 460 358 b 207 122 372 201 281 122 b 160 171 178 122 160 140 b 457 471 160 275 355 471 b 522 427 489 471 505 450 b 526 415 525 422 526 418 b 511 406 526 410 522 407 b 460 358 486 401 476 389 z m 606 890 b 526 954 606 913 559 954 b 279 682 422 954 279 756 b 343 644 279 661 313 644 b 380 660 359 644 373 647 b 606 890 481 828 606 850 z "},"":{"ha":771,"x_min":0,"x_max":0,"o":"m 482 593 b 21 142 290 593 21 329 b 171 -3 21 53 79 -3 b 464 167 269 -3 374 54 b 478 175 468 172 473 175 b 489 161 483 175 486 170 b 639 -11 511 48 568 -11 b 806 96 720 -11 806 45 b 766 142 806 121 787 142 b 684 123 743 142 721 123 b 591 310 630 123 595 180 l 589 364 b 591 365 589 364 591 364 b 596 366 593 365 594 366 b 673 437 636 366 673 399 b 482 593 673 529 582 593 z m 460 358 b 207 122 372 201 281 122 b 160 171 178 122 160 140 b 457 471 160 275 355 471 b 522 427 489 471 505 450 b 526 415 525 422 526 418 b 511 406 526 410 522 407 b 460 358 486 401 476 389 z m 346 687 b 431 754 370 716 402 754 b 603 651 479 754 566 651 b 673 715 628 651 673 685 b 432 876 673 766 507 876 b 243 709 380 876 243 753 b 300 661 243 687 271 661 b 346 687 317 661 332 671 z "},"":{"ha":771,"x_min":0,"x_max":0,"o":"m 482 593 b 21 142 290 593 21 329 b 171 -3 21 53 79 -3 b 464 167 269 -3 374 54 b 478 175 468 172 473 175 b 489 161 483 175 486 170 b 639 -11 511 48 568 -11 b 806 96 720 -11 806 45 b 766 142 806 121 787 142 b 684 123 743 142 721 123 b 591 310 630 123 595 180 l 589 364 b 591 365 589 364 591 364 b 596 366 593 365 594 366 b 673 437 636 366 673 399 b 482 593 673 529 582 593 z m 460 358 b 207 122 372 201 281 122 b 160 171 178 122 160 140 b 457 471 160 275 355 471 b 522 427 489 471 505 450 b 526 415 525 422 526 418 b 511 406 526 410 522 407 b 460 358 486 401 476 389 z m 260 732 b 345 741 283 732 312 741 b 525 722 385 741 469 722 b 694 797 604 722 694 754 b 639 865 694 848 680 865 b 512 834 612 865 564 836 b 332 855 448 831 375 855 b 216 791 250 855 216 833 b 260 732 216 753 233 732 z "},"":{"ha":771,"x_min":0,"x_max":0,"o":"m 482 593 b 21 142 290 593 21 329 b 171 -3 21 53 79 -3 b 464 167 269 -3 374 54 b 478 175 468 172 473 175 b 489 161 483 175 486 170 b 639 -11 511 48 568 -11 b 806 96 720 -11 806 45 b 766 142 806 121 787 142 b 684 123 743 142 721 123 b 591 310 630 123 595 180 l 589 364 b 591 365 589 364 591 364 b 596 366 593 365 594 366 b 673 437 636 366 673 399 b 482 593 673 529 582 593 z m 460 358 b 207 122 372 201 281 122 b 160 171 178 122 160 140 b 457 471 160 275 355 471 b 522 427 489 471 505 450 b 526 415 525 422 526 418 b 511 406 526 410 522 407 b 460 358 486 401 476 389 z m 321 693 b 400 755 370 693 400 717 b 310 835 400 798 357 835 b 227 771 259 835 227 809 b 321 693 227 726 269 693 z m 557 693 b 636 755 606 693 636 717 b 546 835 636 798 593 835 b 463 771 495 835 463 809 b 557 693 463 726 505 693 z "},"":{"ha":771,"x_min":0,"x_max":0,"o":"m 482 593 b 21 142 290 593 21 329 b 171 -3 21 53 79 -3 b 464 167 269 -3 374 54 b 478 175 468 172 473 175 b 489 161 483 175 486 170 b 639 -11 511 48 568 -11 b 806 96 720 -11 806 45 b 766 142 806 121 787 142 b 684 123 743 142 721 123 b 591 310 630 123 595 180 l 589 364 b 591 365 589 364 591 364 b 596 366 593 365 594 366 b 673 437 636 366 673 399 b 482 593 673 529 582 593 z m 460 358 b 207 122 372 201 281 122 b 160 171 178 122 160 140 b 457 471 160 275 355 471 b 522 427 489 471 505 450 b 526 415 525 422 526 418 b 511 406 526 410 522 407 b 460 358 486 401 476 389 z m 247 828 l 245 800 b 420 644 245 713 320 644 b 611 811 525 644 611 721 b 427 977 611 903 530 977 b 214 871 375 977 214 933 b 247 828 214 846 234 828 z m 429 732 b 340 821 378 732 340 771 b 418 886 340 866 368 886 b 518 803 475 886 518 850 b 429 732 518 760 468 732 z "},"":{"ha":1071,"x_min":0,"x_max":0,"o":"m 987 191 b 766 111 925 142 848 111 b 602 197 703 111 602 146 b 636 222 602 210 615 220 b 1018 379 932 237 1018 281 b 786 570 1018 502 895 570 b 590 496 718 570 649 547 b 567 485 582 488 574 485 b 545 501 559 485 551 490 b 361 599 498 571 432 599 b 106 490 265 599 178 555 b 86 453 93 478 86 466 b 113 411 86 439 95 425 l 118 407 b 154 393 130 398 142 393 b 322 475 194 393 239 475 b 458 366 401 475 458 431 b 425 338 458 349 444 340 b 57 131 253 327 57 291 b 248 -31 57 29 149 -31 b 478 71 335 -31 415 3 b 500 85 486 80 492 85 b 525 71 508 85 516 80 b 742 -14 578 12 652 -14 b 1064 102 865 -14 983 34 b 1084 140 1078 114 1084 127 b 1026 207 1084 159 1060 207 b 987 191 1015 207 1002 201 z m 283 94 b 197 149 245 94 197 108 b 395 212 197 184 294 212 b 427 189 414 212 427 203 b 283 94 427 143 332 94 z m 836 370 b 631 345 760 355 658 345 b 611 359 615 345 611 349 b 768 444 611 403 697 444 b 861 395 814 444 861 424 b 836 370 861 380 853 372 z "},"":{"ha":472,"x_min":0,"x_max":0,"o":"m 296 559 b 29 248 142 559 29 428 b 216 -26 29 105 104 0 b 205 -98 208 -54 205 -77 b 269 -175 205 -132 218 -148 b 302 -211 288 -185 302 -198 b 264 -237 302 -229 290 -237 b 178 -196 226 -237 194 -196 b 106 -265 162 -196 106 -233 b 242 -347 106 -305 188 -347 b 422 -197 349 -347 422 -262 b 357 -93 422 -161 404 -121 b 324 -57 336 -80 324 -71 b 332 -26 324 -50 329 -39 b 511 100 423 -7 511 50 b 465 154 511 124 486 154 b 310 89 425 154 395 89 b 171 283 220 89 171 157 b 275 437 171 372 210 437 b 407 361 342 437 366 361 b 479 437 444 361 479 397 b 296 559 479 500 390 559 z "},"":{"ha":717,"x_min":0,"x_max":0,"o":"m 633 149 b 400 65 567 96 478 65 b 241 155 318 65 241 109 b 272 180 241 171 254 180 l 507 204 b 664 338 604 213 664 264 b 424 528 664 444 557 528 b 115 318 295 528 172 443 b 75 292 108 300 94 292 l 65 292 b 21 245 37 292 26 278 l 20 232 b 18 220 19 230 18 226 b 71 172 18 189 37 172 b 98 142 86 172 90 167 b 387 -56 127 21 240 -56 b 710 60 504 -56 623 -12 b 730 98 724 72 730 85 b 711 143 730 111 725 122 b 672 165 697 159 686 165 b 633 149 659 165 646 160 z m 482 323 b 269 297 419 313 300 297 b 250 313 256 297 250 302 b 414 403 250 354 339 403 b 507 353 465 403 507 379 b 482 323 507 337 496 326 z m 184 814 b 408 584 184 774 308 752 b 446 568 416 571 429 568 b 510 606 476 568 510 585 b 262 878 510 680 367 878 b 184 814 231 878 184 837 z "},"":{"ha":717,"x_min":0,"x_max":0,"o":"m 633 149 b 400 65 567 96 478 65 b 241 155 318 65 241 109 b 272 180 241 171 254 180 l 507 204 b 664 338 604 213 664 264 b 424 528 664 444 557 528 b 115 318 295 528 172 443 b 75 292 108 300 94 292 l 65 292 b 21 245 37 292 26 278 l 20 232 b 18 220 19 230 18 226 b 71 172 18 189 37 172 b 98 142 86 172 90 167 b 387 -56 127 21 240 -56 b 710 60 504 -56 623 -12 b 730 98 724 72 730 85 b 711 143 730 111 725 122 b 672 165 697 159 686 165 b 633 149 659 165 646 160 z m 482 323 b 269 297 419 313 300 297 b 250 313 256 297 250 302 b 414 403 250 354 339 403 b 507 353 465 403 507 379 b 482 323 507 337 496 326 z m 582 814 b 503 878 582 837 535 878 b 256 606 399 878 256 680 b 319 568 256 585 290 568 b 357 584 336 568 349 571 b 582 814 457 752 582 774 z "},"":{"ha":717,"x_min":0,"x_max":0,"o":"m 633 149 b 400 65 567 96 478 65 b 241 155 318 65 241 109 b 272 180 241 171 254 180 l 507 204 b 664 338 604 213 664 264 b 424 528 664 444 557 528 b 115 318 295 528 172 443 b 75 292 108 300 94 292 l 65 292 b 21 245 37 292 26 278 l 20 232 b 18 220 19 230 18 226 b 71 172 18 189 37 172 b 98 142 86 172 90 167 b 387 -56 127 21 240 -56 b 710 60 504 -56 623 -12 b 730 98 724 72 730 85 b 711 143 730 111 725 122 b 672 165 697 159 686 165 b 633 149 659 165 646 160 z m 482 323 b 269 297 419 313 300 297 b 250 313 256 297 250 302 b 414 403 250 354 339 403 b 507 353 465 403 507 379 b 482 323 507 337 496 326 z m 304 624 b 389 691 328 653 361 691 b 562 588 438 691 524 588 b 631 652 587 588 631 622 b 391 813 631 703 466 813 b 202 646 339 813 202 690 b 259 598 202 624 230 598 b 304 624 275 598 291 608 z "},"":{"ha":717,"x_min":0,"x_max":0,"o":"m 633 149 b 400 65 567 96 478 65 b 241 155 318 65 241 109 b 272 180 241 171 254 180 l 507 204 b 664 338 604 213 664 264 b 424 528 664 444 557 528 b 115 318 295 528 172 443 b 75 292 108 300 94 292 l 65 292 b 21 245 37 292 26 278 l 20 232 b 18 220 19 230 18 226 b 71 172 18 189 37 172 b 98 142 86 172 90 167 b 387 -56 127 21 240 -56 b 710 60 504 -56 623 -12 b 730 98 724 72 730 85 b 711 143 730 111 725 122 b 672 165 697 159 686 165 b 633 149 659 165 646 160 z m 482 323 b 269 297 419 313 300 297 b 250 313 256 297 250 302 b 414 403 250 354 339 403 b 507 353 465 403 507 379 b 482 323 507 337 496 326 z m 288 634 b 367 696 336 634 367 658 b 277 776 367 739 323 776 b 193 712 226 776 193 750 b 288 634 193 667 235 634 z m 524 634 b 603 696 572 634 603 658 b 513 776 603 739 559 776 b 429 712 462 776 429 750 b 524 634 429 667 471 634 z "},"":{"ha":301,"x_min":0,"x_max":0,"o":"m 62 457 b 90 -28 79 294 90 136 b 135 -66 90 -56 110 -66 b 229 1 175 -66 229 -36 b 201 484 229 164 217 323 b 150 511 198 504 166 511 b 62 457 106 511 62 489 z m -83 746 b 216 627 -67 709 56 740 b 257 628 227 618 241 621 b 299 690 284 640 308 669 b -38 836 269 757 58 879 b -83 746 -67 823 -93 766 z "},"":{"ha":301,"x_min":0,"x_max":0,"o":"m 62 457 b 90 -28 79 294 90 136 b 135 -66 90 -56 110 -66 b 229 1 175 -66 229 -36 b 201 484 229 164 217 323 b 150 511 198 504 166 511 b 62 457 106 511 62 489 z m 360 848 b 281 912 360 871 313 912 b 34 640 177 912 34 714 b 98 602 34 618 68 602 b 135 618 114 602 127 605 b 360 848 235 786 360 808 z "},"":{"ha":301,"x_min":0,"x_max":0,"o":"m 62 457 b 90 -28 79 294 90 136 b 135 -66 90 -56 110 -66 b 229 1 175 -66 229 -36 b 201 484 229 164 217 323 b 150 511 198 504 166 511 b 62 457 106 511 62 489 z m 52 670 b 136 737 75 699 108 737 b 309 634 185 737 271 634 b 378 698 334 634 378 668 b 138 859 378 749 213 859 b -51 692 86 859 -51 736 b 6 644 -51 670 -23 644 b 52 670 22 644 38 654 z "},"":{"ha":301,"x_min":0,"x_max":0,"o":"m 62 457 b 90 -28 79 294 90 136 b 135 -66 90 -56 110 -66 b 229 1 175 -66 229 -36 b 201 484 229 164 217 323 b 150 511 198 504 166 511 b 62 457 106 511 62 489 z m 33 626 b 112 688 81 626 112 650 b 22 768 112 730 68 768 b -62 704 -29 768 -62 742 b 33 626 -62 659 -20 626 z m 269 626 b 348 688 317 626 348 650 b 258 768 348 730 304 768 b 174 704 207 768 174 742 b 269 626 174 659 216 626 z "},"":{"ha":704,"x_min":0,"x_max":0,"o":"m 479 389 b 494 392 485 391 490 392 b 509 383 503 392 507 389 b 515 332 513 367 515 349 b 494 278 515 293 509 278 b 453 289 481 278 471 283 b 293 310 420 298 359 310 b 29 136 166 310 29 257 b 248 -43 29 20 136 -43 b 653 315 450 -43 653 111 b 633 429 653 382 633 416 b 644 440 633 434 637 437 b 693 489 677 453 693 469 b 642 554 693 536 665 554 b 581 542 619 554 595 542 b 564 550 575 542 570 543 b 334 660 509 615 429 660 b 143 591 250 660 184 635 b 129 559 134 581 129 570 b 160 515 129 541 142 526 b 210 493 191 496 199 493 b 349 539 242 493 265 539 b 431 501 389 539 431 512 b 416 492 431 496 428 494 b 321 425 344 470 321 453 b 370 359 321 384 349 359 b 479 389 392 359 445 380 z m 171 123 b 319 192 171 185 288 192 b 429 165 403 192 429 179 b 244 81 429 125 301 81 b 171 123 215 81 171 90 z "},"":{"ha":660,"x_min":0,"x_max":0,"o":"m 68 547 b 109 46 68 513 92 422 b 160 8 111 22 127 8 b 248 68 209 8 243 32 b 363 449 280 334 317 449 b 509 20 410 449 456 294 b 566 -9 513 -3 528 -9 b 646 50 604 -9 646 9 b 643 75 646 58 645 65 b 383 599 569 465 499 599 b 240 456 321 599 273 551 b 228 435 236 441 232 435 b 216 463 222 435 220 444 b 168 603 205 580 195 603 b 68 547 119 603 68 574 z m 170 754 b 255 764 193 754 222 764 b 435 744 295 764 378 744 b 604 819 513 744 604 777 b 549 887 604 871 590 887 b 422 857 522 887 473 859 b 241 878 358 853 285 878 b 126 814 160 878 126 855 b 170 754 126 776 142 754 z "},"":{"ha":721,"x_min":0,"x_max":0,"o":"m 65 225 b 364 -62 65 60 192 -62 b 689 245 541 -62 689 79 b 375 553 689 416 549 553 b 40 425 273 553 147 505 b 7 366 18 408 7 387 b 71 282 7 307 71 312 b 65 225 71 260 65 241 z m 379 60 b 203 265 278 60 203 148 b 358 424 203 373 258 424 b 553 231 469 424 553 339 b 379 60 553 123 454 60 z m 167 839 b 391 608 167 798 291 777 b 429 592 399 595 412 592 b 493 631 459 592 493 609 b 245 903 493 705 350 903 b 167 839 214 903 167 861 z "},"":{"ha":721,"x_min":0,"x_max":0,"o":"m 65 225 b 364 -62 65 60 192 -62 b 689 245 541 -62 689 79 b 375 553 689 416 549 553 b 40 425 273 553 147 505 b 7 366 18 408 7 387 b 71 282 7 307 71 312 b 65 225 71 260 65 241 z m 379 60 b 203 265 278 60 203 148 b 358 424 203 373 258 424 b 553 231 469 424 553 339 b 379 60 553 123 454 60 z m 547 840 b 467 903 547 862 500 903 b 220 631 363 903 220 705 b 284 593 220 610 254 593 b 321 609 300 593 314 596 b 547 840 422 777 547 799 z "},"":{"ha":721,"x_min":0,"x_max":0,"o":"m 65 225 b 364 -62 65 60 192 -62 b 689 245 541 -62 689 79 b 375 553 689 416 549 553 b 40 425 273 553 147 505 b 7 366 18 408 7 387 b 71 282 7 307 71 312 b 65 225 71 260 65 241 z m 379 60 b 203 265 278 60 203 148 b 358 424 203 373 258 424 b 553 231 469 424 553 339 b 379 60 553 123 454 60 z m 263 645 b 348 712 287 674 319 712 b 520 609 397 712 483 609 b 590 673 545 609 590 643 b 349 834 590 724 425 834 b 161 667 298 834 161 711 b 218 619 161 645 189 619 b 263 645 234 619 250 629 z "},"":{"ha":721,"x_min":0,"x_max":0,"o":"m 65 225 b 364 -62 65 60 192 -62 b 689 245 541 -62 689 79 b 375 553 689 416 549 553 b 40 425 273 553 147 505 b 7 366 18 408 7 387 b 71 282 7 307 71 312 b 65 225 71 260 65 241 z m 379 60 b 203 265 278 60 203 148 b 358 424 203 373 258 424 b 553 231 469 424 553 339 b 379 60 553 123 454 60 z m 180 699 b 265 709 203 699 232 709 b 445 689 305 709 389 689 b 614 764 524 689 614 722 b 559 832 614 816 600 832 b 432 802 532 832 484 804 b 252 823 368 798 295 823 b 136 759 170 823 136 800 b 180 699 136 721 153 699 z "},"":{"ha":721,"x_min":0,"x_max":0,"o":"m 65 225 b 364 -62 65 60 192 -62 b 689 245 541 -62 689 79 b 375 553 689 416 549 553 b 40 425 273 553 147 505 b 7 366 18 408 7 387 b 71 282 7 307 71 312 b 65 225 71 260 65 241 z m 379 60 b 203 265 278 60 203 148 b 358 424 203 373 258 424 b 553 231 469 424 553 339 b 379 60 553 123 454 60 z m 271 645 b 350 707 319 645 350 669 b 260 787 350 749 307 787 b 176 723 209 787 176 761 b 271 645 176 677 218 645 z m 507 645 b 586 707 555 645 586 669 b 496 787 586 749 543 787 b 412 723 445 787 412 761 b 507 645 412 677 454 645 z "},"":{"ha":671,"x_min":0,"x_max":0,"o":"m 332 504 b 412 567 381 504 412 527 b 321 646 412 608 368 646 b 238 582 271 646 238 620 b 332 504 238 538 279 504 z m 332 74 b 412 136 381 74 412 96 b 321 215 412 178 368 215 b 238 151 271 215 238 189 b 332 74 238 107 279 74 z m 75 272 b 612 297 254 275 433 289 b 667 353 648 298 666 317 l 669 366 b 614 421 671 404 652 423 b 92 397 440 412 267 400 b 31 349 58 397 38 381 l 27 335 b 75 272 17 295 35 272 z "},"":{"ha":721,"x_min":0,"x_max":0,"o":"m 340 685 l 334 550 b 40 425 240 540 133 494 b 7 366 18 408 7 387 b 71 282 7 307 71 312 b 65 225 71 260 65 241 b 301 -57 65 81 162 -31 l 292 -239 b 326 -283 292 -267 302 -283 l 363 -281 b 406 -233 390 -277 404 -261 l 415 -58 b 689 245 568 -35 689 96 b 446 545 689 392 585 513 l 454 699 b 418 734 454 721 441 734 l 383 732 b 340 685 356 728 342 712 z m 203 265 b 327 422 203 361 246 412 l 309 75 b 203 265 245 106 203 178 z m 421 66 l 439 407 b 553 231 507 377 553 311 b 421 66 553 142 486 84 z "},"":{"ha":652,"x_min":0,"x_max":0,"o":"m 199 240 b 231 488 199 342 231 454 b 121 547 231 520 183 547 b 60 504 86 547 62 530 b 37 228 45 380 37 297 b 290 -81 37 47 144 -81 b 627 436 497 -81 627 117 b 519 526 627 495 587 526 b 443 485 466 526 443 514 b 460 314 443 447 460 406 b 307 50 460 161 397 50 b 199 240 237 50 199 119 z m 119 819 b 344 588 119 778 243 756 b 382 572 351 575 365 572 b 446 610 412 572 446 589 b 198 882 446 684 302 882 b 119 819 166 882 119 841 z "},"":{"ha":652,"x_min":0,"x_max":0,"o":"m 199 240 b 231 488 199 342 231 454 b 121 547 231 520 183 547 b 60 504 86 547 62 530 b 37 228 45 380 37 297 b 290 -81 37 47 144 -81 b 627 436 497 -81 627 117 b 519 526 627 495 587 526 b 443 485 466 526 443 514 b 460 314 443 447 460 406 b 307 50 460 161 397 50 b 199 240 237 50 199 119 z m 566 821 b 486 885 566 844 519 885 b 239 613 382 885 239 687 b 303 574 239 591 273 574 b 340 591 319 574 333 578 b 566 821 441 759 566 781 z "},"":{"ha":652,"x_min":0,"x_max":0,"o":"m 199 240 b 231 488 199 342 231 454 b 121 547 231 520 183 547 b 60 504 86 547 62 530 b 37 228 45 380 37 297 b 290 -81 37 47 144 -81 b 627 436 497 -81 627 117 b 519 526 627 495 587 526 b 443 485 466 526 443 514 b 460 314 443 447 460 406 b 307 50 460 161 397 50 b 199 240 237 50 199 119 z m 241 682 b 326 749 265 711 298 749 b 498 646 375 749 461 646 b 568 710 524 646 568 680 b 328 871 568 762 403 871 b 139 705 276 871 139 748 b 196 656 139 682 167 656 b 241 682 212 656 228 666 z "},"":{"ha":652,"x_min":0,"x_max":0,"o":"m 199 240 b 231 488 199 342 231 454 b 121 547 231 520 183 547 b 60 504 86 547 62 530 b 37 228 45 380 37 297 b 290 -81 37 47 144 -81 b 627 436 497 -81 627 117 b 519 526 627 495 587 526 b 443 485 466 526 443 514 b 460 314 443 447 460 406 b 307 50 460 161 397 50 b 199 240 237 50 199 119 z m 222 638 b 301 701 271 638 301 662 b 211 780 301 743 258 780 b 127 716 160 780 127 754 b 222 638 127 671 170 638 z m 458 638 b 537 701 507 638 537 662 b 447 780 537 743 494 780 b 363 716 396 780 363 754 b 458 638 363 671 406 638 z "},"":{"ha":684,"x_min":0,"x_max":0,"o":"m 339 -18 b 439 8 375 -18 407 -11 b 465 18 450 16 460 18 b 478 -4 475 18 478 12 b 488 -415 478 -52 479 -313 b 528 -458 490 -441 504 -458 b 628 -395 582 -458 628 -429 b 611 -155 628 -368 611 -240 b 627 164 611 -84 613 -62 b 659 336 630 224 659 257 b 574 460 659 428 636 460 b 501 393 520 460 505 448 b 485 205 496 331 490 270 b 472 164 483 189 481 178 b 372 109 447 129 411 109 b 144 515 263 109 177 266 b 85 559 140 545 121 559 b 4 473 28 559 4 535 b 339 -18 4 235 176 -18 z m 591 790 b 512 854 591 812 545 854 b 265 582 408 854 265 656 b 329 543 265 560 299 543 b 366 559 345 543 359 547 b 591 790 467 728 591 749 z "},"":{"ha":733,"x_min":0,"x_max":0,"o":"m 72 277 b 77 135 75 231 77 184 b 64 -224 77 41 71 -68 l 64 -231 b 110 -277 64 -260 79 -277 b 126 -275 115 -277 121 -277 b 200 -216 180 -269 198 -251 l 208 -85 b 212 92 211 -28 212 27 b 228 119 212 109 218 119 b 250 110 233 119 241 117 b 461 32 315 59 387 32 b 700 297 599 32 700 144 b 458 586 700 460 594 586 b 224 456 368 586 290 543 b 208 446 218 449 213 446 b 197 463 202 446 199 451 b 139 827 179 624 157 774 b 85 865 129 852 111 865 b 5 817 39 865 14 847 b 4 803 3 812 4 808 b 5 785 4 798 3 792 b 72 277 33 614 61 447 z m 435 460 b 558 265 505 460 558 377 b 458 154 558 193 524 154 b 258 254 399 154 328 190 b 250 272 253 258 250 264 b 253 288 250 275 250 277 b 435 460 288 387 363 460 z "},"":{"ha":684,"x_min":0,"x_max":0,"o":"m 339 -18 b 439 8 375 -18 407 -11 b 465 18 450 16 460 18 b 478 -4 475 18 478 12 b 488 -415 478 -52 479 -313 b 528 -458 490 -441 504 -458 b 628 -395 582 -458 628 -429 b 611 -155 628 -368 611 -240 b 627 164 611 -84 613 -62 b 659 336 630 224 659 257 b 574 460 659 428 636 460 b 501 393 520 460 505 448 b 485 205 496 331 490 270 b 472 164 483 189 481 178 b 372 109 447 129 411 109 b 144 515 263 109 177 266 b 85 559 140 545 121 559 b 4 473 28 559 4 535 b 339 -18 4 235 176 -18 z m 250 629 b 329 691 298 629 329 652 b 239 770 329 733 286 770 b 155 707 188 770 155 745 b 250 629 155 661 197 629 z m 486 629 b 565 691 534 629 565 652 b 475 770 565 733 522 770 b 391 707 424 770 391 745 b 486 629 391 661 433 629 z "},"":{"ha":819,"x_min":0,"x_max":0,"o":"m 43 135 l 52 135 b 68 114 62 135 68 128 b 65 96 68 109 67 103 l 50 40 b 47 21 48 33 47 26 b 94 -25 47 -5 64 -22 l 115 -28 l 126 -28 b 180 17 154 -28 172 -13 l 211 129 b 248 160 216 148 228 158 b 574 183 356 171 463 178 b 615 161 591 183 605 176 b 747 -18 661 102 704 43 b 790 -45 760 -35 774 -45 b 825 -32 802 -45 812 -40 l 851 -14 b 879 29 869 -1 879 13 b 867 64 879 40 875 52 l 794 163 b 785 192 788 173 785 182 b 787 210 785 197 785 202 l 800 248 b 803 268 803 255 803 262 b 753 310 803 294 785 310 l 714 310 b 672 330 696 310 684 317 b 387 673 515 544 458 625 b 347 686 374 682 361 686 b 244 637 304 686 260 660 b 170 450 205 584 188 509 b 122 294 153 399 138 346 b 85 262 117 275 106 265 l 69 261 b 21 204 39 256 22 237 b 20 179 19 187 20 184 b 43 135 20 151 27 135 z m 366 493 b 482 345 406 444 444 395 b 490 323 488 336 490 330 b 461 301 490 311 479 303 b 298 288 407 298 353 295 l 292 288 b 265 313 274 288 265 296 b 267 325 265 317 264 320 b 318 484 283 379 300 430 b 342 507 323 499 330 507 b 366 493 350 507 357 501 z m 200 879 b 392 751 233 791 311 751 b 618 897 486 751 585 805 b 623 916 621 905 623 911 b 554 964 623 949 581 964 b 504 918 529 964 517 947 b 408 857 486 876 452 857 b 319 915 360 857 335 883 b 273 955 309 940 294 955 b 196 899 240 955 196 935 b 200 879 196 892 197 886 z "},"":{"ha":771,"x_min":0,"x_max":0,"o":"m 482 593 b 21 142 290 593 21 329 b 171 -3 21 53 79 -3 b 464 167 269 -3 374 54 b 478 175 468 172 473 175 b 489 161 483 175 486 170 b 639 -11 511 48 568 -11 b 806 96 720 -11 806 45 b 766 142 806 121 787 142 b 684 123 743 142 721 123 b 591 310 630 123 595 180 l 589 364 b 591 365 589 364 591 364 b 596 366 593 365 594 366 b 673 437 636 366 673 399 b 482 593 673 529 582 593 z m 460 358 b 207 122 372 201 281 122 b 160 171 178 122 160 140 b 457 471 160 275 355 471 b 522 427 489 471 505 450 b 526 415 525 422 526 418 b 511 406 526 410 522 407 b 460 358 486 401 476 389 z m 186 787 b 378 659 218 699 296 659 b 604 804 472 659 571 713 b 608 824 607 813 608 819 b 540 871 608 857 566 871 b 490 825 515 871 503 854 b 394 764 471 784 437 764 b 305 823 346 764 321 791 b 259 863 294 848 280 863 b 182 807 226 863 182 842 b 186 787 182 800 183 793 z "},"":{"ha":905,"x_min":0,"x_max":0,"o":"m 68 240 b 136 245 81 240 106 242 b 143 132 141 205 143 167 b 118 75 143 114 118 99 b 160 24 118 49 132 31 b 471 -31 281 -14 378 -31 b 908 235 703 -31 908 94 b 196 659 908 444 549 659 b -24 637 109 659 39 652 b -77 568 -59 628 -77 605 b -35 515 -77 531 -65 517 b -9 518 -29 515 -21 516 b 62 528 26 524 47 528 b 119 361 79 528 103 454 b 25 302 51 353 25 337 b 68 240 25 262 43 240 z m 252 529 b 761 243 541 498 761 376 b 493 90 761 163 634 90 b 283 142 386 90 286 115 l 272 262 b 326 269 296 266 315 267 b 404 317 378 275 404 292 b 351 385 404 368 385 385 b 258 376 332 385 296 381 b 240 478 252 416 246 448 b 232 515 235 502 232 511 b 252 529 232 524 239 529 z "},"":{"ha":814,"x_min":0,"x_max":0,"o":"m 510 496 b 383 514 464 509 421 514 b 43 197 197 514 43 371 b 289 -41 43 61 145 -41 b 589 174 427 -41 540 42 b 597 184 591 181 594 184 b 604 174 601 184 603 181 b 775 35 635 79 701 35 b 905 119 844 35 905 72 b 873 167 905 146 892 167 b 810 158 848 167 832 158 b 676 425 729 158 676 241 b 681 576 676 476 678 529 l 730 578 b 812 623 783 578 812 593 b 757 690 812 674 798 690 b 688 688 740 690 715 689 l 689 721 b 611 799 689 778 668 799 b 533 725 555 799 533 779 l 533 678 b 447 674 498 675 467 674 b 334 617 365 674 334 659 b 378 557 334 579 351 557 b 533 566 416 557 474 562 l 533 514 b 518 494 533 501 528 494 b 510 496 515 494 512 495 z m 315 81 b 183 222 237 81 183 136 b 363 390 183 321 254 390 b 507 370 400 390 458 382 b 524 347 518 365 524 357 b 315 81 524 306 469 81 z "},"":{"ha":746,"x_min":0,"x_max":0,"o":"m 37 653 b 46 566 37 637 41 606 b -24 511 -5 557 -24 541 b 19 448 -24 470 -6 448 b 62 451 28 448 43 450 b 102 0 77 331 96 172 b 170 -58 104 -41 121 -58 b 250 -5 216 -58 236 -47 b 463 335 326 222 393 335 b 572 22 524 335 572 192 b 632 -28 572 -12 589 -28 b 711 56 694 -28 711 -11 b 492 457 711 300 625 457 b 236 240 389 457 298 376 b 224 228 232 232 228 228 b 214 245 218 228 214 233 b 199 467 208 338 203 409 l 277 477 b 355 525 329 483 355 498 b 302 593 355 576 335 593 b 189 583 279 593 234 588 b 175 693 185 622 180 656 b 132 726 172 714 154 726 b 37 653 69 726 37 702 z "},"":{"ha":334,"x_min":0,"x_max":0,"o":"m 69 633 b 115 28 69 581 115 340 b 160 -11 115 3 132 -11 b 254 57 222 -11 254 12 b 214 650 254 224 244 410 b 149 692 209 679 191 692 b 69 633 104 692 69 665 z m -42 830 b 43 840 -20 830 9 840 b 222 820 83 840 166 820 b 391 895 301 820 391 852 b 336 963 391 947 378 963 b 210 932 309 963 261 935 b 29 954 146 929 73 954 b -86 890 -52 954 -86 931 b -42 830 -86 852 -70 830 z "},"":{"ha":301,"x_min":0,"x_max":0,"o":"m 62 457 b 90 -28 79 294 90 136 b 135 -66 90 -56 110 -66 b 229 1 175 -66 229 -36 b 201 484 229 164 217 323 b 150 511 198 504 166 511 b 62 457 106 511 62 489 z m -39 712 b 46 722 -16 712 13 722 b 226 702 86 722 170 702 b 395 777 304 702 395 734 b 340 845 395 829 381 845 b 213 814 313 845 264 817 b 33 836 149 811 76 836 b -83 772 -49 836 -83 813 b -39 712 -83 734 -66 712 z "},"":{"ha":301,"x_min":0,"x_max":0,"o":"m 62 457 b 90 -28 79 294 90 136 b 135 -66 90 -56 110 -66 b 229 1 175 -66 229 -36 b 201 484 229 164 217 323 b 150 511 198 504 166 511 b 62 457 106 511 62 489 z "},"":{"ha":705,"x_min":0,"x_max":0,"o":"m 408 485 l 408 476 l 408 471 b 411 444 408 463 410 454 b 436 0 418 365 436 200 b 470 -38 436 -22 448 -35 l 471 -113 b 411 -232 471 -208 458 -232 b 182 -104 296 -232 233 -104 b 104 -178 153 -104 104 -150 b 415 -366 104 -258 281 -366 b 614 -64 565 -366 614 -290 b 550 493 614 150 588 365 l 549 496 l 549 497 b 484 539 546 525 524 539 b 408 485 438 539 408 517 z m 500 636 b 581 697 551 636 581 659 b 574 726 581 707 578 717 b 581 754 578 734 581 743 b 490 833 581 796 537 833 b 407 770 439 833 407 808 b 414 740 407 759 410 749 b 408 714 410 732 408 724 b 500 636 408 671 448 638 z "},"":{"ha":736,"x_min":0,"x_max":0,"o":"m 110 549 b 416 518 205 533 308 524 b 457 479 437 517 450 504 b 509 122 492 341 509 226 b 416 -5 509 40 475 -5 b 170 271 284 -5 170 123 b 66 334 170 306 123 334 b 14 275 36 334 14 309 b 392 -127 14 58 189 -127 b 646 157 546 -127 646 -16 b 604 488 646 326 604 455 b 635 518 604 506 614 516 b 786 578 757 526 786 538 b 574 700 786 629 663 700 b 454 664 528 700 486 686 b 400 648 436 653 421 648 b 78 676 290 648 114 676 b 43 633 57 676 43 660 b 110 549 43 592 74 552 z m 286 827 b 371 895 310 857 342 895 b 543 791 420 895 506 791 b 613 855 568 791 613 825 b 372 1017 613 907 448 1017 b 184 850 321 1017 184 893 b 241 802 184 827 212 802 b 286 827 257 802 273 811 z "},"":{"ha":404,"x_min":0,"x_max":0,"o":"m 110 -232 b -119 -104 -5 -232 -68 -104 b -197 -178 -149 -104 -197 -150 b 114 -366 -197 -258 -20 -366 b 313 -64 264 -366 313 -290 b 249 493 313 150 287 365 b 186 524 241 513 220 524 b 107 471 137 522 107 501 b 170 -113 107 413 170 258 b 110 -232 170 -208 157 -232 z m 90 708 b 175 775 114 737 146 775 b 347 672 224 775 310 672 b 417 736 372 672 417 706 b 176 897 417 787 252 897 b -12 730 125 897 -12 774 b 45 682 -12 708 16 682 b 90 708 61 682 77 692 z "},"":{"ha":619,"x_min":0,"x_max":0,"o":"m 97 14 b 151 -39 97 -25 111 -39 b 231 39 214 -39 231 -24 b 236 54 231 52 231 54 b 256 45 241 54 245 50 b 313 10 272 33 291 22 l 312 10 b 245 -23 277 10 254 1 b 227 -119 233 -61 227 -91 b 291 -195 227 -152 240 -168 b 324 -231 311 -205 324 -218 b 287 -258 324 -249 312 -258 b 201 -216 248 -258 216 -216 b 129 -286 184 -216 129 -254 b 264 -368 129 -326 210 -368 b 444 -218 372 -368 444 -283 b 380 -113 444 -182 426 -141 b 347 -77 359 -100 347 -91 b 358 -26 347 -66 358 -45 b 355 -11 358 -20 357 -15 b 659 -100 459 -59 592 -100 b 729 -9 689 -100 729 -50 b 704 21 729 7 722 16 b 339 187 474 70 339 130 b 562 513 339 280 562 361 b 486 590 562 559 533 590 b 243 349 407 590 319 505 b 229 336 239 340 234 336 b 218 354 224 336 218 341 b 197 685 208 526 205 613 b 131 754 192 737 176 754 b 52 699 79 754 52 734 b 97 14 52 633 97 250 z "},"":{"ha":619,"x_min":0,"x_max":0,"o":"m 97 14 b 151 -39 97 -25 111 -39 b 231 39 214 -39 231 -24 b 236 54 231 52 231 54 b 256 45 241 54 245 50 b 659 -100 351 -23 568 -100 b 729 -9 689 -100 729 -50 b 704 21 729 7 722 16 b 339 187 474 70 339 130 b 562 513 339 280 562 361 b 486 590 562 559 533 590 b 243 349 407 590 319 505 b 229 336 239 340 234 336 b 218 354 224 336 218 341 b 210 550 218 395 210 492 b 143 619 210 604 189 619 b 64 564 92 619 64 601 b 97 14 64 498 97 171 z "},"":{"ha":454,"x_min":0,"x_max":0,"o":"m 20 772 b 115 71 20 753 115 208 b 167 21 115 37 135 21 b 254 109 232 21 254 43 b 178 768 254 203 213 526 b 107 838 169 822 152 838 b 20 772 45 838 20 819 z m 379 305 b 458 368 428 305 458 328 b 368 447 458 410 415 447 b 285 383 318 447 285 421 b 379 305 285 340 326 305 z "},"":{"ha":509,"x_min":0,"x_max":0,"o":"m 232 -46 b 496 -22 289 -36 385 -33 b 555 53 543 -19 555 18 b 503 100 555 75 549 100 b 283 81 433 100 355 81 b 253 113 265 81 253 92 b 244 292 251 169 248 229 l 283 297 b 361 345 336 302 361 318 b 309 412 361 395 342 412 b 235 407 293 412 266 410 b 214 608 230 470 223 536 b 149 650 209 637 191 650 b 69 591 104 650 69 624 b 89 390 69 566 78 490 b -18 330 12 382 -18 366 b 26 268 -18 290 1 268 b 100 274 40 268 68 271 b 115 71 106 209 111 140 b 106 -12 115 40 106 7 b 158 -58 106 -36 125 -58 b 232 -46 189 -58 205 -51 z "},"":{"ha":306,"x_min":0,"x_max":0,"o":"m 20 772 b 62 500 20 764 40 642 b -31 441 -5 492 -31 475 b 12 379 -31 401 -13 379 b 80 385 25 379 50 381 b 115 71 99 254 115 127 b 167 21 115 37 135 21 b 254 109 232 21 254 43 b 227 403 254 158 243 271 l 270 408 b 348 456 322 414 348 429 b 295 524 348 507 328 524 b 212 517 277 524 247 521 b 178 768 201 602 189 690 b 107 838 169 822 152 838 b 20 772 45 838 20 819 z "},"":{"ha":907,"x_min":0,"x_max":0,"o":"m 211 339 b 231 368 211 357 218 368 b 254 355 238 368 245 364 b 708 45 380 235 568 45 b 842 269 825 45 842 123 b 724 703 842 387 814 703 b 633 637 696 703 633 679 b 643 604 633 625 638 615 b 708 277 684 503 708 348 b 677 207 708 228 703 207 b 511 317 625 207 555 279 b 147 623 365 441 226 623 b 68 522 79 623 68 576 b 90 71 68 429 77 199 b 144 22 93 37 119 22 b 229 97 196 22 229 53 b 211 339 229 177 211 262 z m 596 953 b 517 1017 596 975 549 1017 b 270 745 413 1017 270 819 b 334 706 270 723 304 706 b 371 722 350 706 363 709 b 596 953 471 890 596 912 z "},"":{"ha":660,"x_min":0,"x_max":0,"o":"m 68 547 b 109 46 68 513 92 422 b 160 8 111 22 127 8 b 248 68 209 8 243 32 b 363 449 280 334 317 449 b 509 20 410 449 456 294 b 566 -9 513 -3 528 -9 b 646 50 604 -9 646 9 b 643 75 646 58 645 65 b 383 599 569 465 499 599 b 240 456 321 599 273 551 b 228 435 236 441 232 435 b 216 463 222 435 220 444 b 168 603 205 580 195 603 b 68 547 119 603 68 574 z m 555 880 b 476 944 555 903 509 944 b 229 672 372 944 229 746 b 293 633 229 650 263 633 b 330 650 309 633 323 637 b 555 880 431 818 555 840 z "},"":{"ha":1341,"x_min":0,"x_max":0,"o":"m 539 741 b 47 253 278 741 47 519 b 363 -82 47 41 196 -82 b 713 122 496 -82 632 5 b 736 139 721 134 728 139 b 754 114 745 139 751 131 l 771 17 b 825 -39 774 -12 785 -39 b 861 -31 835 -39 847 -36 b 1244 29 999 24 1128 29 b 1304 78 1278 29 1297 45 l 1308 92 b 1311 111 1310 99 1311 106 b 1260 154 1311 140 1294 154 b 932 121 1149 154 1040 140 b 920 119 927 119 924 119 b 873 275 886 119 873 228 b 903 304 873 292 884 300 b 1186 339 996 321 1090 334 b 1246 387 1218 341 1238 355 b 1253 421 1251 410 1253 415 b 1202 464 1253 450 1234 464 b 885 422 1137 464 989 441 b 844 452 863 422 849 428 l 831 529 b 861 568 831 553 836 566 b 1093 576 939 574 1016 576 b 1225 574 1137 576 1181 574 b 1283 621 1257 574 1276 589 l 1287 636 b 1291 656 1289 644 1291 648 b 1193 701 1291 694 1244 701 b 835 688 1072 701 954 698 b 794 717 812 688 799 694 l 793 728 b 754 757 787 747 774 757 b 728 753 747 757 738 755 l 654 728 b 539 741 614 738 575 741 z m 669 354 b 380 45 642 187 523 45 b 184 275 283 45 184 118 b 522 615 184 450 329 615 b 673 550 574 615 670 601 b 677 463 676 521 677 492 b 669 354 677 427 675 392 z "},"":{"ha":1161,"x_min":0,"x_max":0,"o":"m 1079 149 b 859 69 1017 100 941 69 b 693 155 794 69 693 104 b 728 180 693 168 707 178 b 1109 338 1023 197 1109 239 b 878 528 1109 461 986 528 b 654 429 800 528 720 497 b 631 416 645 420 637 416 b 607 432 623 416 614 421 b 375 553 551 513 468 553 b 40 425 273 553 147 505 b 7 366 18 408 7 387 b 71 282 7 307 71 312 b 65 225 71 260 65 241 b 364 -62 65 60 192 -62 b 579 33 445 -62 514 -29 b 602 47 587 41 593 47 b 624 32 608 47 616 42 b 833 -56 673 -30 747 -56 b 1156 60 956 -56 1075 -8 b 1177 98 1170 73 1177 85 b 1161 138 1177 111 1171 123 b 1118 165 1145 159 1132 165 b 1079 149 1106 165 1093 160 z m 379 60 b 203 265 278 60 203 148 b 372 424 203 372 271 424 b 538 307 467 424 538 336 b 518 298 538 298 526 298 l 509 298 b 463 248 482 298 467 281 l 461 233 b 460 221 459 229 460 226 b 513 174 460 191 479 174 l 524 174 b 534 160 528 174 534 170 b 379 60 534 136 468 60 z m 928 328 b 722 302 852 313 749 302 b 703 318 707 302 703 308 b 860 403 703 361 794 403 b 953 353 905 403 953 382 b 928 328 953 340 945 330 z "},"":{"ha":728,"x_min":0,"x_max":0,"o":"m 249 514 b 465 567 314 541 396 567 b 554 511 536 567 554 544 b 253 268 554 433 340 314 b 231 261 243 263 236 261 b 211 285 221 261 214 269 b 161 485 197 349 180 414 b 114 526 154 513 138 526 b 61 511 108 526 99 524 b 22 463 35 503 22 486 b 25 441 22 457 22 450 b 125 -41 68 282 103 123 b 168 -87 129 -72 143 -87 b 192 -83 176 -87 183 -86 l 222 -74 b 264 -21 250 -64 264 -46 b 245 100 264 5 251 72 b 244 111 245 104 244 109 b 256 123 244 121 248 123 b 277 119 259 123 267 122 b 672 -17 393 83 555 28 b 697 -21 682 -20 690 -21 b 746 8 717 -21 733 -12 b 771 61 759 24 771 43 b 734 103 771 80 759 94 b 432 201 631 140 529 167 b 411 224 418 207 411 214 b 431 248 411 232 418 240 b 694 529 522 296 694 400 b 503 688 694 652 596 688 b 208 624 402 688 303 662 b 172 576 184 614 172 597 b 178 547 172 569 173 561 b 222 509 186 522 201 509 b 249 514 231 509 240 511 z m 560 965 b 481 1029 560 987 513 1029 b 234 757 377 1029 234 831 b 298 718 234 735 268 718 b 335 734 314 718 328 722 b 560 965 435 903 560 924 z "},"":{"ha":728,"x_min":0,"x_max":0,"o":"m 249 514 b 465 567 314 541 396 567 b 554 511 536 567 554 544 b 253 268 554 433 340 314 b 231 261 243 263 236 261 b 211 285 221 261 214 269 b 161 485 197 349 180 414 b 114 526 154 513 138 526 b 61 511 108 526 99 524 b 22 463 35 503 22 486 b 25 441 22 457 22 450 b 125 -41 68 282 103 123 b 168 -87 129 -72 143 -87 b 192 -83 176 -87 183 -86 l 222 -74 b 264 -21 250 -64 264 -46 b 245 100 264 5 251 72 b 244 111 245 104 244 109 b 256 123 244 121 248 123 b 277 119 259 123 267 122 b 672 -17 393 83 555 28 b 697 -21 682 -20 690 -21 b 746 8 717 -21 733 -12 b 771 61 759 24 771 43 b 734 103 771 80 759 94 b 432 201 631 140 529 167 b 411 224 418 207 411 214 b 431 248 411 232 418 240 b 694 529 522 296 694 400 b 503 688 694 652 596 688 b 208 624 402 688 303 662 b 172 576 184 614 172 597 b 178 547 172 569 173 561 b 222 509 186 522 201 509 b 249 514 231 509 240 511 z m 518 -147 b 410 -86 518 -115 441 -86 b 378 -115 393 -86 383 -97 b 245 -433 331 -283 245 -415 b 317 -482 245 -454 295 -482 b 518 -147 385 -482 518 -178 z "},"":{"ha":492,"x_min":0,"x_max":0,"o":"m 424 507 b 533 463 472 507 501 463 b 591 559 562 463 591 527 b 440 632 591 606 511 632 b 211 386 318 632 233 557 b 201 363 210 370 206 363 b 191 387 197 363 195 369 b 109 536 168 491 143 536 b 14 469 68 536 14 497 b 26 433 14 458 19 447 b 170 -56 110 278 153 104 b 227 -93 172 -87 208 -93 b 310 -31 280 -93 310 -69 b 301 174 310 29 301 101 b 424 507 301 339 323 507 z m 360 -231 b 252 -170 360 -199 283 -170 b 220 -199 235 -170 225 -181 b 87 -517 173 -368 87 -499 b 159 -566 87 -538 137 -566 b 360 -231 227 -566 360 -262 z "},"":{"ha":728,"x_min":0,"x_max":0,"o":"m 249 514 b 465 567 314 541 396 567 b 554 511 536 567 554 544 b 253 268 554 433 340 314 b 231 261 243 263 236 261 b 211 285 221 261 214 269 b 161 485 197 349 180 414 b 114 526 154 513 138 526 b 61 511 108 526 99 524 b 22 463 35 503 22 486 b 25 441 22 457 22 450 b 125 -41 68 282 103 123 b 168 -87 129 -72 143 -87 b 192 -83 176 -87 183 -86 l 222 -74 b 264 -21 250 -64 264 -46 b 245 100 264 5 251 72 b 244 111 245 104 244 109 b 256 123 244 121 248 123 b 277 119 259 123 267 122 b 672 -17 393 83 555 28 b 697 -21 682 -20 690 -21 b 746 8 717 -21 733 -12 b 771 61 759 24 771 43 b 734 103 771 80 759 94 b 432 201 631 140 529 167 b 411 224 418 207 411 214 b 431 248 411 232 418 240 b 694 529 522 296 694 400 b 503 688 694 652 596 688 b 208 624 402 688 303 662 b 172 576 184 614 172 597 b 178 547 172 569 173 561 b 222 509 186 522 201 509 b 249 514 231 509 240 511 z m 477 949 b 392 882 453 920 420 882 b 220 985 343 882 257 985 b 151 921 195 985 151 951 b 391 760 151 869 315 760 b 579 930 442 760 579 881 b 523 975 579 953 552 975 b 477 949 506 975 490 965 z "},"":{"ha":492,"x_min":0,"x_max":0,"o":"m 424 507 b 533 463 472 507 501 463 b 591 559 562 463 591 527 b 440 632 591 606 511 632 b 211 386 318 632 233 557 b 201 363 210 370 206 363 b 191 387 197 363 195 369 b 109 536 168 491 143 536 b 14 469 68 536 14 497 b 26 433 14 458 19 447 b 170 -56 110 278 153 104 b 227 -93 172 -87 208 -93 b 310 -31 280 -93 310 -69 b 301 174 310 29 301 101 b 424 507 301 339 323 507 z m 353 869 b 269 802 330 840 297 802 b 96 905 220 802 134 905 b 27 842 71 905 27 871 b 267 680 27 790 192 680 b 456 851 319 680 456 802 b 399 896 456 873 429 896 b 353 869 382 896 367 886 z "},"":{"ha":644,"x_min":0,"x_max":0,"o":"m 192 278 b 142 332 192 306 168 323 b 106 339 119 339 113 339 b 50 244 60 339 50 290 b 403 -39 50 83 236 -39 b 644 160 511 -39 644 29 b 207 587 644 376 207 519 b 304 629 207 623 259 629 b 425 616 346 629 388 616 b 479 656 452 616 467 629 b 493 701 492 684 493 693 b 339 753 493 751 399 753 b 40 581 219 753 40 689 b 505 138 40 428 505 289 b 425 86 505 98 461 86 b 192 278 308 86 192 170 z m 424 1010 b 339 943 400 981 368 943 b 167 1046 290 943 204 1046 b 98 982 142 1046 98 1012 b 338 821 98 930 262 821 b 526 991 389 821 526 942 b 470 1036 526 1014 499 1036 b 424 1010 453 1036 437 1026 z "},"":{"ha":511,"x_min":0,"x_max":0,"o":"m 225 589 b 29 422 115 589 29 520 b 406 17 29 245 406 158 b 351 -28 406 -13 387 -28 b 250 62 297 -28 250 16 b 267 136 250 90 267 115 b 204 174 267 157 242 174 b 115 60 142 174 115 139 b 355 -151 115 -62 216 -151 b 543 18 467 -151 543 -83 b 164 431 543 254 164 339 b 214 471 164 456 184 471 b 408 383 302 471 365 383 b 498 460 441 383 498 431 b 225 589 498 518 346 589 z m 344 845 b 259 778 320 816 288 778 b 87 881 210 778 124 881 b 18 817 62 881 18 847 b 258 656 18 766 182 656 b 446 827 309 656 446 777 b 390 871 446 849 419 871 b 344 845 373 871 357 861 z "},"":{"ha":802,"x_min":0,"x_max":0,"o":"m 64 558 b 40 326 51 488 40 406 b 401 -72 40 98 170 -72 b 757 271 615 -72 757 66 b 627 665 757 418 695 544 b 585 696 615 686 602 696 b 550 684 574 696 562 692 l 522 665 b 494 621 504 653 494 638 b 504 587 494 610 498 600 b 615 257 563 480 615 373 b 439 53 615 141 555 53 b 182 359 233 53 182 191 b 199 547 182 425 189 488 b 200 559 199 552 200 555 b 150 606 200 589 182 606 b 64 558 91 606 69 590 z m 199 770 b 283 779 221 770 250 779 b 463 760 323 779 407 760 b 632 835 542 760 632 792 b 577 903 632 886 618 903 b 450 872 550 903 502 874 b 270 893 387 869 313 893 b 155 829 189 893 155 871 b 199 770 155 791 171 770 z "},"":{"ha":652,"x_min":0,"x_max":0,"o":"m 199 240 b 231 488 199 342 231 454 b 121 547 231 520 183 547 b 60 504 86 547 62 530 b 37 228 45 380 37 297 b 290 -81 37 47 144 -81 b 627 436 497 -81 627 117 b 519 526 627 495 587 526 b 443 485 466 526 443 514 b 460 314 443 447 460 406 b 307 50 460 161 397 50 b 199 240 237 50 199 119 z m 173 663 b 258 672 195 663 224 672 b 437 652 298 672 381 652 b 606 728 516 652 606 685 b 551 795 606 779 593 795 b 425 765 524 795 476 767 b 244 786 361 762 288 786 b 129 722 163 786 129 764 b 173 663 129 684 145 663 z "},"":{"ha":644,"x_min":0,"x_max":0,"o":"m -83 581 b 334 204 68 467 206 345 b 347 174 342 194 347 184 b 345 158 347 168 347 164 b 261 -161 318 52 290 -54 b 258 -182 258 -169 258 -176 b 298 -229 258 -205 271 -222 l 321 -236 b 343 -240 329 -239 336 -240 b 390 -199 367 -240 382 -227 b 587 572 463 65 526 347 b 591 595 590 581 591 588 b 558 644 591 616 581 632 l 534 657 b 504 667 524 665 513 667 b 463 627 483 667 469 653 l 403 389 b 380 364 400 372 393 364 b 358 376 374 364 367 368 b 5 690 249 496 132 595 b -31 704 -7 701 -20 704 b -72 682 -46 704 -60 696 l -92 660 b -107 623 -103 647 -107 635 b -83 581 -107 606 -99 592 z m 148 785 b 227 847 197 785 227 808 b 137 926 227 889 184 926 b 54 863 86 926 54 901 b 148 785 54 817 96 785 z m 384 785 b 463 847 433 785 463 808 b 373 926 463 889 420 926 b 290 863 322 926 290 901 b 384 785 290 817 332 785 z "},"":{"ha":899,"x_min":0,"x_max":0,"o":"m 93 330 l 245 334 b 277 315 265 334 277 326 b 265 292 277 309 273 300 b 151 98 216 237 151 155 b 153 87 151 94 153 92 b 306 -8 165 14 241 1 b 529 -22 366 -17 445 -22 b 823 4 637 -22 745 -12 b 920 92 867 13 920 52 b 786 171 920 143 827 171 b 742 140 757 171 742 159 b 689 106 742 120 724 109 b 611 103 663 104 636 103 b 363 113 524 103 441 102 b 321 150 336 115 321 131 b 335 184 321 161 326 172 b 432 301 367 229 395 261 b 469 318 443 313 455 318 b 778 293 519 318 677 307 b 789 292 783 293 786 292 b 846 332 814 292 833 305 b 852 349 848 338 850 343 b 860 376 857 359 860 368 b 815 416 860 399 843 414 b 621 437 750 425 686 432 b 581 453 596 439 581 444 b 582 457 581 455 581 456 b 684 587 615 494 667 541 b 689 614 687 596 689 605 b 681 642 689 625 686 633 b 642 677 673 654 664 665 b 371 715 579 711 507 715 b 161 711 300 715 231 713 b 100 663 127 711 107 695 l 96 648 b 93 629 94 641 93 635 b 144 586 93 600 110 586 b 461 589 201 586 307 589 b 497 557 485 587 497 574 b 478 517 497 544 492 530 l 439 475 b 396 457 427 463 413 457 b 307 458 367 459 338 458 b 109 456 241 458 176 458 b 49 407 75 454 56 438 l 45 392 b 41 374 43 385 41 379 b 93 330 41 346 61 330 z m 542 974 b 457 907 518 945 486 907 b 285 1010 408 907 322 1010 b 216 946 260 1010 216 976 b 456 785 216 895 380 785 b 644 956 507 785 644 906 b 588 1000 644 978 617 1000 b 542 974 571 1000 555 990 z "},"":{"ha":612,"x_min":0,"x_max":0,"o":"m 340 168 b 514 -3 440 168 514 94 b 321 -204 514 -122 437 -204 b 146 -54 225 -204 146 -136 b 160 14 146 -25 160 -4 b 71 58 160 36 115 58 b 9 -79 41 58 9 -14 b 310 -328 9 -218 142 -328 b 648 12 500 -328 648 -178 b 376 273 648 165 551 264 b 351 288 359 275 351 280 b 364 309 351 293 355 300 b 488 522 450 391 488 447 b 315 653 488 607 427 653 b 33 606 232 653 102 631 b 4 541 15 598 4 572 b 52 473 4 505 26 473 b 292 530 90 473 192 530 b 353 485 328 530 353 515 b 158 216 353 404 158 257 b 201 147 158 186 182 147 b 340 168 223 147 279 168 z m 422 909 b 338 842 399 880 366 842 b 165 945 289 842 203 945 b 96 881 140 945 96 911 b 336 720 96 829 261 720 b 525 890 388 720 525 841 b 469 935 525 913 498 935 b 422 909 452 935 436 925 z "},"":{"ha":836,"x_min":0,"x_max":0,"o":"m 673 574 b 653 581 667 574 660 576 b 428 632 593 614 517 632 b 49 479 239 632 49 555 b 71 422 49 454 71 440 b 65 404 71 419 68 413 b 39 256 49 361 39 310 b 376 -85 39 56 179 -85 b 807 310 618 -85 807 87 b 753 492 807 381 788 443 b 802 708 821 547 866 614 b 690 755 780 740 734 755 b 590 657 626 755 567 723 b 632 627 595 643 614 627 b 651 634 639 627 646 629 b 677 642 658 640 668 642 b 711 610 699 642 720 630 b 673 574 705 595 691 574 z m 671 283 b 406 39 671 140 561 39 b 175 283 270 39 175 139 b 400 509 175 433 251 509 b 671 283 571 509 671 425 z "},"":{"ha":721,"x_min":0,"x_max":0,"o":"m 578 501 b 564 496 573 498 568 496 b 551 500 559 496 555 497 b 375 553 501 533 440 553 b 40 425 273 553 147 505 b 7 366 18 408 7 387 b 71 282 7 307 71 312 b 65 225 71 260 65 241 b 364 -62 65 60 192 -62 b 689 245 541 -62 689 79 b 640 412 689 307 671 363 b 694 635 711 467 751 545 b 596 677 676 664 636 677 b 481 579 530 677 463 642 b 525 545 486 564 506 545 b 541 551 530 545 536 547 b 576 564 551 560 564 564 b 578 501 605 564 626 538 z m 379 60 b 203 265 278 60 203 148 b 358 424 203 373 258 424 b 553 231 469 424 553 339 b 379 60 553 123 454 60 z "},"":{"ha":802,"x_min":0,"x_max":0,"o":"m 614 690 b 598 694 610 690 605 692 b 585 696 594 695 589 696 b 550 684 574 696 562 692 l 522 665 b 494 621 504 653 494 638 b 504 587 494 610 498 600 b 615 257 563 480 615 373 b 439 53 615 141 555 53 b 182 359 233 53 182 191 b 199 547 182 425 189 488 b 200 559 199 552 200 555 b 150 606 200 589 182 606 b 64 558 91 606 69 590 b 40 326 51 488 40 406 b 401 -72 40 98 170 -72 b 757 271 615 -72 757 66 b 669 591 757 389 720 492 b 740 829 750 648 813 723 b 635 871 720 858 677 871 b 515 769 564 871 491 834 b 557 739 520 754 539 739 b 576 745 564 739 570 740 b 614 755 585 751 600 755 b 653 730 637 755 659 747 b 614 690 649 718 630 690 z "},"":{"ha":652,"x_min":0,"x_max":0,"o":"m 558 522 b 519 526 547 525 534 526 b 443 485 466 526 443 514 b 460 314 443 447 460 406 b 307 50 460 161 397 50 b 199 240 237 50 199 119 b 231 488 199 342 231 454 b 121 547 231 520 183 547 b 60 504 86 547 62 530 b 37 228 45 380 37 297 b 290 -81 37 47 144 -81 b 627 423 494 -81 623 111 b 696 658 707 480 755 557 b 477 599 649 739 437 700 b 538 574 484 579 516 557 b 558 522 618 640 636 505 z "},"":{"ha":589,"x_min":0,"x_max":0,"o":"m 182 708 b 267 775 205 737 238 775 b 439 672 315 775 401 672 b 509 736 464 672 509 706 b 268 897 509 787 343 897 b 79 730 216 897 79 774 b 136 682 79 708 107 682 b 182 708 153 682 168 692 z "},"":{"ha":589,"x_min":0,"x_max":0,"o":"m 403 828 b 318 761 379 799 347 761 b 146 864 269 761 183 864 b 77 800 121 864 77 830 b 317 639 77 749 241 639 b 505 810 368 639 505 760 b 449 854 505 832 478 854 b 403 828 432 854 416 844 z "},"":{"ha":589,"x_min":0,"x_max":0,"o":"m 85 831 b 277 703 117 743 195 703 b 503 848 371 703 470 757 b 507 868 506 857 507 863 b 439 916 507 901 465 916 b 389 869 414 916 401 899 b 293 808 370 828 336 808 b 204 867 245 808 220 835 b 158 907 193 892 179 907 b 81 851 125 907 81 886 b 85 831 81 844 82 838 z "},"":{"ha":589,"x_min":0,"x_max":0,"o":"m 301 664 b 380 726 350 664 380 688 b 290 806 380 768 337 806 b 207 742 239 806 207 780 b 301 664 207 696 249 664 z "},"":{"ha":589,"x_min":0,"x_max":0,"o":"m 129 799 l 127 771 b 302 615 127 684 202 615 b 493 782 407 615 493 692 b 309 947 493 874 412 947 b 96 842 257 947 96 904 b 129 799 96 817 116 799 z m 311 703 b 222 791 260 703 222 742 b 300 857 222 837 250 857 b 400 774 357 857 400 821 b 311 703 400 730 350 703 z "},"":{"ha":589,"x_min":0,"x_max":0,"o":"m 100 718 b 184 728 122 718 151 728 b 364 708 224 728 308 708 b 533 783 443 708 533 741 b 478 851 533 835 519 851 b 351 821 451 851 403 823 b 171 842 288 817 214 842 b 56 778 90 842 56 819 b 100 718 56 740 72 718 z "},"":{"ha":0,"x_min":0,"x_max":0,"o":"m 336 -147 b 228 -86 336 -115 260 -86 b 196 -115 211 -86 201 -97 b 64 -433 149 -283 64 -415 b 135 -482 64 -454 113 -482 b 336 -147 203 -482 336 -178 z "},"":{"ha":819,"x_min":0,"x_max":0,"o":"m 43 135 l 52 135 b 68 114 62 135 68 128 b 65 96 68 109 67 103 l 50 40 b 47 21 48 33 47 26 b 94 -25 47 -5 64 -22 l 115 -28 l 126 -28 b 180 17 154 -28 172 -13 l 211 129 b 248 160 216 148 228 158 b 574 183 356 171 463 178 b 615 161 591 183 605 176 b 747 -18 661 102 704 43 b 790 -45 760 -35 774 -45 b 825 -32 802 -45 812 -40 l 851 -14 b 879 29 869 -1 879 13 b 867 64 879 40 875 52 l 794 163 b 785 192 788 173 785 182 b 787 210 785 197 785 202 l 800 248 b 803 268 803 255 803 262 b 753 310 803 294 785 310 l 714 310 b 672 330 696 310 684 317 b 387 673 515 544 458 625 b 347 686 374 682 361 686 b 244 637 304 686 260 660 b 170 450 205 584 188 509 b 122 294 153 399 138 346 b 85 262 117 275 106 265 l 69 261 b 21 204 39 256 22 237 b 20 179 19 187 20 184 b 43 135 20 151 27 135 z m 366 493 b 482 345 406 444 444 395 b 490 323 488 336 490 330 b 461 301 490 311 479 303 b 298 288 407 298 353 295 l 292 288 b 265 313 274 288 265 296 b 267 325 265 317 264 320 b 318 484 283 379 300 430 b 342 507 323 499 330 507 b 366 493 350 507 357 501 z m 446 -125 b 525 -62 494 -125 525 -101 b 435 17 525 -20 481 17 b 351 -47 384 17 351 -9 b 446 -125 351 -92 393 -125 z "},"":{"ha":771,"x_min":0,"x_max":0,"o":"m 482 593 b 21 142 290 593 21 329 b 171 -3 21 53 79 -3 b 464 167 269 -3 374 54 b 478 175 468 172 473 175 b 489 161 483 175 486 170 b 639 -11 511 48 568 -11 b 806 96 720 -11 806 45 b 766 142 806 121 787 142 b 684 123 743 142 721 123 b 591 310 630 123 595 180 l 589 364 b 591 365 589 364 591 364 b 596 366 593 365 594 366 b 673 437 636 366 673 399 b 482 593 673 529 582 593 z m 460 358 b 207 122 372 201 281 122 b 160 171 178 122 160 140 b 457 471 160 275 355 471 b 522 427 489 471 505 450 b 526 415 525 422 526 418 b 511 406 526 410 522 407 b 460 358 486 401 476 389 z m 339 -224 b 418 -162 388 -224 418 -201 b 328 -83 418 -120 375 -83 b 245 -146 277 -83 245 -109 b 339 -224 245 -192 287 -224 z "},"":{"ha":819,"x_min":0,"x_max":0,"o":"m 43 135 l 52 135 b 68 114 62 135 68 128 b 65 96 68 109 67 103 l 50 40 b 47 21 48 33 47 26 b 94 -25 47 -5 64 -22 l 115 -28 l 126 -28 b 180 17 154 -28 172 -13 l 211 129 b 248 160 216 148 228 158 b 574 183 356 171 463 178 b 615 161 591 183 605 176 b 747 -18 661 102 704 43 b 790 -45 760 -35 774 -45 b 825 -32 802 -45 812 -40 l 851 -14 b 879 29 869 -1 879 13 b 867 64 879 40 875 52 l 794 163 b 785 192 788 173 785 182 b 787 210 785 197 785 202 l 800 248 b 803 268 803 255 803 262 b 753 310 803 294 785 310 l 714 310 b 672 330 696 310 684 317 b 387 673 515 544 458 625 b 347 686 374 682 361 686 b 244 637 304 686 260 660 b 170 450 205 584 188 509 b 122 294 153 399 138 346 b 85 262 117 275 106 265 l 69 261 b 21 204 39 256 22 237 b 20 179 19 187 20 184 b 43 135 20 151 27 135 z m 366 493 b 482 345 406 444 444 395 b 490 323 488 336 490 330 b 461 301 490 311 479 303 b 298 288 407 298 353 295 l 292 288 b 265 313 274 288 265 296 b 267 325 265 317 264 320 b 318 484 283 379 300 430 b 342 507 323 499 330 507 b 366 493 350 507 357 501 z m 186 895 b 300 952 231 960 258 962 b 344 892 328 946 350 920 b 256 840 339 871 330 852 b 220 811 239 837 224 828 b 277 751 214 781 248 749 b 441 877 365 760 427 808 b 328 1042 459 956 409 1023 b 103 954 235 1062 167 1041 b 94 934 99 949 95 941 b 113 892 88 911 106 897 b 144 873 121 885 132 876 b 186 895 161 870 178 878 z "},"":{"ha":771,"x_min":0,"x_max":0,"o":"m 482 593 b 21 142 290 593 21 329 b 171 -3 21 53 79 -3 b 464 167 269 -3 374 54 b 478 175 468 172 473 175 b 489 161 483 175 486 170 b 639 -11 511 48 568 -11 b 806 96 720 -11 806 45 b 766 142 806 121 787 142 b 684 123 743 142 721 123 b 591 310 630 123 595 180 l 589 364 b 591 365 589 364 591 364 b 596 366 593 365 594 366 b 673 437 636 366 673 399 b 482 593 673 529 582 593 z m 460 358 b 207 122 372 201 281 122 b 160 171 178 122 160 140 b 457 471 160 275 355 471 b 522 427 489 471 505 450 b 526 415 525 422 526 418 b 511 406 526 410 522 407 b 460 358 486 401 476 389 z m 239 810 b 353 868 283 876 311 878 b 397 808 380 862 403 836 b 309 755 392 787 383 768 b 273 727 292 753 277 744 b 330 667 267 696 300 665 b 494 793 418 675 479 724 b 380 958 512 871 462 939 b 156 870 288 978 220 957 b 146 850 152 865 148 857 b 165 808 141 827 159 812 b 197 789 174 801 185 792 b 239 810 214 786 231 794 z "},"":{"ha":819,"x_min":0,"x_max":0,"o":"m 43 135 l 52 135 b 68 114 62 135 68 128 b 65 96 68 109 67 103 l 50 40 b 47 21 48 33 47 26 b 94 -25 47 -5 64 -22 l 115 -28 l 126 -28 b 180 17 154 -28 172 -13 l 211 129 b 248 160 216 148 228 158 b 574 183 356 171 463 178 b 615 161 591 183 605 176 b 747 -18 661 102 704 43 b 790 -45 760 -35 774 -45 b 825 -32 802 -45 812 -40 l 851 -14 b 879 29 869 -1 879 13 b 867 64 879 40 875 52 l 794 163 b 785 192 788 173 785 182 b 787 210 785 197 785 202 l 800 248 b 803 268 803 255 803 262 b 753 310 803 294 785 310 l 714 310 b 672 330 696 310 684 317 b 387 673 515 544 458 625 b 347 686 374 682 361 686 b 244 637 304 686 260 660 b 170 450 205 584 188 509 b 122 294 153 399 138 346 b 85 262 117 275 106 265 l 69 261 b 21 204 39 256 22 237 b 20 179 19 187 20 184 b 43 135 20 151 27 135 z m 366 493 b 482 345 406 444 444 395 b 490 323 488 336 490 330 b 461 301 490 311 479 303 b 298 288 407 298 353 295 l 292 288 b 265 313 274 288 265 296 b 267 325 265 317 264 320 b 318 484 283 379 300 430 b 342 507 323 499 330 507 b 366 493 350 507 357 501 z m 247 774 b 332 841 271 803 303 841 b 504 738 380 841 467 738 b 574 802 529 738 574 772 b 333 963 574 853 408 963 b 144 796 281 963 144 840 b 201 748 144 774 172 748 b 247 774 218 748 233 758 z m 880 1043 b 822 1116 885 1063 851 1109 b 545 921 728 1137 560 987 b 595 873 541 901 568 880 b 632 881 610 870 623 871 b 880 1043 755 1012 872 1006 z "},"":{"ha":771,"x_min":0,"x_max":0,"o":"m 482 593 b 21 142 290 593 21 329 b 171 -3 21 53 79 -3 b 464 167 269 -3 374 54 b 478 175 468 172 473 175 b 489 161 483 175 486 170 b 639 -11 511 48 568 -11 b 806 96 720 -11 806 45 b 766 142 806 121 787 142 b 684 123 743 142 721 123 b 591 310 630 123 595 180 l 589 364 b 591 365 589 364 591 364 b 596 366 593 365 594 366 b 673 437 636 366 673 399 b 482 593 673 529 582 593 z m 460 358 b 207 122 372 201 281 122 b 160 171 178 122 160 140 b 457 471 160 275 355 471 b 522 427 489 471 505 450 b 526 415 525 422 526 418 b 511 406 526 410 522 407 b 460 358 486 401 476 389 z m 346 687 b 431 754 370 716 402 754 b 603 651 479 754 566 651 b 673 715 628 651 673 685 b 432 876 673 766 507 876 b 243 709 380 876 243 753 b 300 661 243 687 271 661 b 346 687 317 661 332 671 z m 913 1103 b 834 1166 913 1125 867 1166 b 587 895 730 1166 587 968 b 651 856 587 873 621 856 b 688 872 667 856 681 859 b 913 1103 789 1040 913 1062 z "},"":{"ha":819,"x_min":0,"x_max":0,"o":"m 43 135 l 52 135 b 68 114 62 135 68 128 b 65 96 68 109 67 103 l 50 40 b 47 21 48 33 47 26 b 94 -25 47 -5 64 -22 l 115 -28 l 126 -28 b 180 17 154 -28 172 -13 l 211 129 b 248 160 216 148 228 158 b 574 183 356 171 463 178 b 615 161 591 183 605 176 b 747 -18 661 102 704 43 b 790 -45 760 -35 774 -45 b 825 -32 802 -45 812 -40 l 851 -14 b 879 29 869 -1 879 13 b 867 64 879 40 875 52 l 794 163 b 785 192 788 173 785 182 b 787 210 785 197 785 202 l 800 248 b 803 268 803 255 803 262 b 753 310 803 294 785 310 l 714 310 b 672 330 696 310 684 317 b 387 673 515 544 458 625 b 347 686 374 682 361 686 b 244 637 304 686 260 660 b 170 450 205 584 188 509 b 122 294 153 399 138 346 b 85 262 117 275 106 265 l 69 261 b 21 204 39 256 22 237 b 20 179 19 187 20 184 b 43 135 20 151 27 135 z m 366 493 b 482 345 406 444 444 395 b 490 323 488 336 490 330 b 461 301 490 311 479 303 b 298 288 407 298 353 295 l 292 288 b 265 313 274 288 265 296 b 267 325 265 317 264 320 b 318 484 283 379 300 430 b 342 507 323 499 330 507 b 366 493 350 507 357 501 z m 247 774 b 332 841 271 803 303 841 b 504 738 380 841 467 738 b 574 802 529 738 574 772 b 333 963 574 853 408 963 b 144 796 281 963 144 840 b 201 748 144 774 172 748 b 247 774 218 748 233 758 z m 288 1056 b 593 954 307 1019 427 1057 b 635 957 606 946 619 949 b 673 1021 661 970 684 1001 b 329 1148 640 1086 422 1196 b 288 1056 300 1134 277 1076 z "},"":{"ha":771,"x_min":0,"x_max":0,"o":"m 482 593 b 21 142 290 593 21 329 b 171 -3 21 53 79 -3 b 464 167 269 -3 374 54 b 478 175 468 172 473 175 b 489 161 483 175 486 170 b 639 -11 511 48 568 -11 b 806 96 720 -11 806 45 b 766 142 806 121 787 142 b 684 123 743 142 721 123 b 591 310 630 123 595 180 l 589 364 b 591 365 589 364 591 364 b 596 366 593 365 594 366 b 673 437 636 366 673 399 b 482 593 673 529 582 593 z m 460 358 b 207 122 372 201 281 122 b 160 171 178 122 160 140 b 457 471 160 275 355 471 b 522 427 489 471 505 450 b 526 415 525 422 526 418 b 511 406 526 410 522 407 b 460 358 486 401 476 389 z m 346 687 b 431 754 370 716 402 754 b 603 651 479 754 566 651 b 673 715 628 651 673 685 b 432 876 673 766 507 876 b 243 709 380 876 243 753 b 300 661 243 687 271 661 b 346 687 317 661 332 671 z m 494 956 b 806 876 515 922 633 967 b 847 882 819 869 832 873 b 881 948 873 897 892 929 b 528 1052 843 1011 618 1106 b 494 956 501 1035 483 975 z "},"":{"ha":819,"x_min":0,"x_max":0,"o":"m 43 135 l 52 135 b 68 114 62 135 68 128 b 65 96 68 109 67 103 l 50 40 b 47 21 48 33 47 26 b 94 -25 47 -5 64 -22 l 115 -28 l 126 -28 b 180 17 154 -28 172 -13 l 211 129 b 248 160 216 148 228 158 b 574 183 356 171 463 178 b 615 161 591 183 605 176 b 747 -18 661 102 704 43 b 790 -45 760 -35 774 -45 b 825 -32 802 -45 812 -40 l 851 -14 b 879 29 869 -1 879 13 b 867 64 879 40 875 52 l 794 163 b 785 192 788 173 785 182 b 787 210 785 197 785 202 l 800 248 b 803 268 803 255 803 262 b 753 310 803 294 785 310 l 714 310 b 672 330 696 310 684 317 b 387 673 515 544 458 625 b 347 686 374 682 361 686 b 244 637 304 686 260 660 b 170 450 205 584 188 509 b 122 294 153 399 138 346 b 85 262 117 275 106 265 l 69 261 b 21 204 39 256 22 237 b 20 179 19 187 20 184 b 43 135 20 151 27 135 z m 366 493 b 482 345 406 444 444 395 b 490 323 488 336 490 330 b 461 301 490 311 479 303 b 298 288 407 298 353 295 l 292 288 b 265 313 274 288 265 296 b 267 325 265 317 264 320 b 318 484 283 379 300 430 b 342 507 323 499 330 507 b 366 493 350 507 357 501 z m 247 774 b 332 841 271 803 303 841 b 504 738 380 841 467 738 b 574 802 529 738 574 772 b 333 963 574 853 408 963 b 144 796 281 963 144 840 b 201 748 144 774 172 748 b 247 774 218 748 233 758 z m 527 983 b 640 1041 571 1049 599 1050 b 684 981 668 1035 690 1009 b 596 928 680 960 671 941 b 561 900 580 926 564 917 b 618 840 554 869 588 838 b 782 966 705 848 767 897 b 668 1131 800 1044 749 1112 b 444 1043 576 1151 507 1130 b 434 1023 439 1038 435 1029 b 453 981 429 1000 446 985 b 484 962 462 974 473 965 b 527 983 502 959 518 967 z "},"":{"ha":771,"x_min":0,"x_max":0,"o":"m 482 593 b 21 142 290 593 21 329 b 171 -3 21 53 79 -3 b 464 167 269 -3 374 54 b 478 175 468 172 473 175 b 489 161 483 175 486 170 b 639 -11 511 48 568 -11 b 806 96 720 -11 806 45 b 766 142 806 121 787 142 b 684 123 743 142 721 123 b 591 310 630 123 595 180 l 589 364 b 591 365 589 364 591 364 b 596 366 593 365 594 366 b 673 437 636 366 673 399 b 482 593 673 529 582 593 z m 460 358 b 207 122 372 201 281 122 b 160 171 178 122 160 140 b 457 471 160 275 355 471 b 522 427 489 471 505 450 b 526 415 525 422 526 418 b 511 406 526 410 522 407 b 460 358 486 401 476 389 z m 346 687 b 431 754 370 716 402 754 b 603 651 479 754 566 651 b 673 715 628 651 673 685 b 432 876 673 766 507 876 b 243 709 380 876 243 753 b 300 661 243 687 271 661 b 346 687 317 661 332 671 z m 620 924 b 733 981 664 989 692 991 b 777 922 761 975 783 949 b 689 869 772 901 764 881 b 654 840 673 866 657 857 b 711 781 647 810 681 778 b 875 906 798 789 860 837 b 761 1071 892 985 842 1053 b 536 983 669 1091 600 1070 b 527 963 532 978 528 970 b 546 921 522 941 539 926 b 577 903 555 914 566 905 b 620 924 595 899 611 907 z "},"":{"ha":819,"x_min":0,"x_max":0,"o":"m 43 135 l 52 135 b 68 114 62 135 68 128 b 65 96 68 109 67 103 l 50 40 b 47 21 48 33 47 26 b 94 -25 47 -5 64 -22 l 115 -28 l 126 -28 b 180 17 154 -28 172 -13 l 211 129 b 248 160 216 148 228 158 b 574 183 356 171 463 178 b 615 161 591 183 605 176 b 747 -18 661 102 704 43 b 790 -45 760 -35 774 -45 b 825 -32 802 -45 812 -40 l 851 -14 b 879 29 869 -1 879 13 b 867 64 879 40 875 52 l 794 163 b 785 192 788 173 785 182 b 787 210 785 197 785 202 l 800 248 b 803 268 803 255 803 262 b 753 310 803 294 785 310 l 714 310 b 672 330 696 310 684 317 b 387 673 515 544 458 625 b 347 686 374 682 361 686 b 244 637 304 686 260 660 b 170 450 205 584 188 509 b 122 294 153 399 138 346 b 85 262 117 275 106 265 l 69 261 b 21 204 39 256 22 237 b 20 179 19 187 20 184 b 43 135 20 151 27 135 z m 366 493 b 482 345 406 444 444 395 b 490 323 488 336 490 330 b 461 301 490 311 479 303 b 298 288 407 298 353 295 l 292 288 b 265 313 274 288 265 296 b 267 325 265 317 264 320 b 318 484 283 379 300 430 b 342 507 323 499 330 507 b 366 493 350 507 357 501 z m 247 774 b 332 841 271 803 303 841 b 504 738 380 841 467 738 b 574 802 529 738 574 772 b 333 963 574 853 408 963 b 144 796 281 963 144 840 b 201 748 144 774 172 748 b 247 774 218 748 233 758 z m 255 998 b 340 1007 277 998 307 1007 b 519 987 380 1007 463 987 b 688 1063 598 987 688 1020 b 633 1131 688 1114 675 1131 b 507 1100 606 1131 558 1102 b 326 1121 443 1097 370 1121 b 211 1057 245 1121 211 1099 b 255 998 211 1019 227 998 z "},"":{"ha":771,"x_min":0,"x_max":0,"o":"m 482 593 b 21 142 290 593 21 329 b 171 -3 21 53 79 -3 b 464 167 269 -3 374 54 b 478 175 468 172 473 175 b 489 161 483 175 486 170 b 639 -11 511 48 568 -11 b 806 96 720 -11 806 45 b 766 142 806 121 787 142 b 684 123 743 142 721 123 b 591 310 630 123 595 180 l 589 364 b 591 365 589 364 591 364 b 596 366 593 365 594 366 b 673 437 636 366 673 399 b 482 593 673 529 582 593 z m 460 358 b 207 122 372 201 281 122 b 160 171 178 122 160 140 b 457 471 160 275 355 471 b 522 427 489 471 505 450 b 526 415 525 422 526 418 b 511 406 526 410 522 407 b 460 358 486 401 476 389 z m 346 687 b 431 754 370 716 402 754 b 603 651 479 754 566 651 b 673 715 628 651 673 685 b 432 876 673 766 507 876 b 243 709 380 876 243 753 b 300 661 243 687 271 661 b 346 687 317 661 332 671 z m 296 918 b 381 927 319 918 348 927 b 561 907 421 927 505 907 b 730 983 640 907 730 940 b 675 1050 730 1034 716 1050 b 548 1020 648 1050 600 1022 b 368 1041 484 1017 411 1041 b 252 977 286 1041 252 1019 b 296 918 252 939 269 918 z "},"":{"ha":819,"x_min":0,"x_max":0,"o":"m 43 135 l 52 135 b 68 114 62 135 68 128 b 65 96 68 109 67 103 l 50 40 b 47 21 48 33 47 26 b 94 -25 47 -5 64 -22 l 115 -28 l 126 -28 b 180 17 154 -28 172 -13 l 211 129 b 248 160 216 148 228 158 b 574 183 356 171 463 178 b 615 161 591 183 605 176 b 747 -18 661 102 704 43 b 790 -45 760 -35 774 -45 b 825 -32 802 -45 812 -40 l 851 -14 b 879 29 869 -1 879 13 b 867 64 879 40 875 52 l 794 163 b 785 192 788 173 785 182 b 787 210 785 197 785 202 l 800 248 b 803 268 803 255 803 262 b 753 310 803 294 785 310 l 714 310 b 672 330 696 310 684 317 b 387 673 515 544 458 625 b 347 686 374 682 361 686 b 244 637 304 686 260 660 b 170 450 205 584 188 509 b 122 294 153 399 138 346 b 85 262 117 275 106 265 l 69 261 b 21 204 39 256 22 237 b 20 179 19 187 20 184 b 43 135 20 151 27 135 z m 366 493 b 482 345 406 444 444 395 b 490 323 488 336 490 330 b 461 301 490 311 479 303 b 298 288 407 298 353 295 l 292 288 b 265 313 274 288 265 296 b 267 325 265 317 264 320 b 318 484 283 379 300 430 b 342 507 323 499 330 507 b 366 493 350 507 357 501 z m 446 -125 b 525 -62 494 -125 525 -101 b 435 17 525 -20 481 17 b 351 -47 384 17 351 -9 b 446 -125 351 -92 393 -125 z m 250 781 b 335 848 274 810 307 848 b 507 745 384 848 470 745 b 577 808 532 745 577 779 b 336 970 577 860 412 970 b 148 803 285 970 148 846 b 205 755 148 781 176 755 b 250 781 221 755 237 764 z "},"":{"ha":771,"x_min":0,"x_max":0,"o":"m 482 593 b 21 142 290 593 21 329 b 171 -3 21 53 79 -3 b 464 167 269 -3 374 54 b 478 175 468 172 473 175 b 489 161 483 175 486 170 b 639 -11 511 48 568 -11 b 806 96 720 -11 806 45 b 766 142 806 121 787 142 b 684 123 743 142 721 123 b 591 310 630 123 595 180 l 589 364 b 591 365 589 364 591 364 b 596 366 593 365 594 366 b 673 437 636 366 673 399 b 482 593 673 529 582 593 z m 460 358 b 207 122 372 201 281 122 b 160 171 178 122 160 140 b 457 471 160 275 355 471 b 522 427 489 471 505 450 b 526 415 525 422 526 418 b 511 406 526 410 522 407 b 460 358 486 401 476 389 z m 339 -224 b 418 -162 388 -224 418 -201 b 328 -83 418 -120 375 -83 b 245 -146 277 -83 245 -109 b 339 -224 245 -192 287 -224 z m 303 684 b 388 751 327 713 359 751 b 560 648 437 751 523 648 b 630 711 585 648 630 682 b 389 873 630 763 465 873 b 201 706 338 873 201 749 b 258 658 201 684 229 658 b 303 684 274 658 290 667 z "},"":{"ha":819,"x_min":0,"x_max":0,"o":"m 43 135 l 52 135 b 68 114 62 135 68 128 b 65 96 68 109 67 103 l 50 40 b 47 21 48 33 47 26 b 94 -25 47 -5 64 -22 l 115 -28 l 126 -28 b 180 17 154 -28 172 -13 l 211 129 b 248 160 216 148 228 158 b 574 183 356 171 463 178 b 615 161 591 183 605 176 b 747 -18 661 102 704 43 b 790 -45 760 -35 774 -45 b 825 -32 802 -45 812 -40 l 851 -14 b 879 29 869 -1 879 13 b 867 64 879 40 875 52 l 794 163 b 785 192 788 173 785 182 b 787 210 785 197 785 202 l 800 248 b 803 268 803 255 803 262 b 753 310 803 294 785 310 l 714 310 b 672 330 696 310 684 317 b 387 673 515 544 458 625 b 347 686 374 682 361 686 b 244 637 304 686 260 660 b 170 450 205 584 188 509 b 122 294 153 399 138 346 b 85 262 117 275 106 265 l 69 261 b 21 204 39 256 22 237 b 20 179 19 187 20 184 b 43 135 20 151 27 135 z m 366 493 b 482 345 406 444 444 395 b 490 323 488 336 490 330 b 461 301 490 311 479 303 b 298 288 407 298 353 295 l 292 288 b 265 313 274 288 265 296 b 267 325 265 317 264 320 b 318 484 283 379 300 430 b 342 507 323 499 330 507 b 366 493 350 507 357 501 z m 200 879 b 392 751 233 791 311 751 b 618 897 486 751 585 805 b 623 916 621 905 623 911 b 554 964 623 949 581 964 b 504 918 529 964 517 947 b 408 857 486 876 452 857 b 319 915 360 857 335 883 b 273 955 309 940 294 955 b 196 899 240 955 196 935 b 200 879 196 892 197 886 z m 720 1065 b 672 1155 728 1085 702 1142 b 338 1003 576 1196 367 1072 b 380 943 329 983 353 954 b 421 943 395 936 410 934 b 720 1065 581 1057 703 1027 z "},"":{"ha":771,"x_min":0,"x_max":0,"o":"m 482 593 b 21 142 290 593 21 329 b 171 -3 21 53 79 -3 b 464 167 269 -3 374 54 b 478 175 468 172 473 175 b 489 161 483 175 486 170 b 639 -11 511 48 568 -11 b 806 96 720 -11 806 45 b 766 142 806 121 787 142 b 684 123 743 142 721 123 b 591 310 630 123 595 180 l 589 364 b 591 365 589 364 591 364 b 596 366 593 365 594 366 b 673 437 636 366 673 399 b 482 593 673 529 582 593 z m 460 358 b 207 122 372 201 281 122 b 160 171 178 122 160 140 b 457 471 160 275 355 471 b 522 427 489 471 505 450 b 526 415 525 422 526 418 b 511 406 526 410 522 407 b 460 358 486 401 476 389 z m 186 787 b 378 659 218 699 296 659 b 604 804 472 659 571 713 b 608 824 607 813 608 819 b 540 871 608 857 566 871 b 490 825 515 871 503 854 b 394 764 471 784 437 764 b 305 823 346 764 321 791 b 259 863 294 848 280 863 b 182 807 226 863 182 842 b 186 787 182 800 183 793 z m 667 1034 b 614 1121 675 1055 644 1110 b 290 949 516 1156 315 1019 b 336 891 282 928 309 901 b 377 894 352 886 366 884 b 667 1034 528 1018 653 996 z "},"":{"ha":819,"x_min":0,"x_max":0,"o":"m 43 135 l 52 135 b 68 114 62 135 68 128 b 65 96 68 109 67 103 l 50 40 b 47 21 48 33 47 26 b 94 -25 47 -5 64 -22 l 115 -28 l 126 -28 b 180 17 154 -28 172 -13 l 211 129 b 248 160 216 148 228 158 b 574 183 356 171 463 178 b 615 161 591 183 605 176 b 747 -18 661 102 704 43 b 790 -45 760 -35 774 -45 b 825 -32 802 -45 812 -40 l 851 -14 b 879 29 869 -1 879 13 b 867 64 879 40 875 52 l 794 163 b 785 192 788 173 785 182 b 787 210 785 197 785 202 l 800 248 b 803 268 803 255 803 262 b 753 310 803 294 785 310 l 714 310 b 672 330 696 310 684 317 b 387 673 515 544 458 625 b 347 686 374 682 361 686 b 244 637 304 686 260 660 b 170 450 205 584 188 509 b 122 294 153 399 138 346 b 85 262 117 275 106 265 l 69 261 b 21 204 39 256 22 237 b 20 179 19 187 20 184 b 43 135 20 151 27 135 z m 366 493 b 482 345 406 444 444 395 b 490 323 488 336 490 330 b 461 301 490 311 479 303 b 298 288 407 298 353 295 l 292 288 b 265 313 274 288 265 296 b 267 325 265 317 264 320 b 318 484 283 379 300 430 b 342 507 323 499 330 507 b 366 493 350 507 357 501 z m 200 879 b 392 751 233 791 311 751 b 618 897 486 751 585 805 b 623 916 621 905 623 911 b 554 964 623 949 581 964 b 504 918 529 964 517 947 b 408 857 486 876 452 857 b 319 915 360 857 335 883 b 273 955 309 940 294 955 b 196 899 240 955 196 935 b 200 879 196 892 197 886 z m 95 1050 b 406 968 116 1015 234 1060 b 447 973 419 960 433 964 b 482 1039 473 989 493 1021 b 130 1145 444 1103 220 1199 b 95 1050 102 1128 83 1069 z "},"":{"ha":771,"x_min":0,"x_max":0,"o":"m 482 593 b 21 142 290 593 21 329 b 171 -3 21 53 79 -3 b 464 167 269 -3 374 54 b 478 175 468 172 473 175 b 489 161 483 175 486 170 b 639 -11 511 48 568 -11 b 806 96 720 -11 806 45 b 766 142 806 121 787 142 b 684 123 743 142 721 123 b 591 310 630 123 595 180 l 589 364 b 591 365 589 364 591 364 b 596 366 593 365 594 366 b 673 437 636 366 673 399 b 482 593 673 529 582 593 z m 460 358 b 207 122 372 201 281 122 b 160 171 178 122 160 140 b 457 471 160 275 355 471 b 522 427 489 471 505 450 b 526 415 525 422 526 418 b 511 406 526 410 522 407 b 460 358 486 401 476 389 z m 186 787 b 378 659 218 699 296 659 b 604 804 472 659 571 713 b 608 824 607 813 608 819 b 540 871 608 857 566 871 b 490 825 515 871 503 854 b 394 764 471 784 437 764 b 305 823 346 764 321 791 b 259 863 294 848 280 863 b 182 807 226 863 182 842 b 186 787 182 800 183 793 z m 170 1056 b 466 929 186 1019 309 1046 b 507 928 477 920 492 922 b 551 989 535 940 560 968 b 219 1145 523 1057 315 1185 b 170 1056 189 1133 162 1076 z "},"":{"ha":819,"x_min":0,"x_max":0,"o":"m 43 135 l 52 135 b 68 114 62 135 68 128 b 65 96 68 109 67 103 l 50 40 b 47 21 48 33 47 26 b 94 -25 47 -5 64 -22 l 115 -28 l 126 -28 b 180 17 154 -28 172 -13 l 211 129 b 248 160 216 148 228 158 b 574 183 356 171 463 178 b 615 161 591 183 605 176 b 747 -18 661 102 704 43 b 790 -45 760 -35 774 -45 b 825 -32 802 -45 812 -40 l 851 -14 b 879 29 869 -1 879 13 b 867 64 879 40 875 52 l 794 163 b 785 192 788 173 785 182 b 787 210 785 197 785 202 l 800 248 b 803 268 803 255 803 262 b 753 310 803 294 785 310 l 714 310 b 672 330 696 310 684 317 b 387 673 515 544 458 625 b 347 686 374 682 361 686 b 244 637 304 686 260 660 b 170 450 205 584 188 509 b 122 294 153 399 138 346 b 85 262 117 275 106 265 l 69 261 b 21 204 39 256 22 237 b 20 179 19 187 20 184 b 43 135 20 151 27 135 z m 366 493 b 482 345 406 444 444 395 b 490 323 488 336 490 330 b 461 301 490 311 479 303 b 298 288 407 298 353 295 l 292 288 b 265 313 274 288 265 296 b 267 325 265 317 264 320 b 318 484 283 379 300 430 b 342 507 323 499 330 507 b 366 493 350 507 357 501 z m 200 879 b 392 751 233 791 311 751 b 618 897 486 751 585 805 b 623 916 621 905 623 911 b 554 964 623 949 581 964 b 504 918 529 964 517 947 b 408 857 486 876 452 857 b 319 915 360 857 335 883 b 273 955 309 940 294 955 b 196 899 240 955 196 935 b 200 879 196 892 197 886 z m 293 1084 b 406 1142 337 1150 365 1152 b 450 1082 434 1136 456 1110 b 362 1029 446 1061 437 1042 b 327 1001 346 1027 330 1018 b 384 941 320 970 354 939 b 548 1067 471 949 533 998 b 434 1232 566 1145 515 1213 b 210 1144 342 1252 273 1231 b 200 1124 205 1139 201 1131 b 219 1082 195 1101 212 1086 b 250 1063 228 1075 239 1066 b 293 1084 268 1060 284 1068 z "},"":{"ha":771,"x_min":0,"x_max":0,"o":"m 482 593 b 21 142 290 593 21 329 b 171 -3 21 53 79 -3 b 464 167 269 -3 374 54 b 478 175 468 172 473 175 b 489 161 483 175 486 170 b 639 -11 511 48 568 -11 b 806 96 720 -11 806 45 b 766 142 806 121 787 142 b 684 123 743 142 721 123 b 591 310 630 123 595 180 l 589 364 b 591 365 589 364 591 364 b 596 366 593 365 594 366 b 673 437 636 366 673 399 b 482 593 673 529 582 593 z m 460 358 b 207 122 372 201 281 122 b 160 171 178 122 160 140 b 457 471 160 275 355 471 b 522 427 489 471 505 450 b 526 415 525 422 526 418 b 511 406 526 410 522 407 b 460 358 486 401 476 389 z m 186 787 b 378 659 218 699 296 659 b 604 804 472 659 571 713 b 608 824 607 813 608 819 b 540 871 608 857 566 871 b 490 825 515 871 503 854 b 394 764 471 784 437 764 b 305 823 346 764 321 791 b 259 863 294 848 280 863 b 182 807 226 863 182 842 b 186 787 182 800 183 793 z m 300 1006 b 413 1064 344 1072 372 1074 b 457 1004 441 1058 463 1032 b 369 951 452 983 444 964 b 334 923 353 949 337 940 b 391 863 327 892 361 861 b 555 989 478 871 540 920 b 441 1154 572 1067 522 1135 b 216 1066 349 1174 280 1153 b 207 1046 212 1061 208 1053 b 226 1004 201 1023 219 1008 b 257 985 235 997 245 988 b 300 1006 275 982 291 990 z "},"":{"ha":819,"x_min":0,"x_max":0,"o":"m 43 135 l 52 135 b 68 114 62 135 68 128 b 65 96 68 109 67 103 l 50 40 b 47 21 48 33 47 26 b 94 -25 47 -5 64 -22 l 115 -28 l 126 -28 b 180 17 154 -28 172 -13 l 211 129 b 248 160 216 148 228 158 b 574 183 356 171 463 178 b 615 161 591 183 605 176 b 747 -18 661 102 704 43 b 790 -45 760 -35 774 -45 b 825 -32 802 -45 812 -40 l 851 -14 b 879 29 869 -1 879 13 b 867 64 879 40 875 52 l 794 163 b 785 192 788 173 785 182 b 787 210 785 197 785 202 l 800 248 b 803 268 803 255 803 262 b 753 310 803 294 785 310 l 714 310 b 672 330 696 310 684 317 b 387 673 515 544 458 625 b 347 686 374 682 361 686 b 244 637 304 686 260 660 b 170 450 205 584 188 509 b 122 294 153 399 138 346 b 85 262 117 275 106 265 l 69 261 b 21 204 39 256 22 237 b 20 179 19 187 20 184 b 43 135 20 151 27 135 z m 366 493 b 482 345 406 444 444 395 b 490 323 488 336 490 330 b 461 301 490 311 479 303 b 298 288 407 298 353 295 l 292 288 b 265 313 274 288 265 296 b 267 325 265 317 264 320 b 318 484 283 379 300 430 b 342 507 323 499 330 507 b 366 493 350 507 357 501 z m 200 879 b 392 751 233 791 311 751 b 618 897 486 751 585 805 b 623 916 621 905 623 911 b 554 964 623 949 581 964 b 504 918 529 964 517 947 b 408 857 486 876 452 857 b 319 915 360 857 335 883 b 273 955 309 940 294 955 b 196 899 240 955 196 935 b 200 879 196 892 197 886 z m 189 993 b 274 1002 212 993 241 1002 b 454 983 314 1002 397 983 b 623 1058 532 983 623 1015 b 568 1126 623 1109 609 1126 b 441 1095 541 1126 492 1097 b 260 1116 377 1092 304 1116 b 145 1053 179 1116 145 1094 b 189 993 145 1015 161 993 z "},"":{"ha":771,"x_min":0,"x_max":0,"o":"m 482 593 b 21 142 290 593 21 329 b 171 -3 21 53 79 -3 b 464 167 269 -3 374 54 b 478 175 468 172 473 175 b 489 161 483 175 486 170 b 639 -11 511 48 568 -11 b 806 96 720 -11 806 45 b 766 142 806 121 787 142 b 684 123 743 142 721 123 b 591 310 630 123 595 180 l 589 364 b 591 365 589 364 591 364 b 596 366 593 365 594 366 b 673 437 636 366 673 399 b 482 593 673 529 582 593 z m 460 358 b 207 122 372 201 281 122 b 160 171 178 122 160 140 b 457 471 160 275 355 471 b 522 427 489 471 505 450 b 526 415 525 422 526 418 b 511 406 526 410 522 407 b 460 358 486 401 476 389 z m 186 787 b 378 659 218 699 296 659 b 604 804 472 659 571 713 b 608 824 607 813 608 819 b 540 871 608 857 566 871 b 490 825 515 871 503 854 b 394 764 471 784 437 764 b 305 823 346 764 321 791 b 259 863 294 848 280 863 b 182 807 226 863 182 842 b 186 787 182 800 183 793 z m 229 928 b 314 938 252 928 281 938 b 494 918 354 938 437 918 b 663 994 572 918 663 951 b 608 1061 663 1045 649 1061 b 481 1031 581 1061 532 1033 b 300 1052 417 1027 344 1052 b 185 988 219 1052 185 1029 b 229 928 185 950 201 928 z "},"":{"ha":819,"x_min":0,"x_max":0,"o":"m 43 135 l 52 135 b 68 114 62 135 68 128 b 65 96 68 109 67 103 l 50 40 b 47 21 48 33 47 26 b 94 -25 47 -5 64 -22 l 115 -28 l 126 -28 b 180 17 154 -28 172 -13 l 211 129 b 248 160 216 148 228 158 b 574 183 356 171 463 178 b 615 161 591 183 605 176 b 747 -18 661 102 704 43 b 790 -45 760 -35 774 -45 b 825 -32 802 -45 812 -40 l 851 -14 b 879 29 869 -1 879 13 b 867 64 879 40 875 52 l 794 163 b 785 192 788 173 785 182 b 787 210 785 197 785 202 l 800 248 b 803 268 803 255 803 262 b 753 310 803 294 785 310 l 714 310 b 672 330 696 310 684 317 b 387 673 515 544 458 625 b 347 686 374 682 361 686 b 244 637 304 686 260 660 b 170 450 205 584 188 509 b 122 294 153 399 138 346 b 85 262 117 275 106 265 l 69 261 b 21 204 39 256 22 237 b 20 179 19 187 20 184 b 43 135 20 151 27 135 z m 366 493 b 482 345 406 444 444 395 b 490 323 488 336 490 330 b 461 301 490 311 479 303 b 298 288 407 298 353 295 l 292 288 b 265 313 274 288 265 296 b 267 325 265 317 264 320 b 318 484 283 379 300 430 b 342 507 323 499 330 507 b 366 493 350 507 357 501 z m 446 -125 b 525 -62 494 -125 525 -101 b 435 17 525 -20 481 17 b 351 -47 384 17 351 -9 b 446 -125 351 -92 393 -125 z m 167 894 b 359 766 199 806 277 766 b 585 911 453 766 552 820 b 589 931 588 920 589 926 b 521 979 589 964 547 979 b 471 932 496 979 484 962 b 375 871 452 891 418 871 b 286 930 327 871 302 898 b 240 970 275 955 261 970 b 163 914 207 970 163 949 b 167 894 163 907 164 901 z "},"":{"ha":771,"x_min":0,"x_max":0,"o":"m 482 593 b 21 142 290 593 21 329 b 171 -3 21 53 79 -3 b 464 167 269 -3 374 54 b 478 175 468 172 473 175 b 489 161 483 175 486 170 b 639 -11 511 48 568 -11 b 806 96 720 -11 806 45 b 766 142 806 121 787 142 b 684 123 743 142 721 123 b 591 310 630 123 595 180 l 589 364 b 591 365 589 364 591 364 b 596 366 593 365 594 366 b 673 437 636 366 673 399 b 482 593 673 529 582 593 z m 460 358 b 207 122 372 201 281 122 b 160 171 178 122 160 140 b 457 471 160 275 355 471 b 522 427 489 471 505 450 b 526 415 525 422 526 418 b 511 406 526 410 522 407 b 460 358 486 401 476 389 z m 339 -224 b 418 -162 388 -224 418 -201 b 328 -83 418 -120 375 -83 b 245 -146 277 -83 245 -109 b 339 -224 245 -192 287 -224 z m 149 795 b 341 667 182 708 260 667 b 567 813 435 667 534 722 b 572 833 570 822 572 828 b 503 880 572 866 530 880 b 453 834 478 880 466 863 b 357 773 435 793 401 773 b 269 831 309 773 284 800 b 222 871 258 857 243 871 b 145 816 189 871 145 851 b 149 795 145 809 146 802 z "},"":{"ha":865,"x_min":0,"x_max":0,"o":"m 109 167 b 126 151 115 167 121 161 b 536 -43 189 10 326 -43 b 908 131 715 -43 908 12 b 819 221 908 176 871 221 b 734 147 778 221 734 183 b 745 114 734 134 745 124 b 539 81 745 81 579 81 b 277 179 447 81 282 120 b 302 193 277 184 278 187 b 663 278 384 212 630 267 b 717 339 703 289 717 313 b 715 351 717 344 715 347 b 673 400 711 379 699 400 b 248 310 623 400 312 310 b 227 379 229 310 227 349 l 227 407 b 245 429 227 420 233 427 b 796 530 431 454 618 478 b 847 587 832 542 847 564 b 806 653 847 615 844 653 b 782 650 799 653 791 652 b 237 551 606 606 281 551 b 172 570 220 551 210 570 b 64 475 79 570 64 510 b 87 407 64 437 85 425 b 92 302 90 363 92 332 b 75 282 92 292 85 287 b 28 221 43 268 28 245 b 75 163 28 186 50 163 b 109 167 83 163 103 167 z m 474 -257 b 553 -195 523 -257 553 -233 b 463 -115 553 -153 510 -115 b 380 -179 412 -115 380 -141 b 474 -257 380 -224 422 -257 z "},"":{"ha":717,"x_min":0,"x_max":0,"o":"m 633 149 b 400 65 567 96 478 65 b 241 155 318 65 241 109 b 272 180 241 171 254 180 l 507 204 b 664 338 604 213 664 264 b 424 528 664 444 557 528 b 115 318 295 528 172 443 b 75 292 108 300 94 292 l 65 292 b 21 245 37 292 26 278 l 20 232 b 18 220 19 230 18 226 b 71 172 18 189 37 172 b 98 142 86 172 90 167 b 387 -56 127 21 240 -56 b 710 60 504 -56 623 -12 b 730 98 724 72 730 85 b 711 143 730 111 725 122 b 672 165 697 159 686 165 b 633 149 659 165 646 160 z m 482 323 b 269 297 419 313 300 297 b 250 313 256 297 250 302 b 414 403 250 354 339 403 b 507 353 465 403 507 379 b 482 323 507 337 496 326 z m 414 -273 b 493 -210 463 -273 493 -249 b 403 -131 493 -168 450 -131 b 319 -195 352 -131 319 -157 b 414 -273 319 -240 361 -273 z "},"":{"ha":865,"x_min":0,"x_max":0,"o":"m 109 167 b 126 151 115 167 121 161 b 536 -43 189 10 326 -43 b 908 131 715 -43 908 12 b 819 221 908 176 871 221 b 734 147 778 221 734 183 b 745 114 734 134 745 124 b 539 81 745 81 579 81 b 277 179 447 81 282 120 b 302 193 277 184 278 187 b 663 278 384 212 630 267 b 717 339 703 289 717 313 b 715 351 717 344 715 347 b 673 400 711 379 699 400 b 248 310 623 400 312 310 b 227 379 229 310 227 349 l 227 407 b 245 429 227 420 233 427 b 796 530 431 454 618 478 b 847 587 832 542 847 564 b 806 653 847 615 844 653 b 782 650 799 653 791 652 b 237 551 606 606 281 551 b 172 570 220 551 210 570 b 64 475 79 570 64 510 b 87 407 64 437 85 425 b 92 302 90 363 92 332 b 75 282 92 292 85 287 b 28 221 43 268 28 245 b 75 163 28 186 50 163 b 109 167 83 163 103 167 z m 341 825 b 454 883 385 891 413 892 b 498 823 482 877 505 851 b 410 770 494 802 485 783 b 375 742 394 768 378 759 b 432 682 368 711 402 680 b 596 808 519 690 581 739 b 482 972 614 886 564 954 b 258 885 390 993 321 972 b 248 865 254 880 250 871 b 267 823 243 842 260 827 b 298 804 276 816 287 807 b 341 825 316 801 332 809 z "},"":{"ha":717,"x_min":0,"x_max":0,"o":"m 633 149 b 400 65 567 96 478 65 b 241 155 318 65 241 109 b 272 180 241 171 254 180 l 507 204 b 664 338 604 213 664 264 b 424 528 664 444 557 528 b 115 318 295 528 172 443 b 75 292 108 300 94 292 l 65 292 b 21 245 37 292 26 278 l 20 232 b 18 220 19 230 18 226 b 71 172 18 189 37 172 b 98 142 86 172 90 167 b 387 -56 127 21 240 -56 b 710 60 504 -56 623 -12 b 730 98 724 72 730 85 b 711 143 730 111 725 122 b 672 165 697 159 686 165 b 633 149 659 165 646 160 z m 482 323 b 269 297 419 313 300 297 b 250 313 256 297 250 302 b 414 403 250 354 339 403 b 507 353 465 403 507 379 b 482 323 507 337 496 326 z m 256 723 b 370 781 300 789 328 790 b 414 721 397 774 420 749 b 326 668 409 700 400 680 b 290 640 309 665 294 656 b 347 580 283 609 317 577 b 511 705 435 588 496 636 b 397 870 529 784 479 852 b 173 783 305 890 237 869 b 163 762 169 777 165 769 b 182 720 158 740 176 725 b 214 702 191 713 202 705 b 256 723 231 699 248 707 z "},"":{"ha":865,"x_min":0,"x_max":0,"o":"m 109 167 b 126 151 115 167 121 161 b 536 -43 189 10 326 -43 b 908 131 715 -43 908 12 b 819 221 908 176 871 221 b 734 147 778 221 734 183 b 745 114 734 134 745 124 b 539 81 745 81 579 81 b 277 179 447 81 282 120 b 302 193 277 184 278 187 b 663 278 384 212 630 267 b 717 339 703 289 717 313 b 715 351 717 344 715 347 b 673 400 711 379 699 400 b 248 310 623 400 312 310 b 227 379 229 310 227 349 l 227 407 b 245 429 227 420 233 427 b 796 530 431 454 618 478 b 847 587 832 542 847 564 b 806 653 847 615 844 653 b 782 650 799 653 791 652 b 237 551 606 606 281 551 b 172 570 220 551 210 570 b 64 475 79 570 64 510 b 87 407 64 437 85 425 b 92 302 90 363 92 332 b 75 282 92 292 85 287 b 28 221 43 268 28 245 b 75 163 28 186 50 163 b 109 167 83 163 103 167 z m 241 707 b 326 717 264 707 293 717 b 506 697 366 717 450 697 b 675 772 585 697 675 730 b 620 840 675 824 661 840 b 493 810 593 840 545 812 b 313 831 429 806 356 831 b 197 767 231 831 197 808 b 241 707 197 729 214 707 z "},"":{"ha":717,"x_min":0,"x_max":0,"o":"m 633 149 b 400 65 567 96 478 65 b 241 155 318 65 241 109 b 272 180 241 171 254 180 l 507 204 b 664 338 604 213 664 264 b 424 528 664 444 557 528 b 115 318 295 528 172 443 b 75 292 108 300 94 292 l 65 292 b 21 245 37 292 26 278 l 20 232 b 18 220 19 230 18 226 b 71 172 18 189 37 172 b 98 142 86 172 90 167 b 387 -56 127 21 240 -56 b 710 60 504 -56 623 -12 b 730 98 724 72 730 85 b 711 143 730 111 725 122 b 672 165 697 159 686 165 b 633 149 659 165 646 160 z m 482 323 b 269 297 419 313 300 297 b 250 313 256 297 250 302 b 414 403 250 354 339 403 b 507 353 465 403 507 379 b 482 323 507 337 496 326 z m 165 658 b 250 667 187 658 216 667 b 429 648 290 667 373 648 b 598 723 508 648 598 680 b 543 791 598 774 585 791 b 416 760 516 791 468 762 b 236 781 353 757 279 781 b 121 718 155 781 121 759 b 165 658 121 680 137 658 z "},"":{"ha":865,"x_min":0,"x_max":0,"o":"m 109 167 b 126 151 115 167 121 161 b 536 -43 189 10 326 -43 b 908 131 715 -43 908 12 b 819 221 908 176 871 221 b 734 147 778 221 734 183 b 745 114 734 134 745 124 b 539 81 745 81 579 81 b 277 179 447 81 282 120 b 302 193 277 184 278 187 b 663 278 384 212 630 267 b 717 339 703 289 717 313 b 715 351 717 344 715 347 b 673 400 711 379 699 400 b 248 310 623 400 312 310 b 227 379 229 310 227 349 l 227 407 b 245 429 227 420 233 427 b 796 530 431 454 618 478 b 847 587 832 542 847 564 b 806 653 847 615 844 653 b 782 650 799 653 791 652 b 237 551 606 606 281 551 b 172 570 220 551 210 570 b 64 475 79 570 64 510 b 87 407 64 437 85 425 b 92 302 90 363 92 332 b 75 282 92 292 85 287 b 28 221 43 268 28 245 b 75 163 28 186 50 163 b 109 167 83 163 103 167 z m 329 734 b 414 802 353 764 385 802 b 586 699 463 802 549 699 b 656 762 611 699 656 732 b 415 924 656 814 490 924 b 227 757 363 924 227 800 b 283 709 227 734 254 709 b 329 734 300 709 315 718 z m 1021 971 b 963 1044 1026 991 992 1038 b 686 849 869 1065 701 916 b 736 802 682 829 709 808 b 773 809 751 798 764 799 b 1021 971 897 940 1013 935 z "},"":{"ha":717,"x_min":0,"x_max":0,"o":"m 633 149 b 400 65 567 96 478 65 b 241 155 318 65 241 109 b 272 180 241 171 254 180 l 507 204 b 664 338 604 213 664 264 b 424 528 664 444 557 528 b 115 318 295 528 172 443 b 75 292 108 300 94 292 l 65 292 b 21 245 37 292 26 278 l 20 232 b 18 220 19 230 18 226 b 71 172 18 189 37 172 b 98 142 86 172 90 167 b 387 -56 127 21 240 -56 b 710 60 504 -56 623 -12 b 730 98 724 72 730 85 b 711 143 730 111 725 122 b 672 165 697 159 686 165 b 633 149 659 165 646 160 z m 482 323 b 269 297 419 313 300 297 b 250 313 256 297 250 302 b 414 403 250 354 339 403 b 507 353 465 403 507 379 b 482 323 507 337 496 326 z m 304 624 b 389 691 328 653 361 691 b 562 588 438 691 524 588 b 631 652 587 588 631 622 b 391 813 631 703 466 813 b 202 646 339 813 202 690 b 259 598 202 624 230 598 b 304 624 275 598 291 608 z m 904 1021 b 825 1084 904 1043 857 1084 b 578 812 721 1084 578 886 b 642 774 578 791 612 774 b 679 790 658 774 671 777 b 904 1021 779 958 904 980 z "},"":{"ha":865,"x_min":0,"x_max":0,"o":"m 109 167 b 126 151 115 167 121 161 b 536 -43 189 10 326 -43 b 908 131 715 -43 908 12 b 819 221 908 176 871 221 b 734 147 778 221 734 183 b 745 114 734 134 745 124 b 539 81 745 81 579 81 b 277 179 447 81 282 120 b 302 193 277 184 278 187 b 663 278 384 212 630 267 b 717 339 703 289 717 313 b 715 351 717 344 715 347 b 673 400 711 379 699 400 b 248 310 623 400 312 310 b 227 379 229 310 227 349 l 227 407 b 245 429 227 420 233 427 b 796 530 431 454 618 478 b 847 587 832 542 847 564 b 806 653 847 615 844 653 b 782 650 799 653 791 652 b 237 551 606 606 281 551 b 172 570 220 551 210 570 b 64 475 79 570 64 510 b 87 407 64 437 85 425 b 92 302 90 363 92 332 b 75 282 92 292 85 287 b 28 221 43 268 28 245 b 75 163 28 186 50 163 b 109 167 83 163 103 167 z m 329 734 b 414 802 353 764 385 802 b 586 699 463 802 549 699 b 656 762 611 699 656 732 b 415 924 656 814 490 924 b 227 757 363 924 227 800 b 283 709 227 734 254 709 b 329 734 300 709 315 718 z m 482 989 b 766 838 494 950 619 968 b 808 835 777 829 791 829 b 857 891 836 844 863 870 b 537 1074 833 962 637 1106 b 482 989 507 1064 475 1010 z "},"":{"ha":717,"x_min":0,"x_max":0,"o":"m 633 149 b 400 65 567 96 478 65 b 241 155 318 65 241 109 b 272 180 241 171 254 180 l 507 204 b 664 338 604 213 664 264 b 424 528 664 444 557 528 b 115 318 295 528 172 443 b 75 292 108 300 94 292 l 65 292 b 21 245 37 292 26 278 l 20 232 b 18 220 19 230 18 226 b 71 172 18 189 37 172 b 98 142 86 172 90 167 b 387 -56 127 21 240 -56 b 710 60 504 -56 623 -12 b 730 98 724 72 730 85 b 711 143 730 111 725 122 b 672 165 697 159 686 165 b 633 149 659 165 646 160 z m 482 323 b 269 297 419 313 300 297 b 250 313 256 297 250 302 b 414 403 250 354 339 403 b 507 353 465 403 507 379 b 482 323 507 337 496 326 z m 304 624 b 389 691 328 653 361 691 b 562 588 438 691 524 588 b 631 652 587 588 631 622 b 391 813 631 703 466 813 b 202 646 339 813 202 690 b 259 598 202 624 230 598 b 304 624 275 598 291 608 z m 462 947 b 717 751 467 907 593 903 b 757 741 726 739 740 738 b 814 787 786 745 817 766 b 530 1021 804 861 634 1036 b 462 947 499 1017 458 969 z "},"":{"ha":865,"x_min":0,"x_max":0,"o":"m 109 167 b 126 151 115 167 121 161 b 536 -43 189 10 326 -43 b 908 131 715 -43 908 12 b 819 221 908 176 871 221 b 734 147 778 221 734 183 b 745 114 734 134 745 124 b 539 81 745 81 579 81 b 277 179 447 81 282 120 b 302 193 277 184 278 187 b 663 278 384 212 630 267 b 717 339 703 289 717 313 b 715 351 717 344 715 347 b 673 400 711 379 699 400 b 248 310 623 400 312 310 b 227 379 229 310 227 349 l 227 407 b 245 429 227 420 233 427 b 796 530 431 454 618 478 b 847 587 832 542 847 564 b 806 653 847 615 844 653 b 782 650 799 653 791 652 b 237 551 606 606 281 551 b 172 570 220 551 210 570 b 64 475 79 570 64 510 b 87 407 64 437 85 425 b 92 302 90 363 92 332 b 75 282 92 292 85 287 b 28 221 43 268 28 245 b 75 163 28 186 50 163 b 109 167 83 163 103 167 z m 329 734 b 414 802 353 764 385 802 b 586 699 463 802 549 699 b 656 762 611 699 656 732 b 415 924 656 814 490 924 b 227 757 363 924 227 800 b 283 709 227 734 254 709 b 329 734 300 709 315 718 z m 631 964 b 744 1022 675 1030 703 1031 b 788 962 772 1016 794 990 b 700 909 783 941 774 922 b 665 881 684 907 668 898 b 722 821 658 850 692 819 b 886 947 809 829 871 878 b 772 1112 903 1025 853 1093 b 547 1024 680 1132 611 1111 b 538 1004 543 1019 539 1010 b 557 962 532 981 550 966 b 588 943 566 955 576 946 b 631 964 606 940 622 948 z "},"":{"ha":717,"x_min":0,"x_max":0,"o":"m 633 149 b 400 65 567 96 478 65 b 241 155 318 65 241 109 b 272 180 241 171 254 180 l 507 204 b 664 338 604 213 664 264 b 424 528 664 444 557 528 b 115 318 295 528 172 443 b 75 292 108 300 94 292 l 65 292 b 21 245 37 292 26 278 l 20 232 b 18 220 19 230 18 226 b 71 172 18 189 37 172 b 98 142 86 172 90 167 b 387 -56 127 21 240 -56 b 710 60 504 -56 623 -12 b 730 98 724 72 730 85 b 711 143 730 111 725 122 b 672 165 697 159 686 165 b 633 149 659 165 646 160 z m 482 323 b 269 297 419 313 300 297 b 250 313 256 297 250 302 b 414 403 250 354 339 403 b 507 353 465 403 507 379 b 482 323 507 337 496 326 z m 304 624 b 389 691 328 653 361 691 b 562 588 438 691 524 588 b 631 652 587 588 631 622 b 391 813 631 703 466 813 b 202 646 339 813 202 690 b 259 598 202 624 230 598 b 304 624 275 598 291 608 z m 559 873 b 673 930 604 939 631 940 b 717 871 701 924 723 899 b 629 818 712 850 703 830 b 593 789 612 815 597 806 b 650 730 587 759 621 727 b 814 855 738 738 800 786 b 701 1020 832 934 782 1002 b 476 932 608 1040 540 1019 b 467 912 472 927 468 919 b 486 870 461 890 479 875 b 517 852 494 863 505 854 b 559 873 534 848 551 857 z "},"":{"ha":865,"x_min":0,"x_max":0,"o":"m 109 167 b 126 151 115 167 121 161 b 536 -43 189 10 326 -43 b 908 131 715 -43 908 12 b 819 221 908 176 871 221 b 734 147 778 221 734 183 b 745 114 734 134 745 124 b 539 81 745 81 579 81 b 277 179 447 81 282 120 b 302 193 277 184 278 187 b 663 278 384 212 630 267 b 717 339 703 289 717 313 b 715 351 717 344 715 347 b 673 400 711 379 699 400 b 248 310 623 400 312 310 b 227 379 229 310 227 349 l 227 407 b 245 429 227 420 233 427 b 796 530 431 454 618 478 b 847 587 832 542 847 564 b 806 653 847 615 844 653 b 782 650 799 653 791 652 b 237 551 606 606 281 551 b 172 570 220 551 210 570 b 64 475 79 570 64 510 b 87 407 64 437 85 425 b 92 302 90 363 92 332 b 75 282 92 292 85 287 b 28 221 43 268 28 245 b 75 163 28 186 50 163 b 109 167 83 163 103 167 z m 329 734 b 414 802 353 764 385 802 b 586 699 463 802 549 699 b 656 762 611 699 656 732 b 415 924 656 814 490 924 b 227 757 363 924 227 800 b 283 709 227 734 254 709 b 329 734 300 709 315 718 z m 298 968 b 382 978 320 968 349 978 b 562 958 422 978 506 958 b 731 1034 641 958 731 991 b 676 1101 731 1085 718 1101 b 549 1071 649 1101 601 1073 b 369 1092 486 1067 412 1092 b 254 1028 288 1092 254 1069 b 298 968 254 990 270 968 z "},"":{"ha":717,"x_min":0,"x_max":0,"o":"m 633 149 b 400 65 567 96 478 65 b 241 155 318 65 241 109 b 272 180 241 171 254 180 l 507 204 b 664 338 604 213 664 264 b 424 528 664 444 557 528 b 115 318 295 528 172 443 b 75 292 108 300 94 292 l 65 292 b 21 245 37 292 26 278 l 20 232 b 18 220 19 230 18 226 b 71 172 18 189 37 172 b 98 142 86 172 90 167 b 387 -56 127 21 240 -56 b 710 60 504 -56 623 -12 b 730 98 724 72 730 85 b 711 143 730 111 725 122 b 672 165 697 159 686 165 b 633 149 659 165 646 160 z m 482 323 b 269 297 419 313 300 297 b 250 313 256 297 250 302 b 414 403 250 354 339 403 b 507 353 465 403 507 379 b 482 323 507 337 496 326 z m 304 624 b 389 691 328 653 361 691 b 562 588 438 691 524 588 b 631 652 587 588 631 622 b 391 813 631 703 466 813 b 202 646 339 813 202 690 b 259 598 202 624 230 598 b 304 624 275 598 291 608 z m 220 861 b 304 871 242 861 271 871 b 484 851 345 871 428 851 b 653 926 563 851 653 884 b 598 994 653 978 640 994 b 471 964 571 994 523 966 b 291 985 408 960 334 985 b 176 921 210 985 176 962 b 220 861 176 883 192 861 z "},"":{"ha":865,"x_min":0,"x_max":0,"o":"m 109 167 b 126 151 115 167 121 161 b 536 -43 189 10 326 -43 b 908 131 715 -43 908 12 b 819 221 908 176 871 221 b 734 147 778 221 734 183 b 745 114 734 134 745 124 b 539 81 745 81 579 81 b 277 179 447 81 282 120 b 302 193 277 184 278 187 b 663 278 384 212 630 267 b 717 339 703 289 717 313 b 715 351 717 344 715 347 b 673 400 711 379 699 400 b 248 310 623 400 312 310 b 227 379 229 310 227 349 l 227 407 b 245 429 227 420 233 427 b 796 530 431 454 618 478 b 847 587 832 542 847 564 b 806 653 847 615 844 653 b 782 650 799 653 791 652 b 237 551 606 606 281 551 b 172 570 220 551 210 570 b 64 475 79 570 64 510 b 87 407 64 437 85 425 b 92 302 90 363 92 332 b 75 282 92 292 85 287 b 28 221 43 268 28 245 b 75 163 28 186 50 163 b 109 167 83 163 103 167 z m 474 -257 b 553 -195 523 -257 553 -233 b 463 -115 553 -153 510 -115 b 380 -179 412 -115 380 -141 b 474 -257 380 -224 422 -257 z m 356 724 b 441 791 380 753 412 791 b 613 688 490 791 576 688 b 683 752 638 688 683 722 b 442 913 683 804 517 913 b 254 747 391 913 254 790 b 311 699 254 724 281 699 b 356 724 327 699 342 708 z "},"":{"ha":717,"x_min":0,"x_max":0,"o":"m 633 149 b 400 65 567 96 478 65 b 241 155 318 65 241 109 b 272 180 241 171 254 180 l 507 204 b 664 338 604 213 664 264 b 424 528 664 444 557 528 b 115 318 295 528 172 443 b 75 292 108 300 94 292 l 65 292 b 21 245 37 292 26 278 l 20 232 b 18 220 19 230 18 226 b 71 172 18 189 37 172 b 98 142 86 172 90 167 b 387 -56 127 21 240 -56 b 710 60 504 -56 623 -12 b 730 98 724 72 730 85 b 711 143 730 111 725 122 b 672 165 697 159 686 165 b 633 149 659 165 646 160 z m 482 323 b 269 297 419 313 300 297 b 250 313 256 297 250 302 b 414 403 250 354 339 403 b 507 353 465 403 507 379 b 482 323 507 337 496 326 z m 414 -273 b 493 -210 463 -273 493 -249 b 403 -131 493 -168 450 -131 b 319 -195 352 -131 319 -157 b 414 -273 319 -240 361 -273 z m 323 625 b 408 692 347 654 379 692 b 580 589 456 692 543 589 b 650 652 605 589 650 623 b 409 814 650 704 484 814 b 220 647 357 814 220 690 b 277 599 220 625 248 599 b 323 625 294 599 309 608 z "},"":{"ha":334,"x_min":0,"x_max":0,"o":"m 69 633 b 115 28 69 581 115 340 b 160 -11 115 3 132 -11 b 254 57 222 -11 254 12 b 214 650 254 224 244 410 b 149 692 209 679 191 692 b 69 633 104 692 69 665 z m 68 901 b 181 959 112 967 140 968 b 225 899 209 953 231 927 b 137 846 220 878 212 859 b 102 818 121 844 105 835 b 159 758 95 787 129 755 b 323 884 246 766 308 814 b 209 1048 340 962 290 1030 b -16 961 117 1069 48 1048 b -25 941 -20 956 -24 947 b -6 899 -31 918 -13 903 b 25 880 3 892 14 883 b 68 901 43 877 59 885 z "},"":{"ha":301,"x_min":0,"x_max":0,"o":"m 62 457 b 90 -28 79 294 90 136 b 135 -66 90 -56 110 -66 b 229 1 175 -66 229 -36 b 201 484 229 164 217 323 b 150 511 198 504 166 511 b 62 457 106 511 62 489 z m 64 757 b 177 814 108 823 136 824 b 221 755 205 808 227 783 b 133 702 216 734 208 714 b 98 673 117 699 101 690 b 155 614 91 643 125 611 b 319 739 242 622 304 670 b 205 904 336 818 286 886 b -20 817 113 924 44 903 b -29 796 -24 811 -28 803 b -10 754 -35 774 -17 759 b 21 736 -1 747 9 739 b 64 757 39 732 55 741 z "},"":{"ha":334,"x_min":0,"x_max":0,"o":"m 69 633 b 115 28 69 581 115 340 b 160 -11 115 3 132 -11 b 254 57 222 -11 254 12 b 214 650 254 224 244 410 b 149 692 209 679 191 692 b 69 633 104 692 69 665 z m 163 -243 b 243 -181 212 -243 243 -220 b 153 -102 243 -139 199 -102 b 69 -165 102 -102 69 -127 b 163 -243 69 -211 111 -243 z "},"":{"ha":301,"x_min":0,"x_max":0,"o":"m 158 692 b 237 754 207 692 237 715 b 147 833 237 796 194 833 b 64 770 96 833 64 808 b 158 692 64 724 106 692 z m 65 485 b 93 0 65 444 93 250 b 138 -39 93 -25 110 -39 b 232 29 199 -39 232 -16 b 205 497 232 159 216 382 b 140 539 203 525 181 539 b 65 485 95 539 65 517 z m 169 -325 b 248 -262 218 -325 248 -301 b 158 -183 248 -220 205 -183 b 75 -247 107 -183 75 -209 b 169 -325 75 -292 117 -325 z "},"":{"ha":836,"x_min":0,"x_max":0,"o":"m 376 -85 b 807 310 618 -85 807 87 b 428 632 807 509 661 632 b 49 479 239 632 49 555 b 71 422 49 454 71 440 b 65 404 71 419 68 413 b 39 256 49 361 39 310 b 376 -85 39 56 179 -85 z m 671 283 b 406 39 671 140 561 39 b 175 283 270 39 175 139 b 400 509 175 433 251 509 b 671 283 571 509 671 425 z m 382 -304 b 462 -242 431 -304 462 -281 b 372 -163 462 -200 418 -163 b 288 -227 321 -163 288 -189 b 382 -304 288 -272 330 -304 z "},"":{"ha":721,"x_min":0,"x_max":0,"o":"m 65 225 b 364 -62 65 60 192 -62 b 689 245 541 -62 689 79 b 375 553 689 416 549 553 b 40 425 273 553 147 505 b 7 366 18 408 7 387 b 71 282 7 307 71 312 b 65 225 71 260 65 241 z m 379 60 b 203 265 278 60 203 148 b 358 424 203 373 258 424 b 553 231 469 424 553 339 b 379 60 553 123 454 60 z m 390 -309 b 469 -247 439 -309 469 -286 b 379 -168 469 -205 426 -168 b 296 -231 328 -168 296 -193 b 390 -309 296 -277 338 -309 z "},"":{"ha":836,"x_min":0,"x_max":0,"o":"m 376 -85 b 807 310 618 -85 807 87 b 428 632 807 509 661 632 b 49 479 239 632 49 555 b 71 422 49 454 71 440 b 65 404 71 419 68 413 b 39 256 49 361 39 310 b 376 -85 39 56 179 -85 z m 671 283 b 406 39 671 140 561 39 b 175 283 270 39 175 139 b 400 509 175 433 251 509 b 671 283 571 509 671 425 z m 376 841 b 490 899 420 907 448 908 b 534 839 517 892 540 867 b 446 786 529 818 520 798 b 410 758 429 783 414 774 b 467 698 404 727 437 695 b 631 823 555 706 616 754 b 517 988 649 902 599 970 b 293 901 425 1008 357 987 b 283 880 289 895 285 887 b 302 838 278 858 296 843 b 334 820 311 831 322 823 b 376 841 351 817 368 825 z "},"":{"ha":721,"x_min":0,"x_max":0,"o":"m 65 225 b 364 -62 65 60 192 -62 b 689 245 541 -62 689 79 b 375 553 689 416 549 553 b 40 425 273 553 147 505 b 7 366 18 408 7 387 b 71 282 7 307 71 312 b 65 225 71 260 65 241 z m 379 60 b 203 265 278 60 203 148 b 358 424 203 373 258 424 b 553 231 469 424 553 339 b 379 60 553 123 454 60 z m 283 756 b 397 814 328 822 355 823 b 441 754 425 808 447 782 b 353 701 436 733 427 713 b 317 673 336 699 321 690 b 374 613 311 642 345 610 b 538 739 462 621 524 669 b 425 903 556 817 506 885 b 200 816 332 924 264 903 b 191 795 196 810 192 802 b 210 753 185 773 203 758 b 241 735 218 747 229 738 b 283 756 258 732 275 740 z "},"":{"ha":836,"x_min":0,"x_max":0,"o":"m 376 -85 b 807 310 618 -85 807 87 b 428 632 807 509 661 632 b 49 479 239 632 49 555 b 71 422 49 454 71 440 b 65 404 71 419 68 413 b 39 256 49 361 39 310 b 376 -85 39 56 179 -85 z m 671 283 b 406 39 671 140 561 39 b 175 283 270 39 175 139 b 400 509 175 433 251 509 b 671 283 571 509 671 425 z m 338 737 b 422 804 361 766 394 804 b 595 701 471 804 557 701 b 665 765 620 701 665 735 b 424 926 665 817 499 926 b 235 760 372 926 235 803 b 292 711 235 737 263 711 b 338 737 309 711 324 721 z m 1020 981 b 962 1055 1025 1002 991 1048 b 685 859 868 1075 700 926 b 735 812 681 840 708 818 b 772 819 749 808 763 809 b 1020 981 895 950 1012 945 z "},"":{"ha":721,"x_min":0,"x_max":0,"o":"m 65 225 b 364 -62 65 60 192 -62 b 689 245 541 -62 689 79 b 375 553 689 416 549 553 b 40 425 273 553 147 505 b 7 366 18 408 7 387 b 71 282 7 307 71 312 b 65 225 71 260 65 241 z m 379 60 b 203 265 278 60 203 148 b 358 424 203 373 258 424 b 553 231 469 424 553 339 b 379 60 553 123 454 60 z m 263 645 b 348 712 287 674 319 712 b 520 609 397 712 483 609 b 590 673 545 609 590 643 b 349 834 590 724 425 834 b 161 667 298 834 161 711 b 218 619 161 645 189 619 b 263 645 234 619 250 629 z m 822 1046 b 743 1109 822 1068 775 1109 b 496 838 639 1109 496 911 b 559 799 496 816 530 799 b 597 815 576 799 589 802 b 822 1046 697 983 822 1005 z "},"":{"ha":836,"x_min":0,"x_max":0,"o":"m 376 -85 b 807 310 618 -85 807 87 b 428 632 807 509 661 632 b 49 479 239 632 49 555 b 71 422 49 454 71 440 b 65 404 71 419 68 413 b 39 256 49 361 39 310 b 376 -85 39 56 179 -85 z m 671 283 b 406 39 671 140 561 39 b 175 283 270 39 175 139 b 400 509 175 433 251 509 b 671 283 571 509 671 425 z m 338 737 b 422 804 361 766 394 804 b 595 701 471 804 557 701 b 665 765 620 701 665 735 b 424 926 665 817 499 926 b 235 760 372 926 235 803 b 292 711 235 737 263 711 b 338 737 309 711 324 721 z m 564 991 b 788 760 564 950 688 928 b 826 744 795 747 809 744 b 890 783 856 744 890 761 b 642 1055 890 857 747 1055 b 564 991 610 1055 564 1013 z "},"":{"ha":721,"x_min":0,"x_max":0,"o":"m 65 225 b 364 -62 65 60 192 -62 b 689 245 541 -62 689 79 b 375 553 689 416 549 553 b 40 425 273 553 147 505 b 7 366 18 408 7 387 b 71 282 7 307 71 312 b 65 225 71 260 65 241 z m 379 60 b 203 265 278 60 203 148 b 358 424 203 373 258 424 b 553 231 469 424 553 339 b 379 60 553 123 454 60 z m 263 645 b 348 712 287 674 319 712 b 520 609 397 712 483 609 b 590 673 545 609 590 643 b 349 834 590 724 425 834 b 161 667 298 834 161 711 b 218 619 161 645 189 619 b 263 645 234 619 250 629 z m 366 957 b 656 818 380 919 505 941 b 698 816 667 808 682 810 b 744 874 726 826 751 853 b 418 1044 719 943 517 1080 b 366 957 389 1033 359 978 z "},"":{"ha":836,"x_min":0,"x_max":0,"o":"m 376 -85 b 807 310 618 -85 807 87 b 428 632 807 509 661 632 b 49 479 239 632 49 555 b 71 422 49 454 71 440 b 65 404 71 419 68 413 b 39 256 49 361 39 310 b 376 -85 39 56 179 -85 z m 671 283 b 406 39 671 140 561 39 b 175 283 270 39 175 139 b 400 509 175 433 251 509 b 671 283 571 509 671 425 z m 338 737 b 422 804 361 766 394 804 b 595 701 471 804 557 701 b 665 765 620 701 665 735 b 424 926 665 817 499 926 b 235 760 372 926 235 803 b 292 711 235 737 263 711 b 338 737 309 711 324 721 z m 694 890 b 808 947 739 956 766 957 b 852 888 836 941 858 916 b 764 835 847 867 838 847 b 728 806 747 832 732 823 b 785 747 722 776 755 744 b 949 872 873 755 935 803 b 836 1037 967 951 917 1019 b 611 949 743 1057 675 1036 b 602 929 607 944 603 936 b 621 887 596 907 614 892 b 652 869 629 880 640 871 b 694 890 669 865 686 873 z "},"":{"ha":721,"x_min":0,"x_max":0,"o":"m 65 225 b 364 -62 65 60 192 -62 b 689 245 541 -62 689 79 b 375 553 689 416 549 553 b 40 425 273 553 147 505 b 7 366 18 408 7 387 b 71 282 7 307 71 312 b 65 225 71 260 65 241 z m 379 60 b 203 265 278 60 203 148 b 358 424 203 373 258 424 b 553 231 469 424 553 339 b 379 60 553 123 454 60 z m 263 645 b 348 712 287 674 319 712 b 520 609 397 712 483 609 b 590 673 545 609 590 643 b 349 834 590 724 425 834 b 161 667 298 834 161 711 b 218 619 161 645 189 619 b 263 645 234 619 250 629 z m 553 859 b 666 916 597 924 625 926 b 710 857 694 910 716 884 b 622 804 705 836 696 816 b 587 775 606 801 590 792 b 644 715 580 745 614 713 b 808 841 731 724 793 772 b 694 1006 825 920 775 987 b 469 918 602 1026 533 1005 b 460 898 465 913 461 905 b 479 856 454 876 472 861 b 510 838 488 849 498 840 b 553 859 528 834 544 842 z "},"":{"ha":836,"x_min":0,"x_max":0,"o":"m 376 -85 b 807 310 618 -85 807 87 b 428 632 807 509 661 632 b 49 479 239 632 49 555 b 71 422 49 454 71 440 b 65 404 71 419 68 413 b 39 256 49 361 39 310 b 376 -85 39 56 179 -85 z m 671 283 b 406 39 671 140 561 39 b 175 283 270 39 175 139 b 400 509 175 433 251 509 b 671 283 571 509 671 425 z m 338 737 b 422 804 361 766 394 804 b 595 701 471 804 557 701 b 665 765 620 701 665 735 b 424 926 665 817 499 926 b 235 760 372 926 235 803 b 292 711 235 737 263 711 b 338 737 309 711 324 721 z m 305 958 b 390 967 328 958 357 967 b 570 947 430 967 513 947 b 739 1023 648 947 739 980 b 684 1090 739 1074 725 1090 b 557 1060 656 1090 608 1062 b 376 1081 493 1057 420 1081 b 261 1017 295 1081 261 1059 b 305 958 261 979 277 958 z "},"":{"ha":721,"x_min":0,"x_max":0,"o":"m 65 225 b 364 -62 65 60 192 -62 b 689 245 541 -62 689 79 b 375 553 689 416 549 553 b 40 425 273 553 147 505 b 7 366 18 408 7 387 b 71 282 7 307 71 312 b 65 225 71 260 65 241 z m 379 60 b 203 265 278 60 203 148 b 358 424 203 373 258 424 b 553 231 469 424 553 339 b 379 60 553 123 454 60 z m 263 645 b 348 712 287 674 319 712 b 520 609 397 712 483 609 b 590 673 545 609 590 643 b 349 834 590 724 425 834 b 161 667 298 834 161 711 b 218 619 161 645 189 619 b 263 645 234 619 250 629 z m 214 869 b 299 879 237 869 266 879 b 479 859 339 879 422 859 b 648 935 557 859 648 892 b 593 1002 648 986 634 1002 b 466 972 566 1002 517 974 b 286 993 402 968 329 993 b 170 929 204 993 170 970 b 214 869 170 891 186 869 z "},"":{"ha":836,"x_min":0,"x_max":0,"o":"m 376 -85 b 807 310 618 -85 807 87 b 428 632 807 509 661 632 b 49 479 239 632 49 555 b 71 422 49 454 71 440 b 65 404 71 419 68 413 b 39 256 49 361 39 310 b 376 -85 39 56 179 -85 z m 671 283 b 406 39 671 140 561 39 b 175 283 270 39 175 139 b 400 509 175 433 251 509 b 671 283 571 509 671 425 z m 382 -304 b 462 -242 431 -304 462 -281 b 372 -163 462 -200 418 -163 b 288 -227 321 -163 288 -189 b 382 -304 288 -272 330 -304 z m 278 730 b 363 797 302 759 334 797 b 535 694 412 797 498 694 b 605 758 560 694 605 728 b 364 919 605 809 439 919 b 176 752 313 919 176 795 b 233 704 176 730 203 704 b 278 730 249 704 264 713 z "},"":{"ha":721,"x_min":0,"x_max":0,"o":"m 65 225 b 364 -62 65 60 192 -62 b 689 245 541 -62 689 79 b 375 553 689 416 549 553 b 40 425 273 553 147 505 b 7 366 18 408 7 387 b 71 282 7 307 71 312 b 65 225 71 260 65 241 z m 379 60 b 203 265 278 60 203 148 b 358 424 203 373 258 424 b 553 231 469 424 553 339 b 379 60 553 123 454 60 z m 390 -309 b 469 -247 439 -309 469 -286 b 379 -168 469 -205 426 -168 b 296 -231 328 -168 296 -193 b 390 -309 296 -277 338 -309 z m 263 654 b 348 722 287 684 319 722 b 520 618 397 722 483 618 b 590 682 545 618 590 652 b 349 844 590 734 425 844 b 161 677 298 844 161 720 b 218 629 161 654 189 629 b 263 654 234 629 250 638 z "},"":{"ha":836,"x_min":0,"x_max":0,"o":"m 602 924 b 522 988 602 947 555 988 b 275 716 418 988 275 790 b 339 677 275 694 309 677 b 376 694 355 677 369 681 b 602 924 477 862 602 884 z m 673 574 b 653 581 667 574 660 576 b 428 632 593 614 517 632 b 49 479 239 632 49 555 b 71 422 49 454 71 440 b 65 404 71 419 68 413 b 39 256 49 361 39 310 b 376 -85 39 56 179 -85 b 807 310 618 -85 807 87 b 753 492 807 381 788 443 b 802 708 821 547 866 614 b 690 755 780 740 734 755 b 590 657 626 755 567 723 b 632 627 595 643 614 627 b 651 634 639 627 646 629 b 677 642 658 640 668 642 b 711 610 699 642 720 630 b 673 574 705 595 691 574 z m 671 283 b 406 39 671 140 561 39 b 175 283 270 39 175 139 b 400 509 175 433 251 509 b 671 283 571 509 671 425 z "}}}
